<mxfile host="65bd71144e">
    <diagram id="4ApZs3ESX_rJ877tGElo" name="docs">
        <mxGraphModel dx="1135" dy="773" grid="1" gridSize="10" guides="1" tooltips="1" connect="1" arrows="1" fold="1" page="1" pageScale="1" pageWidth="1600" pageHeight="1240" math="0" shadow="0">
            <root>
                <mxCell id="0"/>
                <mxCell id="1" parent="0"/>
                <object label="" width="10" id="wCUkDDBLQIwaV8VIMWGC-19">
                    <mxCell style="edgeStyle=orthogonalEdgeStyle;html=1;exitX=0.5;exitY=1;exitDx=0;exitDy=0;endArrow=none;endFill=0;strokeColor=#808285;strokeWidth=3;jumpSize=10;comic=0;orthogonal=0;rounded=1;startArrow=none;startFill=0;shape=flexArrow;fillColor=#FFFFFF;width=15;fontSize=28;entryX=0.5;entryY=0;entryDx=0;entryDy=0;" parent="1" source="0lQ9qycPSiAqUX2RLHM0-36" target="wCUkDDBLQIwaV8VIMWGC-16" edge="1">
                        <mxGeometry relative="1" as="geometry">
                            <mxPoint x="1201.5400000000004" y="220" as="sourcePoint"/>
                            <mxPoint x="300" y="905" as="targetPoint"/>
                        </mxGeometry>
                    </mxCell>
                </object>
                <mxCell id="wCUkDDBLQIwaV8VIMWGC-16" value="Generate quality&lt;br style=&quot;font-size: 28px&quot;&gt;control metrics" style="rounded=1;whiteSpace=wrap;html=1;fontSize=28;fontFamily=Roboto Slab;fontSource=https%3A%2F%2Ffonts.googleapis.com%2Fcss%3Ffamily%3DRoboto%2BSlab;container=1;labelBackgroundColor=none;fillColor=#808285;fontColor=#FFFFFF;strokeColor=none;" parent="1" vertex="1">
                    <mxGeometry x="10" y="910" width="323" height="200" as="geometry"/>
                </mxCell>
                <mxCell id="0lQ9qycPSiAqUX2RLHM0-39" value="" style="rounded=1;whiteSpace=wrap;html=1;fontSize=28;fontFamily=Roboto Slab;fontSource=https%3A%2F%2Ffonts.googleapis.com%2Fcss%3Ffamily%3DRoboto%2BSlab;container=1;labelBackgroundColor=none;fillColor=#808285;fontColor=#FFFFFF;strokeColor=none;" parent="1" vertex="1">
                    <mxGeometry x="348" y="910" width="323" height="200" as="geometry"/>
                </mxCell>
                <mxCell id="3" value="Synchronize data modalities&lt;br&gt;&amp;amp; exploratory&lt;br&gt;analysis" style="rounded=1;whiteSpace=wrap;html=1;fontSize=28;fontFamily=Roboto Slab;fontSource=https%3A%2F%2Ffonts.googleapis.com%2Fcss%3Ffamily%3DRoboto%2BSlab;container=1;labelBackgroundColor=none;fillColor=#808285;fontColor=#FFFFFF;strokeColor=none;" parent="0lQ9qycPSiAqUX2RLHM0-39" vertex="1">
                    <mxGeometry x="30" width="273" height="200" as="geometry"/>
                </mxCell>
                <mxCell id="mf8eVajY8xKNiSPVBCqu-2" value="" style="rounded=1;whiteSpace=wrap;html=1;fontSize=28;fontFamily=Roboto Slab;fontSource=https%3A%2F%2Ffonts.googleapis.com%2Fcss%3Ffamily%3DRoboto%2BSlab;container=1;labelBackgroundColor=none;fillColor=#808285;fontColor=#FFFFFF;strokeColor=none;verticalAlign=top;" parent="1" vertex="1">
                    <mxGeometry x="10" y="610" width="323" height="200" as="geometry"/>
                </mxCell>
                <mxCell id="mf8eVajY8xKNiSPVBCqu-5" value="Enter metadata&lt;br&gt;into pipeline" style="rounded=1;whiteSpace=wrap;html=1;fontSize=28;fontFamily=Roboto Slab;fontSource=https%3A%2F%2Ffonts.googleapis.com%2Fcss%3Ffamily%3DRoboto%2BSlab;container=1;labelBackgroundColor=none;fillColor=#808285;fontColor=#FFFFFF;strokeColor=none;" parent="1" vertex="1">
                    <mxGeometry x="348" y="610" width="323" height="200" as="geometry"/>
                </mxCell>
                <mxCell id="65jm_7ulDt7xcRRwg3B_-8" value="" style="triangle;whiteSpace=wrap;html=1;fillColor=#FFFFFF;rounded=1;strokeColor=#808285;fontSize=28;" parent="1" vertex="1">
                    <mxGeometry x="318" y="630" width="60" height="160" as="geometry"/>
                </mxCell>
                <mxCell id="65jm_7ulDt7xcRRwg3B_-11" value="&lt;span style=&quot;font-size: 28px;&quot;&gt;Process with&lt;/span&gt;&lt;br style=&quot;font-size: 28px;&quot;&gt;&lt;span style=&quot;font-size: 28px;&quot;&gt;Suite2p or CaImAn&lt;/span&gt;" style="rounded=1;whiteSpace=wrap;html=1;fontSize=28;fontFamily=Roboto Slab;fontSource=https%3A%2F%2Ffonts.googleapis.com%2Fcss%3Ffamily%3DRoboto%2BSlab;container=1;labelBackgroundColor=none;fillColor=#808285;fontColor=#FFFFFF;strokeColor=none;" parent="1" vertex="1">
                    <mxGeometry x="686" y="610" width="323" height="200" as="geometry"/>
                </mxCell>
                <mxCell id="65jm_7ulDt7xcRRwg3B_-10" value="" style="triangle;whiteSpace=wrap;html=1;fillColor=#FFFFFF;rounded=1;strokeColor=#808285;fontSize=28;" parent="1" vertex="1">
                    <mxGeometry x="656" y="630" width="60" height="160" as="geometry"/>
                </mxCell>
                <mxCell id="0lQ9qycPSiAqUX2RLHM0-4" value="Visualize&lt;br style=&quot;font-size: 28px;&quot;&gt;&lt;br style=&quot;font-size: 28px;&quot;&gt;&lt;br style=&quot;font-size: 28px;&quot;&gt;&lt;br style=&quot;font-size: 28px;&quot;&gt;&amp;nbsp;" style="rounded=1;whiteSpace=wrap;html=1;fontSize=28;fontFamily=Roboto Slab;fontSource=https%3A%2F%2Ffonts.googleapis.com%2Fcss%3Ffamily%3DRoboto%2BSlab;container=1;labelBackgroundColor=none;fillColor=#808285;fontColor=#FFFFFF;strokeColor=none;verticalAlign=bottom;" parent="1" vertex="1">
                    <mxGeometry x="686" y="910" width="323" height="200" as="geometry"/>
                </mxCell>
                <mxCell id="QHiWN74UKcmjQzo4_cdy-1" value="" style="shape=image;verticalLabelPosition=bottom;labelBackgroundColor=default;verticalAlign=top;aspect=fixed;imageAspect=0;image=data:image/png,iVBORw0KGgoAAAANSUhEUgAAAcMAAAHCCAMAAACkBFJJAAAAAXNSR0IB2cksfwAAAAlwSFlzAAALEwAACxMBAJqcGAAAAklQTFRFAAAA////////////////////////////////////////////////////////////////////////////////////////////////////////////////////////////////////////////////////////////////////////////////////////////////////////////////////////////////////////////////////////////////////////////////////////////////////////////////////////////////////////////////////////////////////////////////////////////////////////////////////////////////////////////////////////////////////////////////////////////////////////////////////////////////////////////////////////////////////////////////////////////////////////////////////////////////////////////////////////////////////////////////////////////////////////////////////////////////////////////////////////////////////////////////////////////////////////D9z8agAAAMN0Uk5TADSqN6//lyaWuKQwMiWVyr1BPLWnR8XaurzDzrA40zEtoMjHoS63piqc1J/ZSEne3cmUJB2K1yxDjR/V0b+GGua2wK4zG4fLqaxe5bHMjIQ1uzk6srQ7RkCiGIOLk9jBGSCOS6UeHIiBF8Sznj0vo5ErJ8LNPyKYRNDG54I2rdZQqEXS3OLjVZpK+vibKeCF9VS+25koIY/fq7lMiZA+7U3k6Z1YI5LPT0LhV+pSUVlO6P37/u70U/Hy81zv8Pb3+ezruW/9VQAAQghJREFUeJztff1fFNeeJiKFgAbRJrxLoJsXEWPCmwkvDQEVdAdQlNbwJsr1BYGIiEogiDEmGbOr4V6CEgjmJmGFe93M3XvvzOzM7M7s7Mxftl1v53xP10ufqjr10tDPD36ku+rUqfr2OXXO9+V5EhLiiCOOOOKII4444ohjx2BX4i63uxCHNexO4hKT97jdizgsYE8KF0Zyatpet3sSh0mER6GEtH1u9yUOFbyVvj/jgO4RB30cQqZDvYqDHm9nZYctk5GTm7c/v+CQ+jHAhFzhO872zziKiv3+QEmp291wEFnAPlyB+jFl8JhyZ/tnHMVCN0vc7oZzOFwB7XNE/aBKeEyGsx00DvFXefRdt/thB47533s/u6q6JqG2rhZ9SJiQO65+5gfQiIUfOtRfswiI/QzUNzh73YZ6//HGwsKmYHOLbdfwi/dW/dFHXB1aXVbR2DChFR7U5vFtYkDuaH1t9IPZYfcJ9ISaT9p0jVPtwA6Zsh3qCRtqzKUJBwkjJtvUQ0boQB2tc/KyJ8ATOm3TNaAJOS5F+rSBMOIZrZP/y9/ggzo9Pg7z8Izh5GW7wHPstukaxDjkfPhj/Ls9e07z7F2JZzpbe4J5WVmd523qYBRc6PUHQhfJzy7lHe35OPLAS8iIfU71LYz+Afxw8217EwegDQfx54Ifbehy4/DZK3Zd2jo+qDzOdzvkOxj+4+rIVeHDd/lb6lG4/34j/iqT+5zcIwITcgHbrgJteO06+OLGzeBQDf7zUEFb7ugt27phDmhl7AuPxRFuZKwtI7dNMCuXdjjyYNG2zk75w+DpltnQ/sXQ+IXwjxdfZELbdb037Sh/xKiGy8YtAFdE6NAER6BCcfTFUDY34mwHQ2CAfKJ2wO3J2+ZbP1SQzXHjfj+6xp2JKc2Da4akgwrumr+iDZgGNiuYIo14T+V4ebp1DBdDAWmi61MdIOfOcJO/Mdv4/Rx4v+NZZXceaB988jQ6csbsBW0BnKqyrvrhLXH73e6cBGmmU04LPM7wHTXpO/oU331ucCw8p+oCm5Cb9VSoEI5DbqSPsKHf7c7JmON789l1lW/65/fz381dMtPswwV0q4/0A0wCcsGjSTNzPbvQC43WV0oY0b5loEGInRxUfP55U6HU1Twz0yk2IZdHcfhZ8Gg85dy+IBkx5A/4wnsGuEDzjg2FTnYrxuHJx7ivHV8YbzYTnz5OcfgVYERHvRxRIUSUxtEmH26UGl3tGMSlvNlu5f4emJDjpo23ug8Z8XKUV6GI/ZauZiOKiseywNscTqZeWdNoAY5DrtBEA5fGpJOzaI7+BIR7qU5wC6V9Ty5/eeRJIzf/1X7TS3an8DWwoVZYQRd/e1Q8+SnNwTBi75nlng765/vd7gIFvgJPdc5UC99U/df/xnHPntMcC18zIVNXi0OJb8ELynR6QUM315ycUi04RfsHdH66YCt9/KL2YRq4cXNi0b4YduyiQH6mo9MmlqUSSkuEJqq/4X1C3ED20f0ahszANhwzepFj/t+GT1vcURlldDhUkJOUGIaVSEJRsWSXqmPINzugemQPtmGvwYv87rJ0Ysl98z11FjXVxbllOcOx8Ks7gL0v/kk5V9SvOhCX0JHZVFuRDyqPfvXd0vILKd4jIodt9+3By5X0EPrVud2ZqCDTLRDm1Y5tQ1+30jT9G2k7uVxZeRS33MG2//ZgBTwKzzh6NKFuwjbVcbgsfy3Ey6Niv2rTj9j23x68BEZsdDQBzgT65+mHYcKLZSE2XkBnwoT3VZv2/tTEo6E+H/XY0QQ4E1A3YUBrg3GoYCxPq+5Cge/Vmh6JgSWCgDnUZW+5FZUoVnvOqrFv4+hSabmEeQD93Opabl5g6TTrzFucvZ7t8Z/dgMpzpgtERccPXV99fXQ2cAQ4BOtYP47zncelpk9TLZXpAUoQnMxiNIF+NSOOmQooa6K05OjfHA0EAo3TdayXB+fO4F7TRM+MYBH9oj0+DhPuzkgjBLl8uHW2JrQTwIQm/cXaaJGMWOb9x3HMzy1erqqrvTAudrl93etraYy9acCGzMsYBAdWeplqLqHH0CJ5ooUt0av2Uy53xwigCVPZlxM9f5qZ/hbzVu1EeF87+EonM9EqTj7uY117Bwqumn5k23SM4vqgWuIcCxz0BfzZvw8/6Wa27YKgtB0Z8HHIqKnOy5af9CrTlkHOMteBq7JKSwKr2jVacRjH+U4w4bF9tMCEoDpSsOzqT0yvtLNxqAA8Z6pwBz16oA2lJK0Xy2IBzT27KqZ3IKAJcW0qG5TDthfEz1Bs5THba+1kfAufM+PY4ShoOvBQ/Ay5qoNsr7WTkQdtmM227VvYiKlyRhiKU7uQL3ChN28pZxsSD65DG2owTZlG/8A0xz0tSA2mot0h+s2w32y8XHmp8+2DO2ceCRdOs22L5hZqoRFHmTd/e/IpmRorJ65za6wv9fkTbkVB0SDj/homn1CpbdLFjZsdj9o8zc304A66txEH6vhR0LKeccM/8C33aFX4rcHp5oihMFhDN39OWy/j2BlTINaUVScKqOXd6ABjBpEfU4VmM36n/vV9wohGMjdr6+STzGcI245T7cM///Jz9qwzvhPBpTC+oZeubgInHzdKT/ryf1c/ApaTG0qFq0NnTRvPnd+mSOG4SsbT0utNMMreVz/Gb9aGIGMlNmpYDmS8//53l48fv7z1lKpKxwT2pFR+wLjJTWgfjf1RcjQb9g/MQ54fhFR8WhXLThtD/3yqSn2rKkDFBlW1nDfwGhrxO/Vj9kAjKoozL4aO85x2Qyon/pjaJJ+WaqRTF0MB6gzDqBCo3rqbmqKxavA4ju/TUwX9UXAA/PaGNY6Z5DSO2X0iEJACN+r50TLrT6qREOi7vEOqQG1HcnfmmlE3gyiMwEMtKWn3CSLuu4Xv08tFqDXVa6lbSbvxBxcR0dPYpxrnDOFb43rgF4D28lv1U1uaw9NSliETHhPfv0GVkTjDcdfeSiC4hKPgYxw8aFTmLfxhluOaNzDxFNgIU8+ltyfHfZnmRBf+uBTwB6AtKFEt9DAJ7IXkqvlORYLUxZB4f4nAhrnCNwd9gaVXD2DlrYYNE66OGFweIC0DFc8XT9aTnpg4x9XRJnPB+E965Je8CcPYQEpC+H6+pez0J2VCyn+mmaXmH8VCrSS+8soQJMc5JHW7OhKeTx8rqT15oq2N67yzBTwIgTRErPV6NTmDP98ycROqQFoGKsl82EOdR0lE2gS63hTxi8cVa4nSTxrbkJJyBDXRa4LoENXaLRs778OgeBrprisqfqwSkxS40gbX6qAJuayrArGfCGBEZkx/aCejsgIGUYZOutYImq0TxFdQvETqPVKk4appGt+XibI4THBMY/0bY+9exDNFUWiBqELwVl243RDueBAxHvWyclThgkMVGwKLUMYYvoBGXIffwPovOZFGfqx3qtW2SgoADqSI3wcN8A/GWAkhYrfRWoICEOIeGiiWjJjMzPWACw5V7gxXiR6n3XvIucUct0JkF59bBbcxJvvZBL9iph45I8Bb6aAJw3sRwKZjbByiV3z0MrsfwQ5dwsTa2uoGacNzZwKFXx5nKEyHJziVO8O57/Rb8AO5wjurKiK6Bk3YhldIe1LWqBeZ0IQ0nIAE4DSgxwDx7tyRXLJt+TXaFb3OItKE5a0C+yu8dlVxkcGeR0czaj1bqTsp16B0Glrrnmr3v6n6JuJD4GI8YTI4Bseh4cxUOJPr5GUIIymXoHOXRxFF9AqWOofG2spluSuwn5gw2nEKtGAjJiq/PejzV1UFWLDjo2hM+QnjGzQJ91BXR41miBMyR03aI0oaSaGgmOK+O6mvdGrDH/DP5dEo0QAS6hX4M0CLhDUdVmYL4F/ZvkCgcIs7a0fzCA31R8JXyi+3IMWGVhfGo8ekzJHmmw3wKL/i/04yVm2IXxgB4k0iO0+/tonJpbTPLxTUX7Fd7eDSGLf+k5UGSvv4JXrbnAn67aeEDTXtAqiwhQScDmPJVHjhRq4fZA94TBC56KPWch3cQV+WiVSTlsXlF087O3tl116h1lwK37iV/AcntPgkNHChV+Be2IhcP3zcU/j+15dznCVU6p/3X84+2pjltB6ZLViUXDMyfVKW1tsUmHBWiDruPmGUa7G2rtK3YctLzyjwD7KebvvtabQsCstBTLHbLH6q+IECYbnYLpy6Ndp2BHLJVMcMpZompoTlIHbzdBxLEEZn5HYB7AE8TpwQBTDlfbu8iQXAaGV4GdfH9UWOQ0zI3+F14gR93Io0YpPbPWKEe/CmfIFxbiXyiAvIiDGUGqKKKdK/x+W73SFGGCdvixtX5trvyxRDnCG7UrQcQzd5r2yrdd3DhQgjqobThGBhZeyndjZ0g1cHt04k814dSUxqXZqm5NnzFgiV20oND+I75WvMsxldwYNXY7P59/JnnxSOEfvyt9Llgj6fwxtWC6ipbg2lLmVM3k44eVrOz17aHnYyAUI6KcfzUhESqqUOT4btJqmSFf7RcqsXQ/7AmRjkaiAlzPYTcbbautl85gRsLIAXm1zleUkAmCIkr4+DPoEL+Yy3hB9pQIgR4Vh6zVDX0e/e4z+pu+Fq/1QBVdg6TyYIqgEWmW9rquVI2oyNLEz24CRpxKCgeRq2IP7opttdVIKQpz7N09X4rZLjV+MG77DppIN4dw4+kJsJk9zkcgb8iDVbIQPAxSijMPoqxyUHxfv2ugaYEiDqH14Y3CDpRHh8/9DtLiqAdxTTS4zC6PVc/R6JDPMykwadBDQht8Rvpp4uk0ZcsHiFhwvTwTy2QiByVpCPWWVtgxDxaPPoxBMFxMJUJJi/GCJsaI3Lp3ZdjKSzZdsXkmlWWLsl3hEmIeN5rm6jtG9JCIYvfTk7Lm8kiPm00RKnFsplsLz2J7EnJVeXiMQURBOaTvByEzX8ogy69d+BRiy20rRc2OB9/QEe4fsuiU0TiuvqTfjJE2TBJ8VFFlo+hSgzPF2NiFAqv7ZLSzrHY0oHkM8QO/oafoI2YF99bqllbEK1VFevYmrCLxTELLrdEQN4/jSywBylcBtKAVMCjUN/ojLlnDFKS/w0xeYUmJA6HVOkfuGleibxwf21z7j6khLDKWAKSC71M8csthMNe6/l/xy+znhxEeUJJ08HAk+a7vW0KhnIn8uZq97XY4O4w92JYNtvYJTC+Ip/GBN2BwP+iIpJi/8H1QmAZE5R54GSj2PLhg/ucO02tfxqK9WeigSMGzcbkUW4L7UoEQgAnsCOyExNNA7ZiGI5hlMxpXoRAaLKmhumyRrPBScoCpZlF0dMLKW3CfIJG4p8B1EAStqfKDKmJT/VPbtf4nFgtJE2pHmNAZ6Sa8pvz3cGsrm+n1j302HU1pXdC8VIKhiUZuNxlGL87EJGLFSnXCrt43f7v9n/Ro0qIzYgkECEAmO5nszFIBFhwvB7jCI76uRjaTrN1DpiT0puD5+a+ti9JKPaumkL5Yf4feF1rVwyPVFCJcV5b6V3vc9x9ZrUAYjhbL9bSZsCzZtpIwIewVyWvbIBpX1KE9JSbFwf1N4FF2ERXsaiHZQ4VCCyO5016WcBVJBedzhFmHA2h/fXM6CGBzrKflfSwpD2y4C585fwDTgb1a4xWhv5cIG0YU7/oQL/KANqeOCudyctDO2YjpuTSQWJY046nA4VNHLVxrI2IkzIcfOMQkYgbOZOiRFOLdQj39EG4K6eYdw1HfwgdrvESHk+wbItglHI6Pkz1GJP9KPZA7OImhNRRy+ZiRnn0p4RUWrQQKYTYcOVQOfTRWah2wev5rK54kAg0KMpXGIn0A72srm5tLQvMDe2lGO7t5oAJkqdpqR74xkSgAlbmSfYFBUXsW6SGsgNYTGG6yhAbjl1rjU0YUzdLAVEDu5nlmO4TgLQSHdRjkMii/LXWLpZGvCMmmWxVb6MaUj8P1CeQiTCuigeYQ+ujnSUfcKioQ8qyxwi2EE2/JI66AM527YieR3jEHF3hqee2Chy4lqIbKaC+pTDFT2zaFFqY9diGKfaJfpOS3nCtNiX2fUll9nlrzhs5KwP27i+wJHvuRHmi9LtAeSqmHXIdb/PhMyFEOm7aoJ4cWcAlya2xjbJ0g4GKC+NbbKzHQzATBRLAlxxADR0+3JFKeoYK8p78CrmiBHshCCy2hxTFV1TEx3cq17D+nLbGXtSlDUJHsbLFanybocYsYU2UHPjpgdpatSBZS9UMke3HQ76CrnFJ4PXKY5s9SJNjSqAFkJskz9HR8viGVn/dDDqBp4vKyL4C4qKezsdjA7To6b6CF5Lbxe2ZC0sAm+x7239Y0UttVashHpAKDmZYahRxQqA7om04fOnYxlGBaW8idebcjCjBRoxSz8fXZKoS5VHIhJATvZcNn8Q3FW6QOV58vRaz9J046/bZY/Lp/mUFYn/J7KjT+udhdL/WsXpE7AWhrxWjNCJ76ldFC8+jT9p2wY+1Smh0LxYLLIkOGjExK0fU9umM3qCEcw9kG9ZSHKDrIXW+IfY47xgxPWqI0lyQWUa6O2I7aQAduNDqcZr+O/4vwgOGr6o4tLYR9JfRG76efDTFhOGgeyH99yo5zvnMgie5L3QiImx7b/ZlfizfCeNglAazkV5xhc3HUK54dz78DxoQq6X/wSIAIdiIJwBNhucpL0Wo/igEtxIufARr8icVtY7/kxIu8Em5ArhiTCR+tEF+TwJlKUApSUG1eGZgiiMiuX6bGhCueZu77U07I4Cys0heOIAOE9KOEaCw4k0mWQti6Etjns6HnLN1fMhLhSuiuX67GvAFFtqwXLMO5tN7Bj6gRE3xI8a6oOX+T+7aZYItViT3DVXz58KpR685+28qQ8q58bypseyAlUdXT0pit03VE8WaCgjK4yweDFJGZXwQqQznelZAvltt0aLK7qpGGyArLx7ZXBSSaz/f7rWAyoQkyWXEvk1UO3cKg1v+XpmueoBOBWWaZ7L0wSdNutZA/rnXLK5JhhApN7f9PhE+i7BU35PMQ6fYyPmNsgHwyWJ9OJPy1KM4Qevpk8b28tPbXSeyUxMq66prQPU4IsuuuYu5X2fuvk6+nFu4vYkNOHWT8ojPm9CX3dny6a+jb8Pz3nXQr1pLGJuP8iVE9WgKinVHirJBroZPRZAmPDen9UOub/GKTCJv66tYxUz/SlfeSG7CloujXHdIU9GUIyDGIca1eh8GU0doYRA6yp7uODLz15+QXfwnhROBWaZAXRRVCxIw3AznlDrtQzwPqzUqEbfk5JVVwuW+hyXQfeak+QTlouojlY14fIVutswBsR7wEbjwnXInrNQFIIdQIz1hDKgJssnFC9QMB7A/WQYG0K/cmyRRMPewiU7mnce/A3Nd3VEJegCUVLaPTeYp6ujOkgJE85vTD0QGEwr/W3sFx+4cs1cxbr3sC+TqmK0plqqFCqh9n0BgrrogYp6fOxouEMg7NFNxSxqAPj1wVh4wSy+mD7iUJ3f1ERqMBg0QCECF7S90Q5ukI04w7PEEPXyrJ80tmEa45ZNoaGbz6fecJTDgBqQWzJ6oXxNdWqwp6xXXPAT9fLvRzvVIFAEtMkLmaQoMjShurVzGaDaNstgDJVQcOtg3C8UxlZQcrsAzKbJbbndFxUcxkZUFb7WAeDr5aaZk0g+f1aWmtoa8kIaOlSv/97tzqhB/o2d1RC+1gZQyOxmppHmPXxSdhn8WG0S37NYJysYcd0EleaofF+DLLcWLc09+T43UwNI3LhJBBxsori7MM6NfPaXvxQqUoJaKOeh0pKydTOMwrdEI7bTFATQorZOXCk99YoWAMnrz4R5UwUovfDVj+DTvWlLeVzzo6a1+7ZcVEBtXd/pFLYPG3sL2wc8QStUQpqw3STz5qGC6bwxf1fBIfWv8VhPxR9iYsA1c6xuLgG6fE3ys7LFDGHCepM/WBSxK1D/HtvwW/wh5nbk8jTDs/3e+KkTAG8fd2iaEfZeSw0Pm7uSEdPLlu6lmtVYQibU2prgu/4FffYjzqBRyd2QEH6RDrARM2MIYEPdIgO78XdHPuOHzfILgTo7Kf0tC239Zj+6Jw2JIpVxSHKZq5Msvd7kw7njGhO0U3jwKmMtdS0Hv1THULcDbtZ7oHDf8iebXY1JlqrdDwDxIg0bYnv5lR+FcUKVZOmkVG9SYL94oQ5QhVa7vJlAbOPZ77rYr29wzYL1YlWoP6XBPF3aFxAj3rMotWsFnJWu+ht6F8f8E69Y7qVZgCK7p1JeLIqFhfRPtRUvgAL9e5ZbuwesoU3f/elw+OvCP6C/X4pGfOyfLlCfyN+FaRtnLfaxts7E9nJqYrwsuB/0IjMgKI3KiScBN8sfgQm5ny23lgVa0ykJCU+eJX8Cf9fWZWb0aKsZXR0BzVIJt+iAL3lYp03IkQFI0TGE6hCxgiLk5kxKEIm/sdwaiA34dMIKpX2GVAcIE1p0H0lVp8vGgh5qJgzjWQLvnRjzuywpdhx06WvLrU2gttIZ0hsmEg/O0lsbZUXeMSQwrDoOzao9MAe04VeWW5uSjVhuZYMSCaJOONMCJfHVEfhKM5JmOsapwSMqvbBz5dabExcfofJ3rDeFAdat10ywimKQk3KIfiASlcqes+Er7pW8PzzL4MHzK8hx6fXQP78262Mwpd5CUaMxi/nfEfKE9AMRmnARxwayop/pBB68enB9MD/8kq+zIFEIsPfauOgQO+b/nr9Nq17E/vkFvvx3iOOS34xp+MPPncmay5oejx67midM2E0/DqEXoh7LL3mpGrsivMSaYVuL87a0zfjOYjvCY18YqhnSZhFCBdLN0Va7/fNJeCY1EgkG3sCFBinAM9HrKVaEQaFTm5Y8pSQuydkrX1psiB+HCw/1jvgBiMKURKtJO7cqHblhbDuwK3G4LZjRk7PE96W0xIN5f/K7Pp1VXOBttNlnnUCmAEF4Er029KSYVlNnyQIfVDqUf2sA6/IjGGcTRwc+WHuSAQAIE1Jcbk9KFjcSA/LQRjGKH8Iag/QeUDT9ioEMpz4IorAFmsvFonjBQV80X9AtYMRn4POTj7/6rMo4fwM2oZ7DjREgPWGh7oszhsHHB0N9+is24K0BbxRRybHKsB3QYx1xQE+kpnpYXj8t/Cn64bGIgz4xWqdfJIRZfU7jld0fpKqkO0alb2qqhTTV/ZbnrJOPq7r8Ga2dUSR7rpyt+vnN91/qL19jF4j6LFt3IH4hGzEdB4DwVnbFMJX9qfbQ7H76fPiPe47krpVtzd4j1xo1Q3IPKjI9mA/lFDD1mf5AbGkuywp0BOAOESp62yspAZgP6uDnQ6AH3MAVW/vgYSCauqOGaQVhnZCtOwRIRNcGv6ghjGg1fh+zQMS7UQsuFQDuj1Fbdwhwd0BG5FqawVft4a218WBrbV1iVdVYlCWd09ibNj3nD/hpe/U7acm5bPhCmLN3xN5NHkwujUgtGsbftJ7ik+aMFofJ+XB9XiJmQum0tLS5l/LmesrDW4Y/Gr0SIl72MdgS78ucHhvX8OQBG+ZFjDPAMTs9I4bgm+fo3bo3biLS100rvWeLvYg40kD88QYf8VoyzPJWKvrn6yxv8p4/bRWcb+PqXGs4468kMriEnIAE0inLB0UeDBGGVJbfzvr1r9zfp/4Y/UgzwNyfRylTqT7uCYhBXn90QhcSr/m870UGrkXMsXdazR3bsihuRAuUoaPa9SVOBdN01wUm5Jrou3tuVdxSw6IelgCE0AEqfo7Pn6ATqo1dik+d7GHCTgeKEnJU32cvljs7uDrVPPy9afgGEBborgtz9jSyzlWAvb02FbND4Qsqfg7wBAwyGIVNGPzYTB8VgM9Si3SgVnO8988nniFa4BopHTIw25X61QOYOffTnmMIeyGPMpUNj5u4DRF9zLZkgGM9PDmbaeEckQlTT3kWLKikFlwCDLm2xD5RFJpHdsRcekq1xHUWn2CQx720j02GDaF1MGFycobUxAG9JIr+gTPDnUPiq78UGDE6mY0EPA7zFc7CQwX3fjLcdRLEljeCLHJqIp9rVyGuA9k87jk6JEa6yQzTCQxAT6FLbzEnLUWHRLa/U+2rVT//luP+4dc79MEXOY2486fIb3jBsHtG6TgiQJhwFazTb42GhGqVDKVqWWmfPyAo04VYjSoz2JPsSy2bvB39QE2g1NCUH3SOwiPPQlVG7TrvZqxUGktIqOp8zgdKQoapVSRAsrLhc+ALFMLNUt/LHfS5XRJgGVdHEhPnOK5MSdMPAF6blgQHpybW1Gg7ReG+Z3OFfNZlpzldYmjDfGgT7M5wuSjcXuxKLNNN1Id8pev2dACWfpyg5Fzth5UdQH+FLJfCC5dsl4udXQU24ZYpBhsK7IJGzKWa2/ZlcvO4doGkAJrDhwG3ogYbxY4AHof2Ld9gpTNd8W8mf2R5VpdYKRKC54dn/D0p0qsVhGup19Cm8UOX3qrCVcijJHjFtktAxgGq3ZqYlMRDkLa6SBhxZO7r8L+dfFDhVLugrDc+vWRgDS1jX+ZX3xmJr3VxXTaROe1JTntsLflW8pHb42ARAW0QdfVxqn04Gx0t+liKOSVGhG8evApxZ81kaV8d4RlnDQhA8noDayYuFBVTG0Lh24YVuePa9Td8G1HU6C0t08FAilrUJUQNEMSXnyyiACFT21wxs/8r7euinxUEXOdrM96Lop5tBmhfkGFpGxT+5XNPdCrcSvsCAi9HKMsQe+K+zIyg3y8YTV58BKLX5REm5FalT8+t5vaU+ZKBdFnEe/X25FxTVo8v9IwmXxszAmVT3cnLlSf/KByetWakEpoGf94Ct2RJKf3zJ5/rfAv8Vt30bcoCor53kW6mjyL21wEsmLt6jvwSeJGJ8vSrI6iu91lO9PU1rmzWKAHuH9icONOaExK8nA/uEJXQj45OM6RyBSYMIzlLmyXDGsDaPpf6JKTgzgWKi8JGDAQoBmECkZKkdDo04u/G4edksfJ6tEA0Cs78RaMEGC3WF33D945zkZhmpvehJC2wSWYb1K7TMiIcrigE/So2cDGYGqigMAMpKBXw8wmOQOqofgoROlxLWAONQ4X5RFSySsZX8k7YRGGXa/wKFUS/jHBhgPG7okiWx0SDR4g09lEuEro87zKNxXw00tD+Ad+womkerQbu6ML4vfyQBovvXGTDj+yZS+8Cgk/arXQe0TFDek7yRJep9vK8JM8JpMjOLdKIi1HGYfi3EBzO81GtT9QpWgykK3wo5iAMqi4av45s2Ca6AmDCLtqtNORXnjMWPXs76/vw6idXg8xDpAeYjxTZQQQxzW8+ymUr1Vi7DuLJ6EFQn47YfdLUaltKIhs2MsANALxsntCecwMb8bhhTq9PyrRXP/3zq7lpKgNIrBvz2aKzAPn5JFDnd4AgrlpKU2nJZbLhRJYdx5jCRkyiPumlTJAz9jt7ehWBmuq2MbqFrwncuPnIrA1hMsURtQMukVRMI+x6TUCeDYJGiFpfb/rmpqeHtbhVYgykXrMBGwJNbI1coy9gaK3YrnJrkQKEa/rQpvZjAWQtEr0Noas3Q/2Q3SfkGrbB4iI2vVXi+qCtwzw28FY6tGEh7XgpEow4JDBPalbC1VQ/zs3PesxSRUSBhu7EpYwYZFVgCnK/T/2D/sMstzVU07LY12tvJVwcFGghjKgxL8bhbRCK5Tbt42Ic51azq7LWRO1MbwKGxWzmgXq5onQ0xgCkfPwZ7/YdhKcTbX63hXfXK98XzsXaGkTeganrrXgCstLlqO2KIbJ+xIgXZHapgeSjZz1HzYch5MTX2b/A/BOK3EVJkfEWsHy0oSiHw3i9mesA9+BPWPOE3rnuPkBtE2W1awziytnUEzQpSUC2RkN5yJPAJqStdo1BnOXvr3tsLZpD5ntsQ1Ab73nuSjwOPaFraQdu3ETFP4P6IbL/hW2I037vr3EjboqvUeD5s1BqU7jTrJP/PIMayDi6qLss+gd8YLv8mZCqkGgleZE5SktalZH6QwVzXjbhgdwuC+RZ0IRRfAToqDpcpy5mm6RYkmlkisMVfOZTZpCtLovNEPiz+oyy3SAQlUPcuN5sKpbAjFSCJbCkucWdMKT6ZSPQXpArt1jm7Rw+qPxK6PFQrsnCCNKGujwZuxLDIFYwgGOxxEphBjPsy8S30smAC90JAPoW+jxpApBij+OytMZh7frkad6EpCsIcizmemE+zYQ38yz68V4AoG85aq4FmJWhw8mJqNqIgUjkMNJnNdkHWF/PPXW7N7Xr0xSMhKBKwCQFzzi862mtejuYKTuCzfhXcO7XXhiHkD8p3+25tKE73Iv0qBzcX+IuD5m7EBTOytKsuonIWJfTBcBug3tk7vpsAfiT7OLoo4aUQ7k/WhIszhP+zuTKtH++LCcoBWduah20i9QeRemmcC61XYaIChdDOT1SZduguz1BVJ+BKBnsuLLKkhf6ytk2jqu/WaKVih5hQmRDWNiVYqUDTHGqvbyntdXWVK7oeImlPqNUkmCNbFrmOw20LNY3hFeZi4mqMcjI+gvZ8Xh1pKeqUeCCTNNlG9qBAGqt0YZXzdBl/gGv1RsphVZFbZ00xmbu1i9HFLyCOqhW7h++J9UtXm+25qXFVFDYCWCdNJodw+vNTBb6bHXomnw10joRjMBzZqsDekMuYF/mHGO2f8DxaqTO1QqunO3hCBCZqldHpJF4Z3uaUPQN0LORUADv3EuKWLarg7OkBUORQcFdPMXeiAm+ndhAleK9dd3imgh50Loc8yQfIUx4QoXP5OqI14O95nFMmPm6wGv+5Glu0FroQ6osHLaNxuvGzfHetGQcQjoF5aS4m15wuRAo7VsyrAhCj3+SagCBursgplKuXjBMhxfLwaPhJqmo+k1BqqVtl3lzoAn9kdXMduH6YDTd6itn04anO5P38BOTQQ57A0BiBz3oI6n8MtNaw7V1dsadkaf7mZgmBMchFf2gVVwY33rzz+GLpR+fHdMy5I2bEglUMs8dMKd+kHX8EYl2oBeizMxXaN8osgwQsloQXrm1dZuIpMGJbGip7lBCuvpBkD3BvtzQq0pfFyaBG/auEUHISlhREwoBpuQSDIIwIXdG/aBeeMx+u3K0gb9QciHCpzFsE0GWZdwH+jgCtw80Yb66z/RcJMEZDZ4/00g+JxywPo2WibDYhvGr0+HqSFlXV1dHR1eX7GaET8MugiyrAPnanDh1QgKFN2q6HAnfVHGrRnNm9qb9C8eNbqrp5EEbzmr4DQgKnj4HSyXAOHxqF1GdRRCjkCvnC7qgjA/OO8SQ/DQlRz8zICtcKpEibqr8KGDAQ7n423st5MspgSpvNx1NuZKLkLg7boeRtUCYcELYxxIpDMp8DLgCoScFRryWqj8K1GCFYhMWwavCcXkau52pDba8TQjSDY971i0Fx8BZcYoi2FmVGe1wBUJPWiwnTB1Xm5xRVPlOpFB7S7M81S+viv8bUhDR7EoMlo2HfPdsW4CdW23MPqKl8ukBoDGwPCmTHUOW5GuKbSlSMRYGLvV15Iw5dXlE0YhBhQcWj/neG+E9/p2K4iFFhsLeNNSdssjvdgiunOUnq4rlFzwDY9dTfs7HRf0rikggyRwIR6l+uYy8rAyqf/3uHLceVHILgTGvmhrS0H1tARcUOmbDL6Y/yvWWv7i0r6yCn8ME7smn/DtFTB2oCCnr7d8phyaEManwUNK7LdmGPRrf16oyK3fjSylI4mqqp+/lE71xzIYCa9bIo2rT+fQWcTE0V1igqngjck8KpKq1dT25FZHvpoQbN0taiWc2h4wmrlV1CHHkjDkNYmsNNGAjKgg3ydoQAU6pMcnLrGqz6mDW8IPAY12gstM53ykOFEzr+FZ60lgSfkcR/htibMhR4Tntgdg/3ykwjhtcduD0wsjtNSEZKqGLGf+1PvBSudNKMMMkEFfvY8XLp1PuV7O4dNx9QkxSvFMlpecoTCiPO5ysqMtMdb7zcpbh5f+HskJvpPFVTGhJlc8IwA7aYjDDDDBXbzDiF1SEmfeELRwkNRXT5BS87xPisAP5pjoD0SwkftxXEca/OhLZGx4GJBWsAOjZuMDjBLR7I35BgDxReK1AUlPhXUQKs4T32iL1MsquEWAD5+GLZd9axqvIXQdpwnJfWVmrr9WQtIkFAD0bF7YzQEkygp/lcYQNoQMnmLA76bsIittcca8d8ZK0iWJYCWIcVlHlSagvfU0BB1HsC0ZrA5DJks7/k9iIQtwX2JRrK1niIpAvVRhGvCT1bfhWeuC97MJ7+/N/sn4jMNmAJiL8/Om33PrlrTEm+7oLyIhulFNhaY57Ec7/DfSNoFB4EhpRCVnXIUI4QW8u7Z9Hv4R8644rmGxAsbDAy1gm072ojnEt96kbfnAkzRH4KeKbqQ1RdOyx5HM7CNQ3IWb+92fHc9EG5F3CiIk6P3LiSM3SRnrgKt+c6At8nGJhTY0YYZFbXLu2l/8pqUbn7MUPXXzm4UhApYjqi+nGxjG8c5RWps2kAkpdBGkkNM2cDq8JuZ/bYpBefCCjqelI+C29Ej2vXaApkGDMy6CFFnGXFB4SKoEYHXxQucViNq9dVyT9quPGzfG5x80tU1DlaEmxLtiVKBfR1OsU1x0mVX2YrclvjdIQcAITdjGjyPh0OCv4JLzgM8LoL4RRR+xnYlMAPP8e9cTOd8r3/z5Dt1InwoRG3WIPF8ay5vJyW4nsgd0ngnQ5IZ+CqYTNVJogq7mHMUYvjiKthWwRJo+CqQmpTDzlY7NNbJAmNFjTideBJSgC/GKZl05ZbZu8He1sQud32EzvdbvEqb2XlHi48P6vv5dOcChnl8TB1i2OG1ApKzx5+jRVpdwUacRNQ/UL8HXG3ZRmIiSsMxlt30dINVMrRkQBzLML0KxOYdxVs8baXtTWDSjTlPem8XKe9b9SBLkJx0qeWmqUFvoHiOwQeSaaU3yiBcI7sWzgyjoo7YON0hCnQAUZ9Ui4K/g/qCR4POqx0Cc3bGAZsDeNlEHluEfi2eCZNF3Ra0Gohz1TUNA53pq6xse6WQCaMItKHBjaUFWRyRUA3ok5isXh1ZFE0YwdRvKl0zgF8oRlPXwmZ/VaqOPq/GdM5MPqAozDKjoVbejqMkkfZAMg/wtdTr8wGBPpMxoT5GKQhQDUYBacROCZZF7Ra6HWFlblD9uki7d9Q3cCdA5+H3Ud5hTga502Azo8GI0RnH5Sdm86Y+Fh+K0oR17TRCcRdr08dSEQy+/W33z0c/jitApjREXgpL0pslMTrUtZGuqcJGBog9WSXQeHK5L4xc26nKf1SVkgkB3+4IR7ubsvVww4TImVeYmRVZ1BvFMu0uVnUnilYY64MzGY15sz5EbioK/rhOdqXDVAquJt2nWZ64NyBSXXW66IuyoA9rkxpY/gDkRpw/pHjY2PZm1M4iCryF5FXcztSS7wC8X7KXFKmug4+Th/THSI3LhJ9bIyhYhw02pGRvT5vqV5pTLOC+UdkA4RcdHndp/iMIZXChNOe7VgKw4NPIgw4sC0JolpHF7Fb/bL5pv5/ttxFS93HN6HnGvY7WGdzjii4N25L7/+V27EoWxbT2P3iRgmhvS88pYTeLH8XVxSOabxckUoEPNQsDYOYzi3KhUIXaaNSsShgtr1mRl2BRIGgSsQ2lzqwXaAWCi5/ve/vVfpUGEoBM4RKHT+4tsGuFCSqywucvrqcRuyABFsK2adDRMN2IaBKw5f2jxaFoNHso8aTJOwEQQ9G8etOnx5kG+lm27lJch+0kSvbAxJE7IokzIEYMNArERGsavbhmJsMzhDmDDoNM8WzB6NlQwFnAmtV37mIJbBQ5xUIZCyGaV9Yipke+PctVgZh0AHxRvT6QtkxProNTF24MGde4/a3KgPNY1jwIjemE4lsaIU69JVOwbvgre4SS1hthBFw5LjeToGAN7i89GPdgA8U1tb3IRGgGpAku1U0jCARY6rUF3LXBgPqYgXxZHAlwN0/PLR14Wemb2auWYFcSMPPi85FFBnfozDW2hpVqXnk1VZC5zuTxysgPj9st3uyTbC82etZT6fU4G+0hLkAnPmgjsA/QMS17rdbB17xGoAZEIuO1aqnbwOXBbJjPVFAymiWvsk3gEl2XzFnQJc2dpj52S6L7PsGjfE/+82NqImQ+PUhINKQrGPNjws7JxMeXK9ayKHPYpJPVH3zZ/vzLrMTdioUrrtsB/bMMfGAvO8cPuj4n9RbLhO5biDviwxHW2pLSn+uqREGbYhV2LfZS7lFSLVvedP13I5blGF6qKhG4qNJbmQSRWT+AQbcdM5LbQrZ1XZ+YGeCY9K7+ozeQs/pvLz3NB0j6quobNoiDCi0/kbLuODytzpgN9npkCkf6BEKaPlDg5kEDbcUV6AfZmSbJIpI3oISM9EgN/t7jgIIBLplF6SXSD0LvPc7o1zgAStDkfw+wcWctlm4sN0BC2FtzAa6tMysmK4tjASkKD1FZMWaanmRVraSqY5Twd9XR0dwwJlTr3WMYcKxOyh1m3jCgAsCj+zULy9NRri2oNLa0rpPQKHCgpkD8EkLfVGy2L7qVPtJYNROYh3JwXGVJOpioozyspm5ftd2i6OAECFMcuiPaRTWqHHzErQ7PMUOLsSe9bKfGl6yZw8XWo7v483xgUOAUSteJww3ZDHgNISk/9gvbH+gVz8iHSMSNDshzCRZdoBzVOw2c0vvSAJKreN9IOlZKibTDJpBohnpE1zTYzDMqAZk6F5Cj4jOvG0FrqI7n35iemGPIbSPn+gK6ghOm8UPcRDqtA+8MI4PqwyAZmQe6J5Bi7BMG1DUpBaKU8bBw+CbT5Jb1mDjbj8AQhibWkdD8QVTJNVkCbk7phtZ7uiX8hLhZIB5brLPlES89l4J890jx0smh4ywMKbaraPpA0nWCzDtxFuTz7h5vnUXSwse1oUVtqXmabmEBdFpEKSqxXr9GmSiYBxuJZwd2bcTCHGrdFrbcOFUisr8XA/xN0ZQfRA0L6U8zM2JP02/lW3eTyPFCdABOtDM0JkEIstBjUvggXeWscFZRSTnX2nXGikj0LNYQdBVq8S1pRintTyhvwr/6v04M8E0K7/1ijkuh3lx+J9mTl1UvsyohGT5fMKzRbpN3SHp+4R5+KdsYC9soxIviBEeL4zPPCwmstfsbXkZWrE0kLIdpLctk/1HG97r+WMJ+9ZlM87Y77H12iLLA8VBAJjbrCrOIuWZvyiEvaY31SBF+BdQFISUJwgQEyNuT05PN1LoTSATOiEh16aHio9mCp30Of3BwKMwoWERZIjjQBMyI2pnDAaMqYCA+RM7feyYDndCVu0aixAjtD4SvRfCqfaN32hgqSkAl1NKnJYRbpm4KZ/QXnC0i1Fe/oAirSMFNS0QcjfqiXSuYSDrR2COIsIvWS0Axn/hi2jJwRyHzK5Rw4O4N1aeyh9Vg9saLT/ON+il5GCmjagCbc8NA5b4aDRzTkhs1NOqFaSidiV2IiOG4j4rhx9k4aklxuwEZVqK7cnpwOp2oErFGWJKrl4uKK4KMohUQBzHT00DBO+Iywzp31gpLT6ol6r5zv90xk9waVcBQO4tBvjnsGw0uGK6bG5QCCQp9z9fyxOvprPXw6VlUUzId//Ykv6zUUgUtXsoWGY0EgYRidvKMKEWTrjUBf3c978/v92UKk8hvE2+u0Xqx8gua0ro4UcRHesMR31PSmhtaXTSFsemHDA7N3bggBhGZ1IHHlgMp1Oo1V8U4V/NKoHCA6dpt5oO7a7M2KSgCHv+AeVwjmnf5T+Lio+IvWlzxsUBTLaoGWydXYXwIZ5Yw5V6f+pEF9U5ed1qj1HmEaiLoRQVUa+dkhZpXXpJOxSfyjpMHuDKQSBCNL26RyIZ5IJA+q9lgAXuGUqPy/5IR+PpmWOGfsyqFNmdp+Qz+nCH4pKq+2aw/DujBu7//6B/VzyXHiL7/f7+/S2h0XFS6mhspy1Vud6CUz4Su19h6o75mb01TdAfJm21BQEze7hTw8VBPKWNNP0atfzw7/wkxrf2ok9nqEviQTe+1epBhWAz2fmLb2GQL6lZqlpBEDcU8ftjvFwIWtMXH89/oHyEjsCLc0oZ2klvPXwRxZy3AGvgXS9hvCaOp+WBhJLqh6lynddwF3pin70TsK+zOE8sLMeIr99AIyo9yoHjowN2itjRVW6eilQ2vEe7TV2DmQWIY4P2JPAimJyXbA60Is1RP0uR0Hoy3R1i0Bk23UbNniNXBJm5CjEJY75fw1/nBjIG9X1lcuSuJn0xG4otEyZHgCU0puoL2ILDvqyufrfuduHCMDMOJU9Yv98TnTm+OuDqWs9uUtGNHf3iEbspP5JY2+E+bRzFhCDUFG3W44CrCkDTlYmCULx7eepjx+Re5kZtfzDRvCD0PCzOtVus2QIrqXzOfvbaqgfNML9fFUy4qptAtsUAIEJ6gKG8528r674fvQjzUOKUIe8XpXMO/Rmjq86LZ9CAAQmKEvXi4olf9Sara6bi6HCwiMxwDP74E4Ud5H9ADakKV1/uTI3jE6YED+7n+OfXniof14cNgLMpTTjUNi1yYv2SuEjseBswdly2hfLrT0ZGe5OYd4BXgHSvA/5tbfvuphF0caH7w5X3BPPNpwTYwVyRviqpxbTrgGtAMdpVg97krt8ByViKL5gCA/jfLs7CoH8KYH4JM5DCvPW07NiiSb0PyBovvzryWeC5ZZSV+iRhN/iC1FSK3cExJGUZcDZJiYsZYkJ+SSMpa6Yxm5gRDt5/mIF4nRohAJYzDpLT+ifjzShY7RMUNVIu0jKIF4sF6R4NaoaBcJmQSOBTB27k4aX0t9KUJrQMXq0PHzJNlZ6bELRZEpnJ0W5h+fAu4uCRSZOVBmHTq1OcVJXEysT9qMko6e/YdSk0Oz8bE5PoSpPJ0NcHblsUltwaqPVl0/YUC/a+vxZaHycUV7OILpiO5P2Eog8sQ6GBQDS71w3udpt1K4DE3ZqWujWaKdYdDHBZO16fXC8oLN3vLeXnThhPzAiu0IcmcXxiOMKnEaAK7C5Le2gDagYLfeoE/RT7EXUzQ8wgkMFcpNBj/C7qgOXyGtTAyUA4iixYt+DQO6OTKO1dJoowHc9FP1oF4FYMHTyESAx7HHnumYMUjTwKLtgIE6yavT0OORXK13RfmrDwIbe5dgW03gUCTzmcQEZcZVdozbh7kzQP6dH6Q2Y2XxMue6LiosYtiak0z1m2KA8PTdugxDL4YqAUHk8zooAgMeL5dSMRq6YpZLlUniqZ5l3L79jkxm26SYO+vxR63YNYGpCSghnqGTJO/HZkvAJtZSrblVGHPRRjJkbN6+l+nypwfxABi3bCyPcR4n1OsthgxC2F9lsw1kPF9qcj1WffJzfmB/wC1OfL6BbFgU3hxw3osf/axQ1Q/oU3yCL2DSDIsSDV1n5jz4S2ltg0Z6rIIhhOf2ahudPiUPT2PWCLwSc1PNbgixi82y0AIDRPLI44OOeQMCp7KzSvuhE5dERYUJtDsMwSBMyizydW20TSn07erVfnyfwZTsZXLIFM08pbCiE2kLOlDOEf5qGElzVETkOV3SOjRiHTOjcwxP0adRir2ZGPq7YZbKmASZUBCQlt369E2wEgj+r3XKCGWnEDF12yOuDW7/gYxnFEE6Dy2tXfx5DceAUBtecANdsjPhO9hNm2ZoVLUL0Wy5ZlscGnAZcXVQ+gh9T5WObGMUQwDSpR6kn5/LMsFi3J4JrRmwu8Ihf+1H9ZIaQfc/rFlU3VsNtrPx8ORAILNGQzP3u8r/++//793/8uelza5dFANOkXqJFXfjrgaw1NmnWmPmYy42YM0FvTPNPUwMRkVhUqz632rPiLL/u1MScH6j2fTGNnppOckdt3bKCkMo80HTSFDnzAHc9u52oFtAL4l70Y70F8W3kC8wtixF0WazEiacm4/kzn6AfpCgkxKR7K4J5H9xJa7WtlAeNw1ir7wdCaVIE/Xzn8NKT8J/jBuiBrOOgL9ih3J4h8kuR/FvMqfX5A0E7ZFfR2qqKfds6uG51VwqF+wD/38OFAEv3qnlIk6lE/g0krJV8j5YxNfFIbDvbyXhjeDc3mB/safzK9HoYCvdlezBRQ8yJ6ZPcwYD+TGe+a+g2q6wop4RUmzvdFPBubt1kCwQ5oxcTNUr7MJ0WIOzgLmudcGs0vEdo/SeDl7mfs9WUuCuhRGh7wOFxKN+SybxDgiTV4/JLcN7XdCXX1glfPzJEcdc/IITSEhtKS6o6ehiuuGlwD93ThMkWoA29rUZI/NzKtUI6ddIBRsSIUe1KPcuQNi3QZq7RbP4veDK53lYFJaZ9LdfiHpnmxkg9Hy4/KjjGoqfGgPZP5ocQSm9MdXQvYRyQk3dEy7WImIryDazynuCG/c4zacr7pzYLQ0gSfrpmv0PSGnCdh18zbeHKWXSQgVVeE/h1mH0nWcABwbFfZSUbvZjjknJzr7FMBLAFiFMooD3hYRMaCKiKIoIihtzQs+Hv7Og3VlooKk7y9otQwtWRrz/7OXy3szpEAGAcvkcdyQEm7HYlm5jPj85048Ku4HDF5Vld4WvM60gfUX29KZZUJnd0u0R/+OctbWa7k6fbllLzjzQ9doMu2RXgMZViIKL6csXPcY+9WIfc0owKFB877fzcmzaXnV3YNXfZYdk79G6bNGaRlyve/J1DKa9xZ4OSQPS70tELJ3wpXdZL0kIWAJW8dNOr2APw6nc4u+Dld0qb2W5zmjJDKrShA3qTAFvgytccvfKlsY7N1+EZ1fu1TlSALmLuO+bN37h5Q/M7sDxkWY5GjXPbhU5uHNrwL4wbb6gf525qrQNgkIgbZnzlWENpX57Orz0KnkEb6oj0mcGUmLjwWD3YCk3oFH+VVyEUON80e/ZzYMQetiyHKM+ldS0n1//e1p/Jr+E4THaIR86TuDVaLSiRJlWbdQAdRFIhEx8z7VqksDe3FXHAhfGuJm60o62117O6SE4APKdqs/SEz5+Nj4dCvlTWql+RJlSbL2/pK2DsCMDn1HfcWxIYZyNt6GTE5urItaXjbxr9xUUOXtQUro4QD+m4p7iOrkQaUVf8iSWO+f/jt/JFDXEVuoGRiKfkxi5LG5F60/YXQ0iAxJtjTl3ULHLJh8SmaJodSvtmQefuOJYD8Ahc1eNpeIRcJPfsL4Vms14JXB9MNb3GVeDcGal3Z4J3HrBqNCpyY8mGd5ERO2ll0aOCZ61kl8IscjrMn3HUq3UAGNEp4mTzEMM3WVWd9CpWUSBsFxn6a3gjrjstev42Vth0ijjZAm7cDM+irOrQS0vKfHxCcTZLf83UhuW6Z+MwJuziNm7cZDSLlva1dkn3PcKkQTeBl8Ten0uZYU8KjuYFnOWTsgWI0CHWSj3Ng3AWHHG7NyzwJ4l4woV0XnfwAJAwcdy3bneHCURf/jU30nldAWFChzMybEMKv2n2fGI6MxDjcMTjZTG02JPSy2zTHAsApAl93ljR7Eoc80axf+xAXouP6VNpOoV3ygXSDRoGpThkSBuqJkPVzXahtE/e6GyTJF4WuD64JpHu7ErUIDoU2B4CnzvXJ01cOYvljbbFNocJLvElO75AYG7u6H9wiYXqM9T1wWDAE8qvMHSsI8ixwwCE7GJghmqN21AFqRE2nHG7Q7qADORH3e6MzfigkpbD+kfSiPmQjPL5s5Cvp/DNL1rvSecBaeQ9n0lhAQdyv/vlP+k5m/oHYGi7B3yD68cSHSDhpQOWLQp5YplsC+7OSCQNs9T5DXdB2gaubbg+CNgecrzin5G5LUJOceU7j6Ji/ODpk1R2JWbLJ2E2QawWysM5KlJ9bG4vC94alRKhT56WqofOd34Jn/udV9RWvCQuT0OA1bOMsKFXfN2vN4PTY9vDglfOfvdr+J03eiQQCGT/B3e64jD/qULx/hV1g0I0phI+G6L4UFEPEQfCrdGyqq6mPMOvZ0Wue0UCKgcDMJAXfLjCR7AX1NYRLU0a7eFOwafDUp5snlFnck6ktfj3lcKEVsQASRNW6so37WBgnUuuxNiZhJ42jzP8unE14sMhK2wbC7ClEmf5RWII2IRcxhVDZ0aYcFpMs70DPqp4s6WnLBoVRBJNmSdiTp4ELC47a+hMKNDLcQVfiJ8+EIw48Ybj0sU1jgWIJjyRGMZc2ScWG9vGgD91YylWOFWZmw4WIO7at9KruiampibS37LYs5crIiMnM6n5bYshYMN5Q2fifPO8L2zomFxBPB0vxI0GUAqXb7Dq4GIoK8gPFXuchpIJL9vx+9hmwG+1Jz+ZOH13kl0Cmy3NgvLjU1sa3174FBnRrLiEbTi32pPxdCcl75mGTNLSG0/Rshe7k2Z//8//8i//9p9fss+Ga1l8lP2oUEc4Nw4WgNok3s41iUMdd2egZ7Lritv9icMoXm9WEQ4Ram/K7qTC9/7mREyQzW93bJIW5I5coTvvQzFj4IRXEhh2Ml5HGJGufrtm6Ih0vFcSGHY0LpLBbDoyVOxCK3RDhSuOCLxYhjak24qDVL+CK/Z2Lw4a1FQXIovM0e0PM0wsguKwFZ8LYZjKX36do6waAcG9iSu2di0OWlwf9DcZETvZQCb07Zii/e2GqY2xvLlAGD4WNHdxxBGHl/D/AXAjtTwgfUoOAAAAAElFTkSuQmCC;clipPath=inset(6.52% 37% 42.64% 11.33%);fontSize=28;" parent="0lQ9qycPSiAqUX2RLHM0-4" vertex="1">
                    <mxGeometry x="33.49953076637405" y="80.00000000000006" width="107.16320249999998" height="105.0837225" as="geometry"/>
                </mxCell>
                <mxCell id="QHiWN74UKcmjQzo4_cdy-2" value="" style="shape=image;verticalLabelPosition=bottom;labelBackgroundColor=default;verticalAlign=top;aspect=fixed;imageAspect=0;image=data:image/png,iVBORw0KGgoAAAANSUhEUgAAAkIAAADICAMAAAAzzX6lAAAAAXNSR0IB2cksfwAAAAlwSFlzAAALEwAACxMBAJqcGAAAAwBQTFRFAAAA////////////////////////////////////////////////////////////////////////////////////////////////////////////////////////////////////////////////////////////////////////////////////////////////////////////////////////////////////////////////////////////////////////////////////////////////////////////////////////////////////////////////////////////////////////////////////////////////////////////////////////////////////////////////////////////////////////////////////////////////////////////////////////////////////////////////////////////////////////////////////////////////////////////////////////////////////////////////////////////////////////////////////////////////////////////////////////////////////////////////////////////////////////////////////////////////////////////////////////////////////////////////////////////////////////////////////////////////////////////////////////////////////////////////////////////////////////////////////////////////////////////////////////////////////////////////////////////Bz0LCAAAAQB0Uk5TABQhDwSAz14Znf94JH4pAgoNDAWfCCc0LxKjGnehkjavJanjTbaMNyi365tFLtP4UgMJBjDc/USttXoHJgtQ5ZXUYfbDaRZ8i2wsMoHsZQEgbr3i2Vo97/rWQP7SdEGY8OcqhdXulz8QRrCEhvSUVxH3zYpDI8iqu2KHFQ5qG9HdGDqy5i17VN/gQu2QubFoqPlggm1JpPHejx20Wb/1W1/8ynC4iMzoPkxvxsHYumbFnDXzkeSrOHXbx85z6tceTulProOmIvs7Vdp58qUroLyaE8RyiXYzZ8sxyUgXk1hWR6ddwmNkrDxK0KLA4UscUx+Wf41RfZ6+OY6zXJlxa2JWs0YAAD0+SURBVHic7Z15QExdH8cnJTnSqk2PpUKbSttYkp5E1gzVo8mEpMgSFSWvQVGUVMbWRkzaaBGJJ6kkNUmS7HnisS8h2dfHe869M9NU0zJE0v3+MXPvuWf5nXM/99xz7jnnXhKJECFChAgRIkSIECFChAgRIkSIECFChNpdQl26CIu0txGEOrK6iop2E2tvIwh1ZHUHoId4extBqCMLItRTor2NINSRRSBE6DtFIETo2yUpJS0j24tAiNA3S05eQVGpN4EQoW+W8h99+vbrTyBE6JuloqomOmAggRChbxaBEKHvFAehQertbQmhDioNTS0MIe3B7W0JoQ4qHV09DCHVIe1tybdIX87AULK9jejsMjImd2CEhg4bPkJDrr2t6HwyEVNUGGmKbwuNMgNqf5p3VIRGW5DHjLVsbys6n4SGjhs/YaIUtj1pshXA1DERmgKAlqYGpb3N6HSaOs3axlb1L2x7el+7Do4Q1X6GTHub0ekkPk4X0BxmYtuzZjt2cITAnAkj29uMziZ9p7n2gOb8B7bzGyDkMm9+e5vR2eS6YKEZoJktwnYIhAgJKhHhWYuN3QBwWyKHHqhwEeq/tL0tE1wU95nQcg/PZcul2tuUziQDrxHeZMTMCnEDEg9CPivb2zLBRRFfhNnu8L9V7W1KZxJdfYUHVu7eq9eQeBBa26O9LRNclInLMNt9Z/u1tymdSfR163Fm/BcGkHgQMt/Q3pYJLv2NwzDbA7UJhH6iuAhRgzaZdHCEREZ4Yrar9Z5KLKT8eeIiBILR6sMOjZDs5iDMdpeQftLtbUsnEoZQ6P+WGQO7sKkdHCHDLW6Y7Ywg7a06RD30s4QhtG3GUG9gt92LRNqxMxxHKCIyqsONeBtGsytUhk33USbtbU2nUQOEdu2Owc+Cm88e5fa2TVBxEQJAc2uHuwA6rDCEZnqJdTfDENrrjXfxATN239T2tk1Q8SAURyD00wQRYrqtlBaJt8UQGp3gEWOVaAFPgm7XjvZiBkmZgQRC7SDhpOgY4/0kiJDjARUMoaDklDnwJKQO0mhv2wSUoV8agVA7SOxgus2hwwihjCPTMYRUx6UhhDKPGrW3bQLK/dgYAqF2UNTfCVmLJiKEGMfHKUpBhJZs1UQIJWoqtLdtAspy6HECoXYQB6Fx2QB4n/CrQygn7XATQSiGpjJy+j/VylYJR4hGZpIJhH6m2AhJ6gwCIDcyrw6h8Ox1TQQxmHhyl7rQT7WyVcIRoobnZxAI/UyxESLJHAAgsFcXhNCpP5bspgGG2owmgrgP6VtwetJPtbJVwhFyMQ+xBcBzsphhe9vTWcRBiLRSj2xTWIQQWudktD1RD2Q0tZ7Vclq6Y/r+n2lk6yR2KpYVQ1YbeNoHtuQKipXa257OIi5CZ0os2AhNMjVQ6Gvc8RDSOJubk12qtnDvOQBYuSPK2tueziIuQkZzg/yHiSOEjERISsX97dyWCvMP8qsiVHa6RC3NPH32kPPomcTs6cSd7OeIi5CweoJLufwUB72+AWiQe1lgzOo8/kF+YYSMd16Yu3oHQig45ExFexvUScRFSFLsIjk1YJ8aa7wK6rCfTrW4pMI/yC+MkOi4AFchdYQQ2eO0E7Gq9aeoy2Ld1A3Y66gqChyDBl92I28QRkW/LdfiRBMIRUXm/qoIeV7JIxkonMeeLkZeJRD6KRp5wdghrAhtuR9S87+2E4B9mPuV63oX/lI05RekqNDml0Socklg8kFlLkLaswiEforKCsxu/FOFtlxv+gYv2c1B6FZ/QPUt5DvS+qsiNGO31fDprlyE+t8iEPoOSYy+MkCsVVM/y/r731iAvU5F5kRyRogzB6F/CwAI9+Y70vqrIjQrJTi6WJiLUOguAqHv0O071xeV8U79pMgJV8jI8vFZh5DUX9GM1ERehFhZfEdaf3GEDL2uJKB5c9F3O9D7zkSU1Edt+qWmiZ7xzuh1mHeUSF+5crq8Kx+fdQjJ7dhCLvXgRQiY8X1nZ1Gh2q+J0D0MIRJp6v1MJhn4TOlACJmq3wlPHtDeVvAKIjT8Fp3HQWrAkbTF/MZN6xAyPHaIxiLXQ2jOP/xe1TMyzupXRMhkf4IjjpBU3oKDFyxExxEIfYcgQrvDeCsdmQflpWn8XtZRh5B+3mWsDcGDkNV2fpNfJa5b/BiERFb5VXz7aa+6b2Px0IndhxQ/UJq6uAMhJPNoRQdAKCZ2T2OPkjqhHIRIpBPkBgiVai/nE3mAMfghCEm6btpf/O1rd5wmA3Cezp7HBBEqGSTzC05qakL02ws7KkJCj61zuAiN1WK1J0LuszSfVH/7PCSE0CERdi8MIuTy9EDHWUAg9GD3r4fQmGnuPA5NITR9WYkbF6G9qR5chAacg5sZfW7ziRwi5BF4q81tJinvegaSv/2FCgihC5wdob8cGTbRS9cIFoWrnzC/XmvTMjj8+LkEbH6J0GuqBF2DLSJdvHEjpxO2avvFH4mQ3BodxRoDgYIsTXDz7CrGU49DhDzW7m3gS1+WEpZNBcdnsC/9F/dKuQglzYObMQt3STduUECEADgokD0tS66iyigss80QIs13AR5q83Y06Vuf7ipUO7WKImIix6m5KLIKo5KqBErTclz/hfdVYAWqs3SHk6ShiWzrH0VJCgdsPp6cxN6DCGV4jhIo7VaIYihnglkktOOPHrcFe5ny6Ag9F58knmoIIkSOmdnAV8VUWYSQ9VQ2n/MP5XARUoxHk0hLei1t/CTghyA06ezNyJdWbYoQmREU36RvpV3XXh0XvWmoXDbJj/30Q67odYn9G4HSVJ5tXzL3KolUPDdr4HZhCR2v1k+3FVaffD2jlNMegAgx3dr8rWCyGlfLMItGxh9POeElUNjV4UyW7QT5OgeIEAAj6vkRnrLs7SqEUIgru7rqN34OyPDeiG13+duRBcilqX3QjA+DqOnz8RlcJko18hvVIEJnq7772a/cyEuvunGaz7cLzHWfeHwbQtJite6GjRGCl8C7poKIaJx770kFYw7vnav9mJ2m0B5rAEY39vvm1Vt+75BVnvX8g/rOIP+P6iTSqC3A9rXOq4+rW/9p9jW7koMBjVPxQITgxWvaxs/TXd++m4tZpLhFzbmnfEveeUQx6IFW8dzkeQ5E336vAULSxxyAs87MXBYYyLl0As6qgTmRx7BtpW622GsyIk6NrNK3HHrk5TV9A1M5Sctjuw7cDIbugxTE5CWi3OX0W5triqyBVP3vY/jtmgOs8WltFPf7olhyjREyEbZ0be7aFhGWGLpr9CM/ysTTvAhN92fC6O7INdGxl5kViJLTXd3Hnvp2ImqY5Gks6OPLF6HegPmmwWCRpKG0yq4LR7fdfYgQMrScYA0ye78QTfzkxOsHpS0r41qvDSJVVYU/a1O5FAMAbZ+izkjYjBCpPRsLwNs1bYyQ8g1gjw1zKsQlQoREpKOilFr3xhMRp81oFc8hnjefKkXaNkDo0exE4LuxF4NWh5DyxiwuQvpD07RQIVNtQrfTvSb4u5yjO02Sl5o0WTQxGJ2cQSenxaX87+RI6dZ2nGX9yozy6o38K8x14SBkOKS3FpU/QrWDVw+Qb6Zohf4Z8yzTbPZt/avLeBE67I3ewb5eg+9cAxKp5jOqSoHtK1V71pIZ8J5evNnH3oXRFEJb3es7GdQ8Ksi0C0/bFo0QqgkrsAGsi5dSLUR5BhUN1qBy9Vs3oN6X3QKmTSvGNjCEQKJvyfC9MBOzqiMAWFbWxk+yGiC0av74+NZMxKNU5MlvVIXW2Q1/Xuda8RKa+G7BgrqJiEsdYkDm2TjokYuQlEI2i4MQyevBkgTsUWPi+sEP7jBA8snXX/6YersgGF/rd72/db6j7vDJ81Fbqd/YsTqwbamhoCEGL3uTY2HLep6pVPHKUzIkSX7+3+LHKFWh0ZHzHrBnIEXdHnBVaOrohW4g2Qj6kal99MUesgwVq4HubMITVQKKJdDV6Tegq+qYJUMaFa1p0YJ1XbCtmj02aFh++5vL6bwIVaahdl3KqcZtSH2NRzNqNFZmouRKTq+wZ/WCjW6nA9eDMQsmPzo1+v6ZSvx9n8fGjp0o674CkA/U1o+j5t+jaKHUxcvDEUJX04IgDiV9zJhzuk4ZO3bsEPTC2arn2kf+frEv8mj0Azoy/99Bg9ZBnt+kp28LQPUSjhAATPtLEKwTorAn81qHL0IqY8fire6pt6fsPalex4C7l1e/pYt77NevUhws3yVgUhc5SfEdZ4ykKaSpYWMXCI8dNHtOHUIRXxQDxh2/eLmJqahswWtVll4z4OC+zWg1TIzDX3WHKr7Aijuhe/fn7pZ5NVjPNcyNDFwe6vIiRKr1Kc1ErUMkgzW3u+O0mB1ZmEUGWZt9gy8OmLCW/fIYwMpAD5ESZkaZuFr+nZ19wujYrplz/15aKbFGbPtTVs6nrvu2751eWyUx3CPmT3iZG5b1CZzTez6ss+T8xG8dKuwxeEqvVAaw/fuRmOmHlePt9fBYc7sdy6OY6FyatuF12CSKgcZfd1ItaDeu6AvXBnihJRkUfXpVlZSkidPn7vGnIPRiIx9t94fhPsVrm3vQ7F5zMzxRNQhWlqnjndBZoRhaFhXR5aLyLEUsvRQPbD7yzwccIZvuab7M6D3wvjc7Bzfg02bVMenrey6dPn2qpDTM11j5SQMB+Sy3HSFiIiIpaRKwDfMs+u6eP0RoE/Zar+C1pUBP1Ds7O7taGWYTVYq+R3PDAZgnbyAnLHYHgD+clJVhEyP9SrGOvFIZGyFy5lsSacYXdGUuWa54uMxV2Y8uIusqr6jBnvstezI7+5WwcK2Rxt5e3k+3zFWUFa4tEkNX2uHt21+pxthelk2aqb311N5xn1XkRlV/Wq0iJTHWM/v1SGx5eOAZ9QBD0rFkF//16jOG5attUZGkH55e3K9SsbJBzYoJllZFv7HH7ezy0XumWC5hdYeE+pjBm1JMzOXlS2dux9bHbIfXHNmCWg+hNX1sIsLYNQVFtvIIXqpMNw9IS75PDrm0T6gLi40QwGqNiEPya5JeHKVSn/iU5IeXhosuuXnt2NzrgOxR6uioO+jfW0siaIzde2EV9Vgz0S7lBbw+a/e8tk7MuFH9LIZFA6zw+FkTD/lmsGh4pDHmw/82jHpgnhjuEnLXUHyujRs8kjtXv7hHweIFKIsyh2/dUpGrGfspJnAu7GmMvhnZF3145tORtDk0csoUbobFl3nCU8TK2Y+ueFmxF4vmqtfu+3uj67+LCyPcMueewRHSm5NTSlPbBlvzR11wAzzcLBgMizlmWlobDCadp1KHj1t9gxchV2VXQ4MoBRyh4JLEGC5CZCoN0KgMKpV6YxJs7oyCzFjke8B8DRsgVrtuJWwua489ePAcAKXGIQtn357ORggwI0mkwdXotnvnVYFn4aMH3frRhZJmx13gtPInUKlHi4vPxl1Ij2EwSs1eVDzqsW00eqD0Nyzi6wyI0B8JpVsWLc71ObhqXIxHr/1F3R2h4YOvY/lxdh5mSVpuR86xXrfjnh1EyKSfp1bmk/Lo97P4IFTxofbNeNQGoKLWCo3af487u/E08Y8nuMHmcU89006/mfVYoicHhbWvuEsdLOe+9znFedqlrxgJeOTh7wGYEZlUGq8j0BpzYlu0Juzlh2vpoeGRcFvb45+eaOEHM5xD0krcADPo6MyZR9IyPRiJX7aenPqoe0IOg+YSyMA9md956+nBjY/pZpPcfUs6rOFgqBMT1mPJOQ5csG9LZvLlWQGrTEaOSEnpMfj2TjNgMZtE2lTt4JCNXmUT+2mtI2AWnOGWBf3w7CAYlvFuo7KhkvqGUF3zbkkXPR+OLTC38QClRyfgCJEZDBawUJ1+KzI7hjdbVHihFG7UzoVV8JPjWoBcze58Gzhtutt1Rr/4xf0xb4wMPaZdyNtt9cICYLUwcrTfXytQ9KhMvDd/PB+dng9vdcePH4ftCaZFvr9xSO/17AIAF7y6amahnQSfzFKb4cnR8XdnDivJd7h0cJTJPyPiu8NbytODe8/n+wZjFs+9tWj3dVUFS8W7nyCOVmTH68s+GZMdBhZo5W6Ogr3SlNPdnkKPF6eYYzl0szA79+omA56/9aH2bm5ZF8ZXw5LK0Eq0usvnYaj462nnHXCzyI7BjmT/9f/OOIbpUkJGXQ6Dk3u97LPhIZsM34+zuC1i+sY/Zupwlv5Iip/2IIMWZKGW5kC2YDR1WA/BQbMwc3BIxPbth5/bN9m8tJ6f4OTgRkHwUJ6aqfj2M+2FujQ775evPg9dqQlL52WkPXSNPnash24M1QIZmZmaCAmfvYmnNGY+QfVsxM69s4Z0vQ6vqyVnLUB+uRaWhsP5zVZ1STr0DX1ixQINlL3Fn8repD25jBXj/DcbIlekRm4ryS6ps/fZmIvUhmG14u4usubsqHlmxjT0ADnz5xTu8Gu+7FBzsOszOLu/dwwZlF5M2fLinW0iusWn9lpykRPw/ZbjLhaBG0afHW6DOzDyn+XT7CIc3LR23y+Et673d1B8thfUuGlF2GNpWeQwADM40YqJu358DLN0tT5Hk1hUJruS8PBM8fSgxfge98Fkz8sCjcxkMlnseNQ+9uNpw+mLiHD3KNLXMvUaZ72ByOF8iqehaGQyjZM0lUVreJDGJwhvKEBjwnzBsKzM2Ouw5QM30AEzH5+1juxs0GjQhXWWd6Ludm/kiWaXmhL7TA9uBqWSuWnRmLxW0FhMPjaQmXVuZDWsGB2CGSwmrdSRzOsdmtnYdDdj48TmM0jjOuZz2pc0biFhMZLJTAYTd/PQCuJeZ2RkLI1lFehB40YFHfTsWDQyuv3QcMP1guvA5qRF45QUJt90mKUVPI8hoIxgxeZ89CjqSGktPngpWo0Z45KPqZTm8f41rJF5xXBOv27hUn6yyblyIkX7X5w9f/5o/y+H0lgg3DkbVsKA5e/T9/SIHq+SIV16WqUMgFjMWXsvkzdqav7Ahel6GWb2joBWMvCLNbxcHP1ZoFSUzWRpScG5LV+WvQ6BoRjQyXzZafwFZQ7Ra134FDculgXZw87Ow6IkUQ8v1/x8R+xG55KVgBrD5j0f8fZYJ01YsfMeavZb2VmQ8yNYFhk0RrOXRMzawvjJ2nfO37mHP2DQM7746aExfswDK8ZwDDwmu8LyeH+0oBy9ptgqTVv7KSrcUjUGcDnX5+jRWLMMNz1yeTpmNO7bof/5OwVxdacgo6Rg8xZsSy+cGWNcvWz2Mw9mDBPwBMFKauDw4XFaZEYMquktSspTOLUlrH0dzXiqTjJWFHaZpSzuvkVOjhvT5YY1utOXOj80Y/v0yIrbYv3UgeYWDLPkXP/9LUU+mr3evnjx1traWnWwuM6DC9Zc+YTuO3Z2p7V18g1sd0z22vQVr050Xa+6YWqzz+S9duzYuHTT4DBN64fxb/vCkHHaY4sDxIskzq4vt47uXbgQi6769H/stEJCQwdaWw/vNXrXPtWH7xZtsS4/cnD56pfQy5GB1g97/hnt4H3R+0n0tqUnR21S+PC1u7V1/wJr62UKE8Ow4ItGx6+Ie/gpBI+sPC4t5cmYuHJ2Htaf04S/oe+2vXw48Ib3+hBu5lQ3XzkUUm49XkKIdwGrtMaL/Sc4XvrcRGE/9cdDlcf137IwzkczzZpX/bsOmeQ0dNSOUZdWeB+P87GOPnLp85mPMGIfTR9rrkWcrZDykP/+vTWtV/p76533h/5z4hx0PDov2nrLm8cvXly5AEOkHTgLk1zBtvP0rR2jlq5cMYaT2tFltz7csmbHvbDvgKvLP94TXXFcFOZz50CuTcM+7u3WbWVvTgl83D4zDv4Pxz2c+zM07d5an/4c84YfvTMvUrUu8PrevfvH3Tk7dhg0+uHlM19CrFN8PqVZf9p8cNTBCXPxQA/rrxuX+qCIntL4JSUl9TMl6UtLJHH1aJKYrLJiUtKurTPQ7qntPTauMRQW/3BYvFVPK92LkxRqhbrAkOtU8EGzmqvTk47peJVhsevUuDvh6VytrZ0IU5c3IZnUVFa6ByRN16igyIgnJdWa9ku6WiG27uzdF91OsEc/DddUJiU5QSthf0cZCx4l5aRe6e51lW10Zb8dM0dNms7OQ5mQAvzNI5GUvHT2dqtV4GYOZgKZI9HYbkuOlwCVYvirIIGHelTpJ7vGaJ3RsSReHV7FHm2xnPV1j9G6pA/idNhJhRF/0PnA9lJspM7emn61+J8oORHl+f/OStIRIUlhEVcWqScpoC6gQc0j6CUKFpiRFzsRrH8lsnwUJ7WJVZIkoaSkY4rrkvAC06ev7OE15T+Yz4qrXJsUplJg8yKAvadeZFmD8qGBF7v8Kif1/VfW+QWwk5CQ1icZSKhzA6vr6PQrrrSEZQojqqVMVZi/4wM055gXHRuzwvwco9crMH13OnriY6KkpOSqT6KIyCjViW5CkaMrKSnXVKC9qqlefnKSIqburlKteqYu664kbGAoBUO6m+LTIeSEYSLSUtJY5NJysuy0hA0MoJOrqSRJUo5Ol4XbMoYkfRjQQN9VSdjQxN1rjd+aLuwP9Ugii2RgSFMYHxZcTl/GlS4rJYxH5k53XVVUJczJgowh2oRnSFZKumaNAdddCWYCmcNnkq4hx4u0qTuyTgYP5U43gWnD6JV4JcwZfzGpqF1Dd1dylxLB8+lOd1fiWsT17b7KQJJioiRWoSRNIeljEdOlYCZR50RfDoUwkMKdMGF4UoSquBaZYOa5YnGjAqOIRHlJ5XWBRwzrsiaMgKRIczNqiEUsg5e2qaGMq2WRu4k0OwkZEWiITF2mXKWlXd3phpgTjAiauModmuOK8qUvx/ZDvOKdECFChAgRIkSIECFChAgRIkSIECFChAgRIkSo40lErsHaIkKEBJNQmcLU1o0VEyLEV0OPVK+cSgw3CyDDqL9O91Bsbyt+IR3IYc2rJL6VIIBM1VUZiXze8tJpNYIJCIQEEkSIxrzf3lb8aFEOPx/cyo9BjQMEQoIJIgTAPkFfh9TBRDE5Uf2ylS+iIBASVBhCb6N+7y6IrFA0Y05x6/wSCAkqDKHxAb8xQqYaZwsf+gOr6a3zTiAkqH5/hJSSytFqJwKhHyUCoQYiEBJUBEINRCAkqAiEGohASFBhCL0s/o0HFgmEfrAwhFRHdZxPAwgsAqEfLAyhhbd+Y4SEBr8nEPqRwhBav+c3RsjvxUUCoR+p3x+hLidECYR+pH5/hLw2OBAI/Ui57o8mEOIVgZCgWnX/KYEQrwiEBFXV9nQCIV4RCAmqqmnJBEK8gghpqxMICSAMoZD7BEIcQYTu/NP6z4ARwhHyHPEbL1lgI+Syv4mP+DQQROjTLqkfbFOHlfrMmf0aumEIOS/6/RGy+9yab1xS5LoCkHa/dbR1GnklPVfBX15638FhgnCDAVUMIdv43x+h8O2t+RCkiNggAqFGmpnN2IB/CKAHmTy7YWej8yA0rTUIGZbNIxBqpD90QU/8LdxnAbgwiUCoOZlc7U4g1EgEQj8AIYqkoexv3IttIAKhH4CQ0rFXV/bLtoF1HUIEQhhCpeN0WuEZQ+h9GJ9vJ9RX1C7vtB6d5ukRRGhbALbVqRFyuzm/Zb84QuknWlzdWxRmVfLaoCVfv4sgQoPwx0FNIpS17Deuk9kIxWgPboVnDKHcQa4t+et0CFXjnwdvEqE5F35/hCze3W6FZwwh3yX8PnZcT50Loa6+QPUNttUkQm6qbTyuqG9g8MuMVP4QhLxWdyaEXlu1iBAY3sYnXElBYWrbxvjt+iEISZwI7kQIabN+PkLq1dUr2zbGb5fgCD270OK7iNTjHTsRQu/Az0doKUypbWP8drER8thyshWeMYRy7lS05G+5dqnNy04zns9BiCLXkw9CYn/Edg6EqDcOtsIzhhAzxbIlfxAh1sAWnx79LuIgJNIlkg9CtTdtOwlCoqtb4RlDCKS3OC8EIgR8Oh1ChgHz+CDU5XzQNyIkKe0q3dRS/A6LkJx6LwKhRuIiNOkCH4SKCtW+ESGDScWKTQXrsAgZzN9JINRIPwqhmi+aR5pqdkKEVqj8Ih0WgRCSuRVNINRIrUEozlXwmQvyziB2TRPHIELRxcICR/lDpNLVHCHE0t3eCs/0g+8JhBqpNQi9Fxe8g9pRENIYn4ohVHKiFZ4JhPipNQh5D22xG9tIHQWhyhUoh4CWMbcVnnGEPA+3NFRPIFSn3x+hwyH5ANPrVnjGEVr7T0vF0WEQkquqon93JARCAiNk/ka5BX8dBiG/HTsmfnckBEKdGaHBCQnjvjuSH4jQk6tNTDLuFAhZK3WAl5z+2xZP6CBCPuhTPxhC3Y+Z1D+KIxT73E/QaCWd7EHuxiaqoV8SoUj9ll+NLAhCKVM7wOTptkLIfASJjdC55Q0e+EGEyAxm9q4oQaOVeWTbwRD6Ytny3ExBEIqdL9Q2Fv5ItT1CA+82uIFDhDLWauWe1RA0WstTvh0JIUY4q1qi5eflOELOt1q6ohBCCTtas0q/jSXlF1VhKMCL5tsUIbn51QCUP2jwxAMi5JjuX3K6TNBo8+4GNYuQ5qYWp/79HOEIhUdYrDjWcvsXR8j2WktrztoNoamP/5qvLMB6G4iQtuT3ftuAg5DUqIImEBpjljVX4J5fSwhd3Cr2Dcb+AOEIJd4Ibz1Cz+ZWtuCv3RDaH5pafUqALxBChM5Lf++6Ww5C0qND+CMUHPcsYrORoNG2hFDsgZpvMPYHCEfIP92x9QjZjL/agr92Q+iMd0b5yhbXKNUJInR05PdOr+QiNKWcP0Jzetn7H10naLQtIeT5d943GPsDJBBCrpfSyRmMlhF6XujWbgjtDhMMoe9vlUKEIk6TmkHo2TLP4JRZgkb7eyK06s+smGyzlhFa6a3XuRBivSN1XIRcJZZ/qP2Oibk4QoGfrNb/03JRWl4IdLth0zJCUzw7GUKgmtRxERq58ua4od8xloAjZN/Lv3xPUzPkTMQ0VKSxbg6BED/VQyj9UoPofn2ENhX6vx/b4qqcpoUjlD3+WfK0pk6539JBk3WwAW0CIX6qh5Dxnw1Oxg9BaM2lNkRof7ndva/fjZDn5WfJB5o65RIvbwxbhy0/hAgFF4pahQ5tIVIcoTwhiaLvsOxb9JMQkiw+8W5KAGevHkIR8xojVLI9xSJwv6CJNIeQ0+Q2ROjN8dK2Qch8fFETD0gmDUwcMwMbrYAI5fdND08e0EKkOEJlST3HFn+7Zd8iiFDsiNaXhsndb0NIf8+nmO4LOHstIuS8K47p9kLQRPK6dTSEwtPVmxgX/VaEZvQEun98u2WYKJKSggz4Q4QCu7f+oe2qr22FUG9KMwg5nIoGYKmgiVw9PaeDIcQy/reJsocIJT/H7nI4Qhmit1oYhMcROvn6+xGq3bC4mwBPjwVEyGtEWyH0qUymrREasN4RZE3hP5b0CyKU3MMY+N9v4nUjCuU5nitr0RZEKPH1Pb3MESObrxpwhD4fahkh4cohoxSbGZG4ejx3tgBvdxIQIaeubYVQ2nT3FhCaN0PARFb7U4FNV/7jIggh0RG1gtrNX22DUNpnZzBnrDh/MNS97XK7YnMVIEL+2zT1aCveND+UiRDyfL5atWWE5F/Zrx1R1PTxR1ogWoCnXt+C0CMBmt9sNYNQ4JcGc1wwhD7RACgUMJGZejSQuUyB7zGEUFC1hKB281fbIDRwiANwfDdKiO89Y8YcVh1CQQfPDrcI3dUyQrpbL3UIhOIWtPium0ZqBiHHTw06thhCwzwER6gHjNbsdaNvemBCCPkvDOB7TGC1DULRJ9cCPd1xKnzP1vJSUIdQxOf73d0+fW4ZIdu/R3QIhO7dFXhKanMIUVMaJI8h9M6M1hkQAqCXAt9mcgOE9s7O0NzaMkK+i7u2DiHzbeJNH4cIadJb357+BoQ8rwjeKm0GIeDdYEonhtBrBwIhHoROvnKM7dF8E1cghDKPNjOVBiI05kPrZ+d1cIREVhWvk+fMgEMI+S/5wN/wDouQ30OtrJPTL9k5L2r+5iIQQomazYyXQISOD13VQiR1agGhVbVR9XLYdgil7xFrA4To6q8/buX0aRBCOb359+MQQonDW/O2+VboexHqV54DTV04VLQ1CK25p5darPjVxXZZywgFHVmkCrJ6tpC8xrbc5hAyHGzFgxDFpKU5rS0gtHz053oHEUJPenZpIdLGaowQatB9P0JTpzwLPsfJI0IoPOUkX48IofAbLQ1VtlLfi9CH5GAEz5qLrUEoKpZmrqHSOoSsfJaoAsaXFpKf+DqrOYRqD9rxIGRY1NKikOYRorwzS6034oIQ8j0k8NqKH4aQ+LRSsJ4XodLjb/h6RAgxfI8JbDhffS9Cs57B/ibQpr9OBWBnMd9FHBAhm97YaY5KALoqQku18rub8PPIFULIZcw8VQDetZD8YdXM5hDy2u5Yh5CMzviPB/OafTAOEbIqf9xUF4vSHzhu4nVACKmtEHxJtMhM7yYRSnCqXzbiw/yf3J5SyGwtQpoV7HZmSwiBnEcCG85XEKGLB75jxdZtC7SITNsATR0f9pjvxCOIkNZuzFwMIZPl+XoFzY9wtB6h4vdaVveSTCRlLKP8+Kz9rYeQ3xvj0qfTm21b/+UQw7A920QbgSK7EDgO5n18ihDyDxW8SSEbbxtz/h/OXn2E1k6v/6hSvtwloZ/CTA9aiMI6pxY6lwihi0nss/kzEbrRQ/D12lzxIvR+Ct8HtQ0QohQn0ga2IUJ6NnuVDRWX/neXz8PWeghF7Ymg2b9odhnkWBcWzf9jExW8rGs0CB/Aa/l3IGShepKzVx8h5zf1b6QBtuSLVbKPragu2Wo7+zW/ugQhlLycnV2EEDX/4wd+7b+2Rsi/QP3b33ACEbIdP/4MhlATU20gQuEOp2AF5T7fHCJEWpcINFtGKMP5XesQIjtOKDJ9M+9i9T+ND9dH6HMEsP23qXddYDrAoIHEzfw7wiS6jjXIuM+L4HcgpPd0L2evPkKZmzfReVem6RiDMUKk6dmOrAzW+nXNnyiEUCxnrXAPbJHxwG78mp1tjRDVvvlybVYQoZCAgBoMIYfFvN1nfcupXejovgwR0ksMi4I5POiLEFI3ZngvXycv2/QSPoQQI7+wdQgBixMq0lOsY2L/anwYIRR7kn1ZtwKhS2hNHC9CFNOifhPZdwahWWOA23+8zzERQonDFVuwsbEgQlTRsZw9hFDqIHk2QhkJq/N4b5Y4Quo+qOPbGoTM/1PBd34mQkBttco3h4cIHaVQKBhCNE/esXqDHROm6aBRbIgQoC2uJJH6vTZDCCm+D3ZMeNpVuOnHiwghQCtoG4SecGYQfAtCIuL7opewJ1nyR8hqd0sLKxurMUKJA6+yEQLkjzq8LR5BEcp9y76h4wj5H+L3epg2RyhxMf/x3NYIIrQC/hnO6gONyl3A07cTfhvncwpVqhhCh2AHRP2jP0IoIDqRaqe1QrHp4sAQAoIhpJf1oPFhhFBuD3l851sQktUZ9CxkI77NHyGGcRP3vWbEByFNLkIgUpEHIan5gU0jJDO1/twIhJDxa/aNFUcI3Cvi02hoU4RuOccArZt1kUmLr1OIwuo+fSmlvMrp7LcB6FcUSeSx+1tiQ188EuJUIWyEZCv/hEZFXJOva7wpXQhSe4AeuyGEwJZRFNd/ZicihMr6+0OH90lNP0qoQ+jOKp56WFKWU2KG4ocrsb4vhtAfGhAhZvC0xhEhhHw/su80/BEylDKsOw/1EaLIqNy+9onhew3fxRD6m/cpEEIIaE1vMh9NCSGkO4Gzxx8hOeFVdJj3VW9smkZIvFv9mhwhpFZ9mEQRkRWhsBHyfMxnTruACFFEDA2bnuE1JZxZDyGVMNV5ZyookpIUuanHPh8JfYW/dUBK/cHZXewL8PYYu4IPnK5BPYTM5s5X4p5mod7+ZtNQBYAhpPpG5Or2YVYYQsPMEELzhfRFmnilAY5Q/xUAaPLOxjGpksaLjLJqgnakJQqLEPLoqggRAqAHO7+yJtz8IoTUerOHGnGE8mTl8K9PU9CUWIqhX5FQ3WWKIdR3uokJ5kPSa8I9T4h7T0NDtI8QiunJ23j+NoQo+qbjS1hZlzj7/BESq1w+cRWFNPWBWR1Cw2fU769I9Kzf0EEI5cdNl1uz8uw1sbZDyDBvz+Vl6k0eXs2i1UNI59WTkNVTa8rEhf3uVj8JTDw6EYPF9XOh6B12mwAi9Gk5Z6pePYQ8jKOXjebU9FXWejlYwhhCuw/KvHSeQ0UIdZmrixCacXXGrQ/8nwTjCF182gChfpohOCa1f6XY3FuHTEAI6c1ezotQUViv02XsBgBCKCeEfY5xhEbNXN8TfUdWskuAhgGppq9m4Zm6QS6EkEuB9uxe2JdmJcsWBTtCS+5dvoxWtCOEPObxLsb5NoSqFgzyDqbFLOLs80VIslufix835pn0i9eqQyg/rn7vT2e2Ccn96lXu7EOEkMvxTa5Xe19fX9YEQvoysmyErE6x6zRJw6KrV9nPy8Tf3C8WRldg5YD9NXSxVaggpRQjbW2bnng7ARUChlDVqK0DxOSK+/g7jP+wdPE0o7wrnvCYddIaZaMFxQr/pZQeH4IHgQhZ30K9lJr5KzeOYPAgBIDd2l7FsCXtLubqKnEdWP05Xd/U4DZCaG2PVU+RB4iQ8tgxLIjQrCFvC7bNEFFW3/GIByR9oZGKef9hCK3NBiBkEzahS+nWtVNyIif1wB3M04ItwSD1JHqIjBBiVD/GEBqUh91F14XOGVjMBg8h5Ji9A7rry63SGR0I1E5vtqYuvAWLjT520NsoksZaVuAGbMSaIrHgjARCwsK+xEzrM8pEzfIvWKa0bG2v+Y18HjbCGegV3h0pH1VRgT+G50GIYshpwEiqJO1QbHpk17Bi1JKSYAYA5+Xl6hCyS7ivPn3RDR6EXjmwzFVPiM2f51KHEMiv/3KGylDLiunLlu1xp5twESo1P1O2VBT4f2Aj9GQj7ws8KIYVRlPpFAwhu2n41S4rvWbrsmXsYfu72RY35VFd3/PimP0TT25Cc69N1bcA0PSXnjCE/kSlsC7W7t5yoR0X7cyiP/dxu/GXV49sVHsMVjh5Onr22J5jMhI2chG6cQm1k4ceylh7nIkjZHSTjFkcHvtXhWmt+smrlafMQfC755by8t3coPuz8UVj4B/NQYUkNGphOA2kPP97IHXtf1W3X/tcmCVCVxKydJWjkCSlZ3x9NWoxhlBJLgApS6skDemuH3xBepX0LQYY5mpqIqI/rZQJsvbkcRAqfCP0dTe88Q1B79igPLexiJvlXoeQhc1nVxKFPnLw0iuZIOO6cz55+H13Geku90DmI8OJJSDz9THYciDph63PnfkOsPWfpWVRvzcHQjn7l5O2ls8xLwWMhae3b781a1MXERKFwkZohiTFwLUqCr+168tZhlWXdx28StjUBL9LUwzorjIm8JZNMZEWNpCqUuhug0W5ezS6DA1NTXvDHapVwZHNcUE8CM1Fr4QPrGwWoUmpr46K2th4H9qQxEWI6eYc65wB5szqiVs+ZwvP/UrSVOG/eyEbZDGEHK84YY5OSzeU29jswH1cyiDPNkK3xwuOdq8mrx2+tXUIBb9DIz/Lc1ieD/IgQozAV6EWDlduz0Vf18g+sVkzKHh3/J+ezNKDjRHKFSVjCInIL8phIYuZpfZbpuybLfq/rltyAGtOyMcRhblM6K73cFYC/GPEepFkhbaVkEHWvPW5zGcFI658MrM+1aXnu+j0Qftl9IU2hZY8WaSNIWTnAgvgk5Hr1Z4fD7mA2IlOBxigpO/eYvGaV0waUNtWyUaIlTz58Rd79FgKgSP3lx75xuqaOoTIepHFJIOTn647++pB82KoICJkyerHM2KB1dlj832B/7x/dUZKk0ReicYYz+EgY5yeHh9pnmXF2Y/c//d1hhsTsLzTs7KeJGdvGCliYoAj5LJLSPrNkrSb+FkU2z/v4jOXoLVp/xtdjNUyItKj3h45sMlSliQ949LpN7tWjk7Rw6K8+BUNChxbuRKNUNMYT0TVgj0EROhquCca5I6xSQ/jIsRWzplBsB5PswAWgewxDrF16zRql28boxcTXXbAB3rJiFxQgertU4eOawHAXqd2Fhq2+MGsqZK9AU37HFlrMgehafg7cJSHDvkAQ5kq9NOQ0q9DyC0Z1uwGo2JA7qJH3a6Hg5jdqdTEtAvnjOExm2GxsEEZ9N4b/rI/szEk0MK570kJJf1Rw2K0/GkYQpJCQ3ZyyjsxOkSX9WmhLRr6CM5N9sdd7x20R/vD0UOag/eYwNE8yI5WGnHD2jfD+8Hj45kZIPfP5ZumVOcDrSXVnnosKqDC2l4vsFhlyr3ULAbIOnD2KBNkZGm+Wzz4NYyp9N62TbIYQmSzMYVPYFEGpz32k3EasARy/0etPva+O4QQANdf/3N4gx2LU7rALdF44aKDzsAi5exdG2BX3ntJ5Nf9/VbkgHpa68Cz8250zyfon+wPS5ulR3u4dcjXbhXHliHSr+W5j30aozt+4+MuVR9ud/W1o0JXD93QEa4kw1UzPocVJpTceythQKrYu0L0zkLN0Ew8StubeSZVh7eFhKDOBaBZOXLSGrZRlkTX6f6sFQixQ9BiLmPZ5UEoeII2ANph0FrQzaRKWchEcv6RIwf+uomaoQ5TvJEXj4Eb/nGqFaNfyUVFs1fI0hBHSM/KdvYog3OAdjQagJfCUobSxyBCPaOwSnVG793L1E1JUZOXfR3pp6QkY4gjRM6YXGOpM9MDZD48sawkhm2EYzo6+TGZ6NpgZKDb1CVYNesbyN2HlNzrHnZV+FosA3lcgWWnZpcxOyCrNNyC6Z2QweSeABrLgmk/G738NnUzaveculN3PmEST7rOzEAbqTcPHYd/WkvO6TIctWi4FbenR2IQ2qWYW7Gd/u6O/UfclMEQ4sr/z/3HThwtgWXU1SnKSBy2hwI2YGVqs+JS9/p8qFnPQ7eT4T0TAWMOvNEaL+xqC5pR3Olta3n3b1THqY2pHDUbmfPfSIgQM6Pk3sKVpzbHL+R4CY9Wpkgb9fW0RyYUTJcmWU5LZ2ZQuVFkJKvnJc19Ui8ZpmOpHi13mbCpUY8xsA7GEfIIqSBV3olARdYEQoD8rsikPkIuM/twEXJa9PKSitSD/Hxj3UR0XSf2x26lZMfM1Nj1rwcUeqByvXDirReOEI3lkdyzyzBAuwdJi1v6qIvlB4jQl0dYN7dbcOnFHn4knezE4zO/jh27oAhHCJDXnh+3UI0MqC5qiR5kthE4QmQqCzrQMMfx8vokV4WJsJ1GzdBaePDqEjfsnDZEiMZkkpmiuWQat2Q8/K/beeQg3obdRg+XdLoyeMqNbHHuNcatR74WajZpLRloxXwyBqes9Nq/OELMDAs2d27v0rD/nN70+gjZ+WhetHGBtwm1Yd1OO7y/CzP8HrtpMKwevq93qgCjFDNn92YtQKPCzOnZPLUCzShctK8z776/rQtDdM/2O8jCbZMgQjSyXoZdoHH+HDuOF6b3SEPXdetjPNClFDdKCSFE4ykUstnpvZdyY3hjBS6F6+2pHj5Gs7pmYlcghpD5/+ikVbfvoFJoCiFQ8PzfShMKD0Ie5Q4chBZqP8n6dH/NNHhxM7DkS9dyjKQxtByq8drWOflGWNJVmbPYjn3v7bBpnwnv60EDC7eNXRQLm+V9xu1dunLleVjuFy8/mvQMBL9///Sp9qXHZ3phQTKeXU9sWGp6ahkNXJ5+PL1tUJ95+AlcO++/ENy5IUKYbfnBvAXuGcd+tXD1YdSXGXmFFyEARN/z7mdY2zNo74eh69XF0eLPnt3z65tBdX6G/VvE5Sn0COQ5B3pq+TjUOWP6xpFLVcN6rn+GV4U0X7WG2cMzsTCcveWRqMfeKCXz82l3sV4BeWTQQH50Obo3WxzdE/BnKp8gxl+fn5x2Hd/2LZziJDYuoe4gLcPC4vrDYQ2KOHHxhWwGyHynyg5md+HyTsd700xJJlVX0Ieim0Qo5W3oiMqoD2/rxzf7rnkGnpugncu7cp31/GFdZIE3vAA10Y3tTI2+OfnRa9x7epo/13vQRWdUI7IyvH0SElCLn+y2+LkZbLfDM2SWfCeuhF95NSFHK2QPO23/4wOzcGd+CNVXbtwd9inEESr6rz5C4Va8p42VDwtieDXyoptKTf7k4wj4K3vB23s0fgccc9Ohbf7OenoxfI9z5W/u0cCFrBVE5eeT9xZUXyzzzaNjS/kcsEvr3SuUg67F7q/FX+rulaxSe9gkapSW2YnN2fWLJvW9W8hK1JI9uZNBbhqhCOuc3KNnFxXUz86gdYu88RJw1O1VVw/TWDRAy/Vl7zA5ZU9zs5sTh9+uS81K6nJEtWCgC5FG9ojx8MAMJo/pDQ+jGpXlgfonrRcZu6Rp+Flhebixw7YCoYLF7NLDEVo1Wo9PxNwcokxhCNGGDaR5uMXwrRag1OZ5WvA3lIGyCqttWvMEcWp2npBuWaINqWIfaSoqZubxuGB+JpJjSsPdOI0+plbKOdG6mtlF9NBT6EhtEOmz0YsbIJSRw8QR+vC/TI9GCMUYB2cEBwX6MzLmUGMyE54E8RSkS4nuV8urfYMw06iOvuzeJssuEbYpLZ5tvoP6Begg1c0lgwGCUU3DzHdkPMvRg23XUirTwjHHTAuv5GPsLOqdopwI7NwzsZs0IIebZWWh4FQXBqD5+8fYBCbC3lBivpZZDk6iYxZSZjhPMXnw9G8S+2LZEZrf/YavmkvdOWGq5Wb7QKzsbIxDbk5LoGJpHRmJmn1yM9ISnLOybIKDzYIY4f5W8KSFflmbauNC1bPyR7cWj8CX/4uIcVx74iP7bOjh6TG45cuysGDFpMJ7+pwsXyybMbGp4WRYGvXPALyhOzhkZtCs0N0fa6wCC1+YGzdA08qcw/ZLtTOeAyu+cOieu7t/f3P4b8UAjOCsLDUsnxZ2MeHBwcEZqLMShMoiqDQ4BysNhpV5BC1Gaw7VIji4lEGjhmciplluz5CnzEx4i3ALDsZKG7Y6gti2zXnmQs1/P/PPwFIYeUwpDVCDs2OxMk60H9Dt5voEMzI1OCsxHGuVMhm0cwtQmVU9/+Kd+7T+eieJ0COF/e+8XHJeNLCxQl7PnU8ijR5obBWMO0SkZsHf3PfDon0Dr5/fMS0w0D4buYiWq4b63NvyCfPkK6rd/4kv2tL1Gdb70M7yVN8s8wTNhd65WBT2tmr+z3wTzYL8zWwCc0WPI9csh9BDkZHDUyMCHUKfZPqv6B46e/bDCDPzo+d2Hno4JgKG8lwYibRzd8mzfGq+ca6NcWxK9DBdrqkDv2LZMe0y5I8jF4ZdNIZO2ShLuX2W9ZxSHRhY/m7z2a3/VKMAWcnT8DXTeWEb/hcZ+eXOnUPzykO7F140jnhwbNv4dyHm2cO37EYRzN57Zt76o9s+bM1F2cnSTXYIDHTWjXCIPS4Krbbxz/R19rTHkleNvBmL/hPeLrkY7Gwdtxa3KivVF9+4c/r0u4E3tqim5Abavve2jQiMXQJzkxyYNUy7N9uvrk/fnbsDjd9D9/GXvl4aD/+j10Y4DIyMLLwelG/lkjBs/cM7d0IvBgZ6DpuHyuLPgsJz95xRooVzz2NRXI9WHX7cN1vzUHaOi1pu8iHkSVt7TERWWv+nqc+gxYnh+WzDdAu7x+neePd8z5JhKQ6+3sczgtLvvOqBlfH5C0aVA+5uOFSueWfz+YcDzQODzNQCA0+XYU/dxR5vWNaj/oIjaWEZujBdWsbya3xjnZQxlSWRig8s1vTBHRbtOwt/395NWjA3PsxJWD0+fsT2bdDl4CMlv7zaig+Yp8lhUdP3zUVbqwOq6NL0ftO2nV253Mtr5Tjk9r+wE7Orj0w++u5jdfeblyfs+QvFuGFrF2kZmSQY6oDRf4d2rpMWllZ+pN3rD/U1dOlJnxfHx8+9PVUGaeLSyUcKrPq/Wn3z1boa4TUHuKZ2w68Mir6JlIx07fLJ0Gn/SfgzTl7GVO5xfPwQL7qUnOHjv1EmpqnjA6D6BlKmMjLSdLq0u0aUNP3x2/8dljWVKRrwx7Tbk5ZCj9PE5EykhemmshITusLdsw9OTYiPf3B38cwziie3x8e/3Hnh5etpG7DkFWSUrqH/mVETryWPmLHjEm7Vhmnb8I1HpqZVGsXK9DXb41+d+e/msviwCpib0fGTA6SVp+Ferpxy7fI8/u0plE0pAyn0N/jS/078A8vlcq9hminbld3pdLpCN1jaTkLoKDRNqOwBDLmXbvoIi2Ls/FUap06vPEafGZoye8NWVGTS0tJnFo04XBYWfyQ+/s+jsQVswz7Ld9l/ZUS3NXIydJ1bk6fsS/24XNgUSxQGERExlJOSdhWmw8KpWh0/6Py8+PhRyvigr6GUjFT98XLOtAgRFaPGwkeNVskrLh+KOyiOdIK/E6dWWCoaicvoVxgZlY3UgS5FSpJoJN4d8xTgZVIhr4i2xGVQ9K4qOk5dhOTkupRhUXhpqBcrBCR9mFT8QcFIJS8PxViGfXAHhRpJlz9WjEakZCuOfZBwhwQL18K4FC3x8ReZqICr82/NmCiuMBEekx3JNXUq7+ixyaoA6OQnhmJGd3C4scYAPZMS08Ay0WiCh6SUIYnkV2aEEjYQcxpZJRwFPY7kTGKgq6D4nIqUYSEV1Spq1MiIwa3Dxer9Jo3EMmUkTJL0Qv8aJkplj8uE/ORxq8pUdPANmKKIFLQYFnNAjfzhSiNxdEK6GAVIczMhoUyR8zOayDul1VLDSKMK3p0rP8xffnskNsFSeKqRkZcpZyRM37QI5R0WHRaFeIW+lJhOF3dSvzdvPpRxPmJUo+MkLCNupAAtnv+CfSLL8qTkxCTKusjhZVokP2pSEwNq+uJGlev6GRnVGHzvJxoItVKGv0JRCyuZ8l1lQTH4jjczEyJEiBAhQoQIESJEiBAhQoQIESJEiBAhQoQIESLU6fV/8NH/L82gYysAAAAASUVORK5CYII=;clipPath=inset(1.92% 44.67% 1.9% 0%);fontSize=28;" parent="0lQ9qycPSiAqUX2RLHM0-4" vertex="1">
                    <mxGeometry x="148.47105484709664" y="84" width="141.0347325" height="84.97874999999999" as="geometry"/>
                </mxCell>
                <mxCell id="0lQ9qycPSiAqUX2RLHM0-36" value="Optionally&lt;br style=&quot;font-size: 28px;&quot;&gt;curate cells" style="rounded=1;whiteSpace=wrap;html=1;fontSize=28;fontFamily=Roboto Slab;fontSource=https%3A%2F%2Ffonts.googleapis.com%2Fcss%3Ffamily%3DRoboto%2BSlab;container=1;labelBackgroundColor=none;fillColor=#808285;fontColor=#FFFFFF;strokeColor=none;" parent="1" vertex="1">
                    <mxGeometry x="1024" y="610" width="323" height="200" as="geometry"/>
                </mxCell>
                <mxCell id="0lQ9qycPSiAqUX2RLHM0-38" value="" style="triangle;whiteSpace=wrap;html=1;fillColor=#FFFFFF;rounded=1;strokeColor=#808285;strokeWidth=2;fontSize=28;" parent="1" vertex="1">
                    <mxGeometry x="318" y="930" width="60" height="160" as="geometry"/>
                </mxCell>
                <mxCell id="0lQ9qycPSiAqUX2RLHM0-5" value="" style="triangle;whiteSpace=wrap;html=1;fillColor=#FFFFFF;rounded=1;strokeColor=#808285;fontSize=28;" parent="1" vertex="1">
                    <mxGeometry x="994" y="630" width="60" height="160" as="geometry"/>
                </mxCell>
                <mxCell id="0lQ9qycPSiAqUX2RLHM0-40" value="" style="triangle;whiteSpace=wrap;html=1;fillColor=#FFFFFF;rounded=1;strokeColor=#808285;strokeWidth=2;fontSize=28;" parent="1" vertex="1">
                    <mxGeometry x="656" y="930" width="60" height="160" as="geometry"/>
                </mxCell>
                <mxCell id="0lQ9qycPSiAqUX2RLHM0-41" value="&lt;br&gt;&amp;nbsp;Export &amp;amp; publish&lt;br&gt;&lt;br&gt;&amp;nbsp;&lt;br&gt;&amp;nbsp;" style="rounded=1;whiteSpace=wrap;html=1;fontSize=28;fontFamily=Roboto Slab;fontSource=https%3A%2F%2Ffonts.googleapis.com%2Fcss%3Ffamily%3DRoboto%2BSlab;container=1;labelBackgroundColor=none;fillColor=#808285;fontColor=#FFFFFF;strokeColor=none;verticalAlign=top;" parent="1" vertex="1">
                    <mxGeometry x="1024" y="910" width="323" height="200" as="geometry"/>
                </mxCell>
                <mxCell id="0lQ9qycPSiAqUX2RLHM0-44" value="" style="triangle;whiteSpace=wrap;html=1;fillColor=#FFFFFF;rounded=1;strokeColor=#808285;strokeWidth=2;fontSize=28;" parent="1" vertex="1">
                    <mxGeometry x="994" y="930" width="60" height="160" as="geometry"/>
                </mxCell>
                <mxCell id="0lQ9qycPSiAqUX2RLHM0-47" value="&lt;font style=&quot;font-size: 18px;&quot;&gt;(Coming Soon)&lt;/font&gt;" style="text;html=1;strokeColor=none;fillColor=none;align=center;verticalAlign=middle;whiteSpace=wrap;rounded=0;fontFamily=Roboto Slab;fontSource=https%3A%2F%2Ffonts.googleapis.com%2Fcss%3Ffamily%3DRoboto%2BSlab;fontSize=19;fontColor=#00A0DF;" parent="1" vertex="1">
                    <mxGeometry x="18.90000000000009" y="1105" width="301.1" height="30" as="geometry"/>
                </mxCell>
                <mxCell id="wCUkDDBLQIwaV8VIMWGC-22" value="" style="shape=image;verticalLabelPosition=bottom;labelBackgroundColor=#ffffff;verticalAlign=top;aspect=fixed;imageAspect=0;image=data:image/png,iVBORw0KGgoAAAANSUhEUgAAAggAAAIICAYAAAAL/BZjAAAAAXNSR0IArs4c6QAAIABJREFUeF7snXdc1Pmd/weGMpRh6L0jvStdqtKRLii21d1kTe6SXJLNpdzlLu7lcsldcpvc5ZdN3NtmYdVRKaIIKgxN6gAC0jtIh2GoA0z7PT4ss2GNOsx3hqnv+Ud3/bT38/35fj+v76e8P0rXrl3z1tfXn8HBDwgAASAABIAAEAACOByORqOZKD148MA0KSlpGogAASAABIAAEAACQAARQNoABAL0BSAABIAAEAACQOBrBEAgQIcAAkAACAABIAAE/oYACAToFEAACAABIAAEgAAIBOgDQAAIAAEgAASAAH8CMIPAnxGkAAJAAAgAASCgcARAICicy8FgIAAEgAAQAAL8CYBA4M8IUgABIAAEgAAQUDgCIBAUzuVgMBAAAkAACAAB/gRAIPBnBCmAABAAAkAACCgcARAICudyMBgIAAEgAASAAH8CIBD4M4IUQAAIAAEgAAQUjgAIBIVzORgMBIAAEAACQIA/ARAI/BlBCiAABIAAEAACCkcABILCuRwMBgJAAAgAASDAnwAIBP6MIAUQAAJAAAgAAYUjAAJB4VwOBgMBIAAEgAAQ4E8ABAJ/RpACCAABIAAEgIDCEQCBoHAuB4OBABAAAkAACPAnAAKBPyNIAQSAABAAAkBA4QiAQFA4l4PBQAAIAAEgAAT4EwCBwJ8RpAACQAAIAAEgoHAEQCAonMvBYCAABIAAEAAC/AmAQODPCFIAASAABIAAEFA4AiAQFM7lYDAQAAJAAAgAAf4EQCDwZwQpgAAQAAJAAAgoHAEQCArncjAYCAABIAAEgAB/AiAQ+DOCFEAACAABIAAEFI4ACASFczkYDASAABAAAkCAPwEQCPwZQQogAASAABAAAgpHAASCwrkcDAYCQAAIAAEgwJ8ACAT+jCAFEAACQAAIAAGFIwACQeFcDgYDASAABIAAEOBPAAQCf0aQAggAASAABICAwhEAgaBwLgeDgQAQAAJAAAjwJwACgT8jSAEEgAAQAAJAQOEIgEBQOJeDwUAACAABIAAE+BMAgcCfEaQAAkAACAABIKBwBEAgKJzLwWAgAASAABAAAvwJgEDgzwhSAAEgAASAABBQOAIgEBTO5WAwEAACQAAIAAH+BEAg8GcEKYAAEAACQAAIKBwBEAgK53IwGAgAASAABIAAfwIgEPgzghRAAAgAASAABBSOAAgEhXM5GAwEgAAQAAJAgD8BEAj8GUEKIAAEgAAQAAIKRwAEgsK5HAwGAkAACAABIMCfAAgE/owgBRAAAkAACAABhSMAAkHhXA4GAwEgAASAABDgTwAEAn9GkAIIAAEgAASAgMIRAIGgcC4Hg4EAEAACQAAI8CcAAoE/I0gBBIAAEAACQEDhCIBAUDiXg8FAAAgAASAABPgTAIHAnxGkAAJAAAgAASCgcARAICicy8FgIAAEgAAQAAL8CYBA4M8IUgABIAAEgAAQUDgCIBAUzuVgMBAAAkAACAAB/gRAIPBnBCmAABAAAkAACCgcARAICudyMBgIAAEgAASAAH8CIBD4M4IUQAAIAAEgAAQUjgAIBIVzORgMBIAAEAACQIA/ARAI/BlBCiAABIAAEAACCkcABILCuRwMBgJAAAgAASDAnwAIBP6MIAUQAAJAAAgAAYUjAAJB4VwOBgMBIAAEgAAQ4E8ABAJ/RpACCAABIAAEgIDCEQCBoHAuB4OBABAAAkAACPAnAAKBPyNIAQSAABAAAkBA4QiAQFA4l4PBQED6CXR2dqq1trZGWlpanrC0tHTT09OzXltbW6DRaIM9PT1lOjo6DxMTEwel3xJoIRCQXQIgEGTXd9ByICB3BGprazXm5+eTvb29v2dkZOSnrq6urqSk9JWdXC4Xx+FwuKurq4u0xUVqT3d33sbGRklGRsaYkpISV+6AgEFAQIIEQCBIED5UDQSAwJcE+vv7dcbHx+Pt7Oy+Y25uHqSqqqq6mw1PJCCB8PJvfn5+YmlpqWxgYKCAwWA8zcjImAWuQAAICE8ABILwDKEEIAAEMBDgcrlKeXl5pubm5klGRkbfsrOz81VSUlJGRe2eNdhL0Ug4sNlszszMzPDMzEzR7Ozs3Y2NjedpaWlLMLOwF4KQBgj8LQEQCNArgAAQECsBLpernJeXZ6Kvr3/Cycnp+6ampjZIEKBBHv0piDjg5dk9s7Dz/7jDw8Nd4+PjuSwWq5DBYIwkJyevi9VQqAwIyDgBEAgy7kBoPhCQFQJoxqC9vd1oZGTkR+Hh4d8gEol6SAwoK29PGoj8h4TCzp4FzsDAQHdLS8tHvr6+t8lk8sylS5c4Iq8QCgQCckYABIKcORTMAQLSSKCystJufX39n8LDw7MJBAKRi1YRdhq6nwIBVcHhcLZnJTgcDofFYm0MDQ21trS0fG5mZpYfHR29II28oE1AQBoIgECQBi9AG4CAHBIgk8l4HA4X7Ojo+Hd2dnaxOjo6BshMQZYQ9gMLmlVgsVjstbW12YmJiZr29vYvnJycKH5+fkv7UR+UCQRklQAIBFn1HLQbCEgpAQqFojI/Px+BjiqamppGaWppEZV35gvQ4LxfMwZ7xYFmFLZ/qE1figXm/Pz8yPz8/MOurq47+vr6LXFxcWt7LQ/SAQF5JQACQV49C3YBATETaGtr03rx4kWIvb39d2xtbWMIBIKGmJsgdHXr6+sbMzMzz+l0emFfX1+RtbV1X0hICEPogqEAICCDBEAgyKDToMlAQJoIkMlkkrGx8REjI6N/cHR0DMXj8XhJzxJg5YNmF3gnI7a2thgDAwP1a2tr14eHh8u9vLwm3d3dt7CWDfmAgKwRAIEgax6D9gIBKSCATiTcu3dPW01NLdXR0fEnDg4O7mjSXgqati9N2NjYWGttba1aXl7+BIfDUZaXl5eys7PZ+1IZFAoEpIQACAQpcQQ0AwjICoH6+nqdvr6+v0tISPgHPT09EyUU3WifjipKCxPezAIXh+NubmysUKnUsvHx8T+7urpW+Pn5MaWlndAOICBKAiAQREkTygICckygtLTUCofDvRsQEPA2iUQy5UU9lGOTX2saWoZgMplba2tr08+ePSuZnp7+3NvbuxmWIBSxN8ivzSAQ5Ne3YBkQEAmB69evu7m4uHzL1tY2XVdX10JZWRlNGoikbFkuhBe9Ec0urK+vr62urvYMDQ09GBkZuXP69OlOJSUlCMYkyw6GtuNAIEAnAAJA4G8I7MQw8HR3d/+2hYVFOpFINOKFQeZt4gNsfyXAEwvoz+XlZfri4mLDixcvCqanp0txONwY7FeA3iKLBEAgyKLXoM1AYJ8IUCgUwsbGhqeFhcU37O3tczQ0NIjyvr9A1Ch3wjtvB4Si0Wgz09PTT+h0+t2+vr6Gt99+ewoujxI1cShvvwiAQNgvslAuEJAhAmQyWcPExMRfU1v7PU9391g1NTUCar40BDaSIYzbTX35Smref9NotKmOjo4CFRWV3Onp6eddXV0rcCeErHlXsdoLAkGx/A3WAoGvESguLlbf2tqKtLe3/5Wrq6uv8pc/qafEZm+fMOSiH2qwoLdASsLA3cJhcnJyqqmp6YaGhsany8vLPbAEIQmPQJ38CIBA4EcI/h0IyCGB8fFxjdra2pzg4OD3TE1NnZTxeBVeOGRZ2ICINgaWlJRcJxKJf9nc3HzLx9c31dDAwFjaXbV7YyNaamCxWFtzc3MjNTU1X+jp6V2LjY0dgSUIafei4rQPBILi+BosBQK42tpa/aWlpTO+vr7v6unpOauqqqrIgiB42XVbW1vMR48eHUlOTq5BGyqXlpYMXV1dA9XV1bMcHBwSSCTSVxdDyYJ9HA6Hu7a2trywsNDW3t5+Q1lZuSg5OXkCuiwQkCQBEAiSpA91AwExEEBRDx8+fGiho6Nzxt7e/oKRkZGDsrIyumlx+ycLSwovY5qdnR1tbm52TkxM3Nz9b0gssNlsKxsbm6MGBgaZJiYmwSQSSVcMmIWq4qsLpL5cN+HQ6fTpxcXF6q6uLrKOjk5VVFTUvFAVQGYggIEACAQM0CALEJAFAmh5/u7duw729vbnTE1Nz5iYmNjKohjYzRpN0aN9B48ePfpjfHz89980Hc/lclVzc3NdHB0dk83NzVP09PQ8NDQ0tFB5srBnAbWTw+FwpqamRmh0WvHI0Eg+m81uSU9Pp8tC/4M2yj4BEAiy70OwAAh8jQC6bnlra+uAnp7eO0gc6Ovrb6/No69UPP6riQOZpIYEwtra2uqDBw9CT5482bZXI6hUqmp3d7e/vb39GScnp1htbW1LdXV1dVlYfuDtW2Cz2eyxsbHO2dlZMp1OL5qbmxs8d+4cXEu9104A6QQmAAJBYGSQAQhIJ4HLly+renl5HVhfX/9ZUFBQBoFA0JLUjMHuKXNEC4UlHhsb6zEyMnLT1dVVwUoQDZazs7PPTE1NfbGW0d/fr97c3ByBYj14+3gf0SBo6KIbKHkDsbTPLqB2stlsVm9vb9vIyMgVIpFYMDMzM5OdnQ03TWLtFJDvlQRAIEDHAAIyTgDtMSgqKgo0MjL6hb+/fwyXy/3qumVJCYSdpQA0a8FubW0tn52dvUQkEhcDAwNb1NXVt2MsYPmhch8+fPh+UlLSJSz5d+fZ2ZtBXF9fP2JiYvKdwMDAMBUVFTWURtpnFnYFY0IrLqzOzs7mZ8+e/cXLy6vQ19cXliCE7RyQf5sACAToCEBARgmgafO+vr4kPz+/H1hbW/upqalpbpuipCT2e5dfOr6HQ9cjd3R03GUwGH9kMBgdCQkJW3fu3Pltenr6e8IscywuLi5UVFSEZGRk9InSbWQyWQ2Pxxvr6+tH6+vrn3N0dAxSV1fXeFkoSLNwYLFYbAaDQRseHq5rbW296u/vX+ru7r4qSk5QlmIRAIGgWP4Ga+WAQG1trcbU1BQSBv9gYmLip6qqSuANXJIawHhLCisrKwtDQ0Ofj4yMfG5tbd3Luwr58uXLpKSkpE4zMzN02RNmL4yMjJRcuXIlaT8jEKKoksrKyva29vbxJCIx29ra2ldVVVVV2mcWdt8HwWKxWHQ6fWxqauoxOgnh5ORU7+fnt44ZPGRUSAIgEBTS7WC0LBIoKioy1NbWPmZvb/9Nc3PzADwe/7W1fHGKg5fCCXMXFhampqambra2tl5+6623/ubrvrKyMiQsLOwp1kGWd3qhqqrqm1FRUZ+Iy38UCkV7amrKx8PDI9PAwCDB0NDQXprFwu6LtHh/39jY2JidnX2+sLBQ1NHRUeTn59cJ11KLqwfJdj0gEGTbf9B6BSBAJpONbGxsTpqYmFy0sLBwU1FRkfhdyzsb5TiLi4tDfX19N2ZmZj7PzMwcepU70HHLmpqa3x8+fPh7WAUCmqGg0WjjT58+PZyWljYuCbdTKBTd+fn5CHd39xMmJibhOjo6Zng8fjvMs7T/eHtCNjc310dGRupWV1dvDQ0NlR84cGCMN8sj7TZA+8RPAASC+JlDjUBgzwSePHnif+DAgY+trKy8eIOrpAcktNa9tLQ0XlFR8Udzc/PPQ0JCaG8y6IsvvjA5cuRIs7GxsYUwAqG3t/eqm5vbW3uGt48Jnz59ajwwMJAQEBDwFlqCIBAIOtJ8iQUSWKjf7D6pgSI3dnd3P2YwGF+Mjo7WnD17dkFJSWn7kgv4AQFEAAQC9AMgIKUEHj9+7BkQEFBFJBJ1JSkKdh1Z5ExOTg6Xl5f/9ty5c58pKSnt6VhddXX1scOHDxcJYwNqQ1lZWWpsbOw9aXNXVVWV2YsXL3L8/f3ftrW1dVFSUsIjW4XZayEuG3kzC2hTaXV19X0Gg/EXXV3d+sjIyE24E0JcXpDeekAgSK9voGUKTKCwsNDEz8+PamZmZsnDIMwAKwxKNIh0dnbWj4+P/8f8/Hy5IMF5Ll26pJyRkXHFw8PjjDDtf/HixVBdXV1Qdnb2nDC27FdedGTy888/V7exsbFhMBhZLq6u52xtbA6giyb3q05RlcsTCag8NpvNXFlZmW1tbX1Io9H+LysrqxlmFURFWvbKAYEgez6DFss5ATSoRkVFvR8aGvpzZKq4v0R5MwZsNnvr+fPnTxYXF/9nYWGhNjs7W+Ajc7m5ufbx8fG1enp6JsIIhMbGxg8CAgJ+JCNftUrFxcVEAoHgqqmpedzS0jLV1NT0gNIOAGkPxMR7vNYZ62sryyvDHR0dBXNzczdVVFTgWmo5f/e8bB4IBAVzOJgr/QQ+++wz2/T09CYdHR1D1FphBlYs1q6uri6NjY3d7+np+bOXlxfV0dHxaxciCVJmTU3NO8HBwR8LMyiimw4pFMrh6OjoOkHqloa0aGbh9u3bhiQSKcjMwiLTxMgoxsDAAG1ulImZBcQQzTCgPkGj0VqGhoZu0+n00oyMDHQtNUcaGEMb9o8ACIT9YwslAwFMBBobG8/7+fmhNX5M+bFmoi8trU5NThZ0d3f/KSMjo0nYqWV0J4S1tXWBnZ1dElahgwankZGRXiqVGpidnb2E1TZpyMe7VROHw8W6uroeJ5FI/jvXUvMmF8QuBgXhwtvgSKPRpufn56vm5ubuTE1NVWdlZc3IyMyOIOZCWtikCH0ACEgXgc7OThTqt8DFxSVB3EsLfX19L+ZptP+3uLDwgMvlDiUnJwsVWOfmzZse8fHxVTo6OnpYBQJa7iguLn7/2LFj78vTIITEwr1795zU1dUzPTw80kgkkquWlpa2uEWhIL1/d+yLnb9z5+fnJ4eHhwvW1tbI09PTHadOnVqCmQVBqEp3WphBkG7/QOsUjMCVK1e8MjIyarS0tIiSGiyYTCazp6enZXh4+IqGhkbh8PDw3MWLF5mCuqKsrOznUVFRvxTGDhQRsLm52TsoKKhL0PplJT2ZTEZ3Z7irqqp+MzQ0NFlbW9sM3QnBO5bI+1PcglEQfkjIoWup29vbyaqqqtcXFxcHsrKyNuRJ1AnCQ17SgkCQF0+CHXJBoIFK/Yn/wYO/QV9okhoQdh1r3L4IqK2trb6np+fDgICAYkdHx+W9gEbBkaanpxtMTU399pL+dWn6+/t7nj596nvhwoUNYcqRhbxoVuGjjz5SMTMzO6SqqnoxIDAwVZdE2p59QT9J9Ye9sNt9eye6oOvFxMRodVXVFSsrq6uRkZGjIBT2QlH60oBAkD6fQIsUlMD4+LgGh8OpsLa2DpA2BOhLHl0ENDA0UN3+rP3q0aNHH1tZWTFe187c3NyAlJSUMqzT5jtH7zi3bt368alTpz5Ae+Wkjcl+tgfNKrBYLD1ra2t/HA53xtPTM4FIJG6LBV4IZWFmZvaz7byykbpcX19fnZub62hsbPzC0NCw4OjRoxPiqBvqEA0BEAii4QilAAGhCVy7di0sKyurRF1d/ctbGaXsxzsvv8Vkbq2urIyMj48/6u3tvWtjY9MQEhLyNbFQWVn5p9CwsL9D2ywFHch4a90MBoPe2NjoGhUVNS1lKMTaHHR99yeffGLp7u4eqqOjc8rCwiKUSCSiyI1ibQeWynh9hs1mc1ZXV2fn5uYa2trablhaWj7mF4ETS32QR7QEQCCIlieUBgQwE2hqbv6j38GD38FcwD5nfOmCpu3aNjc3GTMzM23z8/OFPT09D3x9fXvd3NzQvQk9enp6doKKA94XMqqrv7+f4uLicmSfzZKp4tEm1ra2NkdHR8dEY2PjdENDQ08CgbC9uXH3ngVpM4o364H+5HA4nJmZmcHFxcXHAwMD+VpaWk0xMTEyfUJF2niLqj0gEERFEsoBAkIQaGtr0zIzM2sxNDR0wjKoClG1SLKiNej19fWVsbGx2oWFhadBQUE/V1VVRScyBP7tXATFvnPnzsWcnByx3dwocEMlnKG4uFh9bm7O283N7YSlpWWCrq6uvZqamjpqlizMLqA+w2KxmJOTk89pNFrh2NhYoZWVVR9cSy3hjrWrehAI0uMLaIkCE7h69Wpydnb2HTU1te3d67L2230ZEBrg8Xg8ZhNQfhqNNtHV1eUbHh4ulaGVMRu3TxmRwOzo6Ah3dHQ87erqGq2hoWGgoqKyfR042rwhjT3q5RkpJBZ6e3ubFhYWrq+vrz+amZmZUITNqfvUJURSLAgEkWCEQoCAcASamppuHzx48LgsfPkJZ+necvf09Nx0dXXN2VtqSLWbQGlpqdbkzGSiu4v733l6eQWpqqioo/UHJBJkoX/tzCBtn54ZHBy87Orq+iAvL2/p0qVLELlRzF0dBIKYgUN1QOBlArOzs9oEAmFQS0vLWJiQxPJCFl0nffv27eOnTp0qkBebJGHH5cuXVd3d3Y3odHqCubn5O56env68WQVJtGevde6eWUBHJjc2Nla7u7ufdnV1feTj4/PE29t7ba9lQTrhCIBAEI4f5AYCQhP4/PPPc86cOXMVj8dvTwkL+tvZ+PW1r0NZXKbg7XifmZnp7u3tDYmKiqILygLSv5pAUVGRJpvNtjUxMYnX1dXNdnBwOIjH41V5/USScTf24jO0hLW5uclkMBiTQ0ND5X19fV9ERUXVmpubCxXtcy91K3IaEAiK7H2wXeIEqFSqKg6HKzt06FAY1sagl/vy8vLK1tbWiqGhobksigNkO08gdHV1/c7T0/MfsfKAfG8mgPYrjI6Oetra2qaSdHVTzM3MnJWVlVE0R6lFx5tV4P25sbGxsbi42Ds5OXmvt7e34ODBg8/d3d23pNYAGW0YCAQZdRw0Wz4IUCgUy8OHD/erqqoShLGoqanpTzMzM/+lqqoa5+TklK2np3cQ3YGAlp6l/euQZzf6SmQymVtFRUXRWVlZ1cLwgLx7I/DkyRODxcXFUG9v71QdHZ0jBgYGVng8/iulIO19B/WZtbW11dnZ2YbFxcXbfX195aqqqqPZ2dkgFvbWBd6YCgSCCCBCEUAAK4H79+9/OzEx8U9fXeeHoaCNjY31O3fuxJ89e3Z7UEUhe2/duuViaGh43M3NLZ1EIjlqampqYyharFnQYDQ0NNQ0Pj5+JCoqalWslUNlOCqVatjf33/skN+hHGMj40NaWlp6SCxI84wUb9aJFwNidXWVPjw8XLa+vp7b29tbd/78+TlhbyVV5K4BAkGRvQ+2S5RAbW2thpaWVrmnp2cQlpcwb7p1dHS0AYfDRdrZ2f3NfQUoCt+9e/e8VFRU3gkKCkrV1tY2UVFRQcsa2z9p2hSJ7GlpafmZn5/fbyTqGKgcV1ZWZjE3N3ciIDDwrLmZmYuqqqo6bzZKmvrMm1y1tLREb25uLlZSUvp0cnKy6fTp06tw06RgnRsEgmC8IDUQEBmBvLw815SUlA4lJSVM67+8C3JaW1v/yc/P79dvahiaVXj//ffxvr6+gRoaGt/yDwg4pkMk6qI80rL2jG6RJJPJPmfOnJHbmxtF1nnEVBC6E8LS0tJufHz8XEBAwFlLKysbvDKaVJDGyAp/hcLbuLvTTg6NRltoaGjI39zcvJyRkdEKl0ftrQOBQNgbJ0gFBEROoLa29h+Dg4P/C2vBvOiFRUVFoadOnWrfazloVuH27dv6xsbGQerq6mfc3d3jtLW1Sbz8vJkJcQkHntDp6OigrK+vJ718r8Ne7YJ0+0cACcxPP/1U287Ozg2Px5+0t7dPNbewsMNxuV+FeJYmsfkqEqhfM5lMxvLy8ov6+vo7XC43Nzk5uRtmFV7fb0Ag7N8zBSUDgdcSKC4u1nF0dKQcOHDgIFZMaGDt7e0tXl9fT/Pz82NiKYdCoaiMjIygi4AiiUQiCtl7WEtLiyjOzWm8KIwVFRXvHDly5FMsdkAe8RG4dOmS8qFDh/R1dHQOkkikbHNz80R9fX1TNK0gLlEpjLW8/ra8skJfXlpq7+vrK6TRaPeys7MHhClXHvOCQJBHr4JNUk+gsLAwPD4h4YmaqupX+wEEbTR60TU1NaG9BSIZVPv7+9Xr6uocXV1dE42MjDJMTEw8X3WzpKinl5EY2dra2nzw4IFzZmbmqKAcIL1kCRQUFFjp6OhE2djYZOvr6weQSCSjl1sk6j4jjMW7L45C7eJwONzFxcXZxcXF6vb29g8zMjKqlZSUWMLUIS95QSDIiyfBDpki0NbW9jsPD4/3hPniWlpaWsrPz/e5cOHCiKiNHx4eJlRXV/u5ubsft7SwSCSRSDbq6upq+7H8sCN0yolEYgKcZRe1J8VXHtqvgMPh7AwNDdOdnJwyiESih5aWljavj0uTSHjdEgS6yry9re3PS0tLv4AbJnE4EAjie36gJiCwTaCkpETfzc2tysLCwl0YgdDQ0HArMDDwzH5/7XR2dmpTqdRINze3c87OzuEEAsFAVVUVU9THV3UBJpPJKigoyMzOzr4HXUQ+CHC5XOVbt255GhgYvOXj43NMR0fHSk1NTahYH+Igw1t+aG1t/Wx5efl7in7cFgSCOHod1AEEdhG4e/duSmpqah6KXoflq4r3FV9VVZUSGRlZJE64SCy0trYmOTk5fc/Hx8cPhetFpyWxCB3eGfbR0dF2KpV6MDs7my1OW6Au8RBAm2Jv3LgRbGBgcDEoKChJU1MTbYhVRjd+inOviyDWstlsXGtr68/9/f1/JUg+eUsLAkHePAr2SD2Bnp6eXCcnp1OooVgEAvrKQcsLJSUlB06dOjUvCYPRRUCenp7GdDo90cLC4m13d/dDO2Jhz81BgwOdTp9obGyMi4+P79xzRkgokwTQEsTa2hrR0tIyUF1d/Rve3t6xRCJRB8szsN8AOFwubnFxcfrJ48cRJ0+e7Nvv+qS1fBAI0uoZaJdcEqBQKKaenp6NKKQtVgPR182TJ0+uLS8vX5CGr250EZCSkpK9oaFhvJ6eHjoC54NHn4evEUC8Y42zs7MDnZ2dp6Kjo5uwsoB8skkA3UHS2dlp7OjoGK6pqXnKwcEhgnd6RloCMSEB+/Tp0/fCwsI+kE3KwrcaBILwDKEEILBnAnfv3r2YkpLyJxUVle0BFMsPBRQqLi4+mpaWJnX3FdTU1BBnZma8nJycUnWzZZ9FAAAgAElEQVR1dZNMTEycXt6vsLCwMD05OXl7eHj4f1NTU+FoGZZOIEd5Ojs71VpbWw84OzvHkkikTCsrq4MEAkFTGkwcGhp64ODgcEwa2iKJNoBAkAR1qFNhCQwODpbb2dlFYZlW5e09oNFo4x0dHU5RUVF/E1pZmsCizZhLS0sHra2tD2toaBDRzMHk5GTD5uZmc0ZGxggEqJEmb0lHW7hcrnpubq6vu7s7OmaboK+v76SmprZ9ekYSMwvT09ONZmZmgdJBR/ytAIEgfuZQo4ISKCoqsg4PD28hEokGWAQCwoYG2UePHv1vfHz89yFcrIJ2JAUxe2dDbKSHh8dJa2vrSC0tLRM1NTWRnZ7ZC0YQCA9MlZBKSEpKmt4LMEgDBIAANgI3btz4SXZ29q+VlZUxBbJH4mBjY2Pt3r17YTk5Oa3YWgG5gIDsEUBLV/39/Uk+Pj5vOzk5BaqpqaH4Cl9dS43lFM1eKIyMjFSgGb+9pJXHNDCDII9eBZukjgDawe3v799mY2PjjnX2AG1OnJmZaTM3N/eF2QOpczE0SAwEUJjnlJQUg8HBwVRHZ+d3PdzcDvGEAtbn6k3Nbm5u/qWfn9+/isE0qawCBIJUugUaJW8EKisrHQMDA9vV1dUxB4tBMwhPnjz5l7i4uH+XNz5gDxAQlACFQiEwmUwrPB6famFhcdLBwcFbWVlZhScUhBEM6FljMBhrBQUFUWfOnFHYUzYgEATtlZAeCAhIAH31eHl5/UdKSsqP8Xg8puUFVCWdTl+gUCghGRkZCnsuW0D0kFxBCFAoFO319XV3MzOzVAMDgzQrKytXYQXC8PDwk83NzSRFDv8NAkFBHiAwU3IErl+/rhMREfHcwsLCCstLi3d6YWRk5DGVSk2QhtgHkqMJNQOBNxMoLCyMOXbs2CNh9iWgZ45Kpf59QEDAh4rMGwSCInsfbBcLgfLy8sCIiIh6VBmWlxaa7uRyuVwKhXIxJibm/8TSaKgECMgmAaWWlpZfe3t7/wTLs8YzeWlpabGoqCjg7NmzCh2nAwSCbD4E0GoZIcDlcpWqq6t/Fxoa+kPUZCwzCEggLCwsTFVUVARlZ2ePyYjp0EwgIHYCRUVFhl5eXjVWVlbOWJ41XoNbW1vv+Pr65uz3RWhiByRghSAQBAQGyYGAIASuXr1qHBsb22piYmIuSL7daZFA6O3tverm5vYW1jIgHxBQBAL37t07lpycjPkCM95tjg0NDZnBwcF5isDsTTaCQFD0HgD27yuBysrKxLCwsPtKQnzOoJcWhUJJj46OLtjXxkLhQEDGCfT09FxzcnI6g3W2DuWbn5+fe/z4seepU6dmZByH0M0HgSA0QigACLyaAJfLVW5ra/vcy8vrrBD6AIUnHm5oaAjKyMiYBdaiI4CuIc7Pz3dlMBi+aL2ayWTitLW1G9LT0wcgDLToOIurJDKZbH3kyJE6AwMDzLN1KNZIRUXFJzQa7SJsBsbhQCCIq/dCPQpHIDc31yY2Nha9sMyEEQiNjY2/DwgIeA+CI4muC+Xl5QV7enr+xMjIKJxIJOqhktHO9ZWVlQU6nd4yMjJSSKPRHmZkZAwDd9Fx38+SHj58+G5sbOxfsEYqRW1js9mcysrKqKNHj1btZ1tlpWwQCLLiKWinzBGorKw8FxoaegXrJTO80wu1tbVh4eHhT2UOgJQ2+P79+0nBwcGf6unpGb9OuHE4HC6NRpuZn5+nTE9Pk5eXl+tSUlJmQSxIp1PRbN3IyMgTW1tbzGGRkUCcn5+fLCkpcTp37tyadFoq3laBQBAvb6hNQQig6euBgYE8e3v7FGQyliNXSCCMjo4OVFZW+l+4cIGuIOj21czHjx9b+/v7NxGJxG1x8AaB8FU7UJrJycmRFy9e3NvY2LizuLjYkZaWtgRiYV9dJVDhhYWFzpGRkXVoNgjrbB06SpyXl/fH58+f/+DSpUscgRogp4lBIMipY8EsyRL44osvXBITE5+SSCR9rC1BAqG4uPjfk5OT/wVrGZDvrwTQfRgkEulmbGzscaxc0MzC+Pj4UEdHxw0jI6Mb3d3dQxcuXNhEKxRYy4R8whMoKir6ZVJS0s9RSYIKBF4gso2NjfVHjx75p6WldQnfIvkoAQSCfPgRrJAyAmVlZT+NjIr6tbIS5sjKOBaLxaZSqZ7BwcHdUmaeTDYHRbTMysqaVlNT0xDGACTc0I/L5bJHR0cHGxoaPjYzM7sRFRX1QphyIS92ArOzsz2GhoaYYx8gkTAxMfHMysrKF3sr5C8nCAT58ylYJGECaHlhamqqztTU1F/Qr5ndTR8cHOytrq72uXDhwoaETZKL6quqqryCg4NbVFRU8KI0iMPhcLa2tlYmJiY6qFTqF4aGhnnR0dEKf0ROlIzfVFZ+fr5PQkJCHdaL0JA4QMsLRUVF/5KWlvYrcbVbFuoBgSALXoI2yhSBmzdv+icmJpYRiUQi1oajQefWrVs/y8nJ+S2sdWOl+PV8FRUVwaGhoTV4PF5ZNCV+vRQ00KBd8EtLS9MLCwvV7e3tZENDw6qoqKj5/agPytyexVEuLi7+U0JCwrewinHkN/rS0nx1VVVwamqqQodWfrlPgUCApwwIiJhAeXn5/0ZGRn4XFYvlpYVeWOvr68tNTU3uMG0tOucUFxcbxcTETKioqKiKrtS/loT8hvzNW9Nms9nsubm5IRqN9qC7u7vQzMysOTQ0dGU/6lbUMouLi3UCAgIGDAwMjLAyQP4aHh5+aG9vnwRi/OsUQSBg7VWQDwi8ggCXy1Wdn5/v0dfXtxfmeOPg4GClk5NTJEAWHYHi4mJ1BweHRicnJy/Rlfrmknamr9HMAnN8fLxjaWmJPDAwUGxvbz/o5+e3Lq52yGs95eXlRyMiItDNjZhnhdCsz8OHD7+RnJz8mbxywmoXCASs5CAfEHgFgdu3b4ckJyeXq6mpqWOdPeBwOOybN29++8yZM3Bzo4h72ZUrV47n5ORcV1FRweQfQZrz8owCb2aBw+Ewe3p6Gubn569vbGyUcrncqcTERHQSAn4CEKBQKCpcLjc3IiIiWwh9gJuZmRl79uxZUHx8/JQA1StEUhAICuFmMFIcBNAxOl1d3S9iYmKysdaHBhEajfZiZGTE18/PD9ausYJ8Q77qp0+/CA4MPInuxxBmYBGmaRwuFy2g47a2traeP39e19/ff9nMzKwoMjJyDaa590b2ypUrFmnp6V1EbW0drGIcPW+9vb2furm5vbO3WhUrFQgExfI3WLuPBPLz83VjYmLGtLS0MG9ORC+s/v5+srOz84l9bKpCF11aWqqlpqb2LyGHD/9ATVVVTRIweEcleQMbOtLKZDJX29raKoaGhj729PSkeHt7QzS/Nwm96uqcw4cPf4GeGSxCj7eptKCg4FhWVtZDSfQDaa8TBIK0ewjaJzMESkpKUqNjYvLwWN5WO1YymUxWYWHhiaysLIW/anY/HU+lUlWXlpY8iUTiWQsLizRTU1Pb3fUJ4UKhmo2EA5PJ3FpeXp4cHh4uHRwcvO7k5NTg5+fHFKpgOcuM9pOYmZnd9fHxScJqGpvDwY2Njj7v6+uLiI+Pp2EtR57zgUCQZ++CbWIjgAacjY2NW8HBwenCDC6Tk5N93d3dIdHR0Qtia7wCV8TlcpVu3LhhbGxsHGxmZpZlbGwcpa+vbyrMhT/C4OTtU+D9yWAw1peWlnpQmOfx8fF8W1vbbhALONzNmzddExMTG4Q5SowYt7S0/Lufnx9EKn1NpwWBIMzTDHmBwA4BdNVsbFxchw6RiHk9FBXV1dX1Bw8Pjx8AWMkQIJPJdvr6+rEODg6ZJBLpEAqV/fIUNpb1blFYs7y8vDQzM9NAo9Hu9vX1PT579uyYkpISWxRly1oZLS0tP/Tx8flvYXzBZDKZjx49Cj527FizrNkvrvaCQHgFaS6XqzIwMCDSaGvicqgo6tna2uK6u7tviaIsRSmjrq7urcDAwM+FWQ9lsVjMwsLC2KysrApF4SatdqIAPPn5+c4ETc2TfgcPphMIBHttbW3NL0NbYA+fLYy9vCOTqIyVlZX5wcHBss3NzVu9vb1158+fn1MUsVBbW6thbGz8xN7ePkQYX3R1dTXNzs4eiYqKWhXGL/KcFwQC7wuws1PNeG7Oe3l5OUNfX99JTU1NV1F3E3O5XObc3Fwf+qDV0NCo6e/vH3733XcZisqD3wugs7NTjc1mF3h6eibwS/u6f0cv/6GhoZbp6elICKaDleL+5UPhfAkEwtv+/v6pOjo6Zng8XpU3OAkzSImixTQabb6tre0Bh8O5Mjo6Sh0fH1+T59sIb9y4EZKamvqEQCBoYGHPZrO3NzWWl5d/Pzo6+n9E4QN5LQMEAg6He/LkiYment7nXl5eMUpKSnisAW7kqZPsnOHmopC/s7OzE9XV1Z85OTn9wdfXF64dfsnRn376qduJEyeaNDU10Rcmph/anNbW1vazgwcP/gZTAZBp3wmg/Qp1dXWEubk5fzU1tXeDg4OTiUSijjB7TkTRaN6JCA6Xy1mi0+cqKyvvEgiEvyQmJj6XR1Hf1tb2e09Pz+9jEQeIN+KFYo3cu3fPITMzc1QUPpDXMhReIJSUlJi5uroWWVlZHZTY3KEM9C50ze3a2tosEgqampq/gmm5vzqttbX1R15eXr8VZqBAO9cLCgr8srOzO2SgOyh8E9GFXB999JGes7NzsIaGxlkXF5cYIpGouxsM1gFMWLhI3G9sbDAWFxeHW1tb72xtbd1sb2/vlYdZhc7OTm09Pb1GMzMzV6yckECgUqlVCwsLsRCg6s0UFVogoHXG7u7uu07Ozql4ZWXJLCxi7eUSyIdePEgozMzMPG9vb/+7+Pj4WiUlpS/vvlXQ38566GM7O7vDwgiEjo6OitHR0aTk5GQIvytjfQmdYOno6LBwcXeJ1CXqnrC0tDyMYmFISiDwvpJ590KsrKws0un09s7OzttbW1sP0tPTR2QM8VfNvXHjRkp6evptdXV1zPErmEwmu6Cg4HR2dvYtWeUgrnYrtEC4e/fuwdjY2EpNTU1tYV7u4nKWNNTDO35Fp9MXOzs7vx8aGnpdkUXCjRs3wtLS0krV1dUxrYfyeFZXV38jIiLiE2nwMbQBOwG0H4VKpbq4urommpiYZBgbG3vw+sbu0Mv7LR54dSFLeH0M/XVhYWFmcXGxrL+/P39tbe1pVlbWjCwtQ6AbMt3d3bOwvq8Ri7W1tUUqlWofFRUFy6V8urpCC4SbN2++n5WV9a+IEdYOh/1VIts50UYfBoOx3NLS8l0KhXJdHqYvsXiktbX1Ax8fH8zHEnmBccrKypySkpJgPRSLE6Q0D5VK1ezt7fVzdnY+bmFhEaenp2erpqamhvWkiyjM3JkF3C5qenp6cGFh4f7CwkL+1NRU++nTpxdFUcd+ldHQ0GDg4uLyXFtbG8WpELga9KwhYdbU1FT48OHDDEV9ZwkCTmEFAtpw1NDQUBIQEBCLgO23ohfEKbKQlnfkanV1dammpiYlKSmpShbaLco2trW1aRkbGzeZmpq67v5iE6QO9NJqbm6u0NLSioOjpYKQk620qK+0tbUdcXNzO+fk5BSuqampj8fjVcRtxa7ZhK9mFrhcLmdsbGxgeHiYrKSkdIfJZA7ExsauS9vMQm5u7jvZ2dmXlZWVMQUrRbZvbW1tksnkjHPnzhWLm70s1qewAuHSpUvKqamp5T4+PhGy6DhpaTMa4BYWFgZwOJyvsbGxQp0nvnbtWhIKiSzsemheXl7OyZMnb0uLT9Gz4ebmpnLgwAESh8NZu3///tYvfvELtrQNGNLCS9B2zM7OahcXFyd7enp+28PDwx+Px6ObJbf3QGH5Mha0/tel552GGBwc7G1vb79saWn5SVBQ0LKoyhemHNQnT5w8WeXi7HwYazlIICwtLQ1PTk66gBjfG0WFFQhoBqGwsPDPqampF/eGClK9igB6qXC5XC6VSs0rKSnJVqRpO2HXQxHPdQaD3tjQYCUtp0LIZHKwnZ3dP7u7uwcrKyujgYuNZomam5sfLCwsfG5qatocFRXFgqdBeAJoc+PCwoIpi8VKsrKyOu/m5uaHx+MlFqCNt/yAtMrO8ebempqab544ceKp8NYKV0JLS4u5q6trH4FA0MJaErKvtrb2T6Ghod/BWoai5VNYgYAcfe3atR+ePn36v9HfYYlBuK6Pjundv3//W+np6Z8rwpdmdXW1nru7e4eurq4Flr7Dm+qtr68vfPTokcTXQ9FgtcZg/NshX99va2lpkXb3ht33AqysrAx1dHQULi4uftHV1dWjSIJQuCfkzbmLioo0mUymjbGx8TFTU9MT1tbWXioqKqq7l66w9DNh2oyupKYvLk5WVFQkZ2ZmtghTlpB5lW7duvVeZmbmf+HxeMynzVZXV1fv378fnZOT0yBkexQmu0ILhI8//vg758+f/190MYu4Hz5562FoJmFlZQVtWgw/cuRIm7zZ97I9169fP5Odnf2ZioqKCpa+w1sPLSgoSD958qREr5pFs2klJSU/PXLkyPt4FRVV/EsbwHaH+N3hwEW+ptPpLWjdmk6nl6SlpaF7ART6yKuo+nxxcbEOk8v0sbe2TyGRSInm5ubOyl++pERVxZ7KQRuRUZ1DQ0O1L168iJDUzNHVq1e1AgMDGx0dHd2EYTAxMdHY3t4eDrEP9uT+7UQKLRCuX79+ODMz84m6ujpBmI63d9zyn7Kvr6+2r68vNTk5eV5erUXroWlpaU+8vb2jsNqIBl0ajTbAYDC8rKysGFjLEUW+hw8f2oaHhz/T1NT82szBXspGdswvLEzTFhaqZmdnyYODg08vXLgwvZe8kIY/gdraWv3p6ekwNze3bAMDg3CSrq6Zys4yhLjeWZtbW5sVFEpIfHy8RGYRnjx54hUZGdmq9KVK4g/tpRS8vRVNTU3/FBQU9GuBC1DgDAotEIqKihyPHDnSoqGhoS2uh03e+xp6GNvb23/b2Nj4zxcvXpTLO+zr6+tNfHx8BtTV1bWF8WdjY+NfAgMDvy1MGcLmRbMHZDL5V8ePH/8Zlg1yvJcvagfaizI/P/9iaGTk3tbGxq2JiYnn/f39S7AMIayXvsyPor6ura2l+Pj4nDA0NPTW1tbWE8e11Ggm4datW++fPn36kmgs2XspqH9WVFT8MiIi4p9RLizv6Z3NiYuFhYVh58+f79x77ZBSoQUChUKx9fX1bdPR0cF0RS90n78lgAYMNpvNKi8vPx0fH4925nPljVNubu73Tp48+Xv0QYPVtvX19bXbt2/HnT9/XqIbwD777DPCwYMHGzw9Pb2wvHxfZz96KY+Pj492dXWR1dXVc0dHR3svXLiwgZUX5Ps6gbKyMpvZ2dmTQUFBp83MzBxVVVXVd980KWpfFhYWftjW1vZdcYs9MpmsHxAQ0GBjY3MAax9AfXFgYOC+o6NjmqLceImV1cv5FFogoFDLS0tLAzo6OnaifKBE5RxZLIe3E5pGo6ELnsIzMzOHZNGO17WZTCZruLq61ru5uXkJoQ9wk5OTLXQ6PVjSx62QQAgJCWlxdHR0FeUzwAtKs7N/gTU6NjZUX1d3xdbWNjckJATtV5A74SiJfk4mk/EkEslxbW3t7YCAgJOmpqZWqF+K0pfIh2iW6eTJkz8Xt42VlZVHQkNDy4R51tAMSH19/enQ0NAvxN1+Wa9PoQUCct7CwsKgnp6evSgfKFnvFKJoP5puHh0drbS1tY1XUlLaFEWZ0lAGhUJxCQsL68S6aYy34a+xsfFfgoOD/13SNu3MIDR6enp67vczgPrExsbG6tTUVAeVSr1FJBLzEhMTX0iagTzUj/bFHDhwQNvCwsJNWVk5x9nZOdPY2NgcTdHvnprH4mMmk8nJy8s7d/LkyVxxs3r27Nmfvby8voWl3by2zs3PTz0qLQ04c+YM9DUBHajwAmF0dPSplZVViDAdUEDmCpEcDYQsFotVW1v7QWRk5E/kxeiysrKfRkRE/Br1FyxfNYjLysrKUlFRUdiZM2ckfnMjGkDu3Lnzq8zMzJ+K6yjPznW7nOXl5dm5ubmnHR0dtywsLMpCQkJo8tJPJGkH8um1a9eMbGxs/HR1dU9aWlrG6OrqmqI2YemzdDp9rru720Xc/iGTyRbh4eFPjY2NbYR5P1Op1E/8/PzehVM2gvdKhRcI3d3dN5ycnE5ieXAEx604OXhn59EX4/3797Oys7NLZN16MplM8jl4sMrRwcELa2jlnfXQUiaTmSLp5QWeP0pKSg6Eh4e3EAgE4u6vzf3y1+5wv6gONofDnp2ZGaTT6aU9PT339PX1qXCRjmjoo2XUa9eu2VhZWUVYWltnGBsaHtbW1tZ/ecDd/d88/6D/x2QymU+ePPl5QkLCb8W9LEShUM6Eh4dfRcIVi0DYnq3D4XA11dVxERERj0RDVLFKUXiB0NDQcN3f3/80lg6oWF0Fu7XT09Mvenp6gqOiomR6iq+4uDgoJiamRkVFBXO0O/TSam5ufsff3/9T7ERFmxN9cVZWVv4hODj475FtkhLLaGYBzTqh0w90Ov3uyMhIkbW1db+fnx9cgS0Cl3O5XPzdu3cdSSRSmqura4aOjo6rtra2Nk/s8t6BvGUwdG9BZ2fn5ZWVlffEHQMBCZvBwcHb9vb2GVhFK7JjZmbmxb1793wvXrwot8euRdA1XluEwguEgoKCH6WkpCB1vJ+cFbps9OKvr6+/t7q6eiouLm5NFmGgQbSlpeU3vr6+Pxamr9Dp9PmCggL/CxcujEgTBxRJkcvlXvb09DyJricWZ9t4A9T2BlcuF4eexO2vVxZrq7evr3VuZuYKg8EoVVZWnoAgN6LxDBILN2/e9DM1NT3j4eGRqK2tbYbH41XRpzoSBkvLy8P1dXUfpKenoy94sYfWzsvLc4qMjKzR1dU1Qv0Ci2hF753S0tI/NDY2vifu0xei8ZLkS1F4gXDjxo2zJ06cQA+B5L0hpy3gnWyora39Xnh4+P+TxaOPJSUl+uj0gpWVlaMwfaWpqenWyMjI6ezsbLa0uRuJoOvXryf7+fldcnR09MLhcNuzCcLYK6yNvL7D5XLZbW1ttYODg3+2srIqDQ4OXhT3lLewtkhrfiQOp6amHGg0mjOHw9GysLBootPpQ5Lso48fP/7p0aNHt/f6YP2xWCx2fX39obCwMLmP7IqVEb98Ci8Q/vznP5985513vlBVVcXeE/lRVvB/3xXLf7WsrCwmJSWlXtaQPHjw4FhcXFyhktJ2PDfMzUdXY4eFhRVhLkAMGYuLi9U1NDTs1tfXj7u4uJy1tbV1FEdAnleZtvu4JPp3tF9hc2Njpbe3twZNf8fExJSbm5vDEoQY+oW4qkDLCxMTE0/Nzc2DhBEIIyMjw01NTe7Z2dkSjVQqLm77UY/CC4SbN286JSYmNhCJRN39AAxl/pUAOo/84sWLlra2tsTU1NQZWWLT3d39qbOz8wXUZiwvLTTQ0Wi0ucePH3ueOnVKVmxXKi4uJhIIBFctLa1Mc3PzNFMzswPbN5fsfNlhYSEKv+/cZbG1vr4+PTg4+Linp+eWq6vrU9ivIAq6ki3j5s2b/omJiWXa2tpErP0LHaklk8m/PHHixCWYacLuT4UXCA8ePLAJDg5u0dPT08eOEXLuhQB6qbPZbG5vb+9Vd3f3d2QlqllRUZFFYGBgvYGBgSWyE8sMAhIIFRUVnx85cuQbsmL3bp+i5Yfbt28b6uvrB5qammYaGRlF6xsYWKgIcbveXvrM69LsDvGM0mxtbW0sLCx0T01N3evq6ir08/PrlJZTIsLYqYh5yyiUP0aGh38HiQOsAoHBYKxUVlZ6JSQkSNVeH1nzp8ILhIaGBgMbGxuqiYmJraw5T1bby2AwGDU1Nd+LjY39WBZsKCoqupCQkPAxHo/HvLbAYrE4VVVVUUePHq2SBZvf1EYkFvLy8iwIBEI0ukSIRCL5k0gkg/0K9Ssor9XV1ZXJ6WkqnUYjDw8Plx84cGDYz89PLu8FEZSNtKdH+yGsra17DQwMtqPbCioQeCcwRkZGah0cHA5Lu73S3j6FFwjIQdPT0w0mJiYB0u4seWkf+vpbWlqarq2tjTl27NhzabYLDYbDw8Mltra2sYK+rHbbNT8/P/3w4cMD586dk8lTHK/zEeJz4+4NZ0MdwwxXV9c0XV1dtBwh0cvPeKchcFwubnV1dWloaKhsY2Pj+uDgYL2lpeWcuI/sSXP/lra23bp1KzwtLe3Rzt0SmAQCh8PhkMnk7546depDabNP1toDAgGHw42MjNTb2NgEyprzZL29AwMDba2trcHSvIkIXejl4+ND1dXVRV/ImH5owLqbf/fDzo5OsV92g6nBGDOhewHU1NTc2Fz22xFhERlEItEUj8eroSWZ3UcZsSzRYGzS17LR6XR6U1NTiYqKysfz8/PUrq6uFTj+Jgqyoilj516JG7GxsVlYS0T9jEajTQ0MDPgGBQXJyl4frObuez4QCDgcrqen5/+cnZ2/se+0oYKvEeBwONz79+//JSUl5bvSui5/+/btn6Snp/8Gj8ccGwm3ubnJqKysDIiLi5Pq2RIRdk+ly5cvq5ibm/vh8fhvBgYGpuvq6n61CVhSAoF3mobL5XIWFxcXGhoa7jIYjI8yMzOfwUY2EXofY1G5ubl6GRkZYwQCAfM16sjHKMCSo6NjNsZmQLZdBEAg4HC4zs7O37m5ub0HPUO8BHiR8yorK7NjY2PzxVv73mobHR1ttrKyOohSY1li2Inm1mlqaoquU+bsrVb5SYW+Clkslp6lpeUhZWXlc56englEIlEPWfhyBD9xWL07RDb6OxJvy8vLY01NTQUsFuvq1tZWryTP/4uDgbTWUVpamnb06NE8vBAbX1Hsg4KCguysrKw8abVTltoFAgGHQ1H+3g8MDPxXWXKcPLSVFwSHRqO9aGpqOpqUlNQnTXbduXPHJTExkQz/BNwAACAASURBVEogELSwigN03Kq4uPjfkpOTL0mTbZJoC4re98knn1i6urqGoUuELCwswohEoo6kZhR4IoX3J7pEi06nPxsYGMhfWloqysjIGIaZBfH0lM7OTrWl5eW7gQEBx7D0B97s0PT0dO/IyEiIuC+WEg8l8dcCAgGHwxUWFmakpKTcFT9+xa6R91CjmYS+vr7CmZmZM1FRUavSQAVtvsvPz/+vtLQ0NLOE+bKY5eVlWmVlZUhqamqvNNglLW1AA0JbW5ujvb19jJmZ2XFDQ0NvDQ2Nr00tYxFlWOzbtfSwfYSVw+VyaQsLM3Q6vXpkZKRgeXmZkpGRMQ1iAQvdveXJz893iI+P70BhvrH4nefDrq6uDzw8PGA2eG/Y+aYCgYDD4a5fv56Qk5NTjEW58iUMCfgS2ImPwKZSqb8oLS39tTRsHLt69apWdHR0j5mZ2XbsAyw/ZNf4+HiZjY1NNJb8ipIHiQUqlerj5uaWY2lpGU8ikezU1dXVkf2SeiZ5x+XQSsj0zMz47MzM/YWFhTs0Gq0tKysLwjyLuHPW1dV9Mygo6COsxSJ/MZnMrXv37kVnZWVVYy0H8n2dAAgEHA730UcfhZw9e7ZMXV2dgEW9QqcSjgBP/a+sri5VV1WdOHbsWKlwJQqfm0KhBIWFhT0VJvYB2oRZWlr6vcTERHT/BPz2QKCtrU2ro6PjsKOj4zk3N7ejBALBUEVFRQVl3b1/YA9FCZWE1yd314s2N7548WJoaGjolpqa2p2JiYmB7OxsqZjxEspYCWeura3VIJFID93c3CKwNgXNQg4ODjYwGIyj3t7ecnWUGCsTUeQDgYDD4RCEwMDAFn19fTMQCKLoVtjKQC/lqamp/vHx8TBJHlG6dOmSckBAwP/Ex8dvR3MT9McbXGg02kRbW1vg0aNHJwQtA9LjcFQqVbO7uzvWycnpe97e3sF4PF6ddyeEpGYWkF/QYIT2loyNjY00NTX9n4WFRe7k5OQEbG7E1muvXbvmnZWV1aiurq6GrYQvxWNLS8t7fn5+H2AtA/L9LQEQCDsC4eDBgy0mJiYgECT4lOxsWuR2d3c/8PDwSJHUmu/Vq1eN4+LiOgwNDY2xDES8L93+/v5cR0fHs5KyQ4KuFGnVFApFhcPhmDAYjHgzM7Pznp6eQaqqqtuzCuL+7d6vsPN3LovFYoyOjj5vbm6+YmxsfDc6OhrO3wvgmGfPnv2rl5fX+1jEOK8aJpO5SSaTD545c6ZLgKohKR8CIBBwONzw8DABh8OVW1tbB2MZEKCXiZYAi8Vi3rt378cZGRn/I4nBtba2Ni44OLgEq1U8ofP48ePjCQkJcNwKK8hX5EPT0bOzs3ampqaxJBLppIODw0E8Hq/KG1wQe0k9wyic9vr6+vzU1BSVSqVetbCwKIuKipoXoflyV1RNTQ3R3NycYmNjg47BCmwfb69IW1tbmZ6e3jE7O7sNgQuBDK8lAAJhB01fX9+DAwcOJAqjYqGfiY4ACpFbU1MTk5CQ0CS6UvmXhI7iNbe0fHzo4MHz/FO/PsXExER/c3NzmKzdWimMzeLOi/YrDAwMeDo4OKTq6emlmJmZOeHxeBUsA40o2r5rY+P2tdS0hYWxhYWF0q6urju6urrUmJiYJVHUI09l5OXlxSQmJj5QVVVVxeI33oxOdXX1WxEREVfliY002AICYccLHR0d+e7u7mkgEKShW365pjg4ONgyNDSUEBcXNyuuVt24ccMqOjq60dDQ0BRrnajt7e3tH3h7e/9IEjMgWNsty/lKSkr0V1dXD3t4eaXr6ugcMTA0tFJWUkI3U2+bJcmZha2tra2ZmZme+fn5e52dnfnGxsa9cXFxsJHuyyB1l93c3N7F2vfQfpCtrS1GaWmpc1pa2jjWciDfqwmAQNjh0tbW9s+enp7/DgJBOh4V3tdYS0vLn+bm5t5LTEzcFEfLnj59ej4oKOgzLF8zvPahy2LKysqOxMbGVoqjzVDH1wlQqVTDoaGhY76+vtnGxsYBmpqaeug0iqSebV5fRvWjo3iDg4PUxcXF3Kmpqcfe3t5jjo6OYunb0tZPqqqqjJycnJpMTExssLYNCYS6uroHBAIhHW7sxErx9flAIOywaWlp+aGPj89/S+olInrXykeJTCaThQbtqKio3P22CIUF9vHxyTtw4ADaIClwdbzpzpGRke62traQ9PR0usCFQAaREqBQKJYzMzPZgYGBZ83MzFzQLYEo6hVvIykWP4uigah+FOb5+fPntVNTU1c2NjZKjIyMFhXppskbN26cOn78+FUVFRXMF52wWCxWYWFh6vHjx4tF4Rco4+sEQCDs8ECDUHBw8GeSemFAx3w1AfSFQKPRpsvKyuJPnjzZtp+crl+/7nbs2LEaHR0dPSz9gCcQKioqfnHkyJF/28+2QtmCEUDiz9LS0m58fPxcQEDAWWtraxskFLD4WbCaX516d5wFFC9jc2uL0UylVkxMTHwYFBRUpgib7fr6+kocHBzihJmtW11dnevo6LAJCQlhiMIvUAYIhFf2gTt37gSmp6fXC9NZoXPtH4GBwcHKrc3NY+7u7vsWmKa+vv6nAQEBv8Y6aOx8lXIrKiq8oqKiFOXmxv1z+j6UjEJof/rpp9q2trauysrK2Y6OjplmZma2vKqQ7yW5X4HJZDLX19dnnz9//mR0dPRKSEhInTyKhUePHpkHBAS0E4lEA6zvXOSnckr59aNHjp6DvT778LDshABQQtMISUlJ0/tThWyU+tlnn/mfO3euEWtnlQ0rZbeVTCaT3dzc/L9BQUHv7cfLgMvlqr548aLC0tIyBCslNNsxMDDQ2dfXF5CcnLyOtRzIJx4CKCDWoUOH9HV0dA4SSaRsS3PzRH19fVM0rSCp98DuOAtoCWJpaWloeHi4aHh4+I6zs3O7vKyz37x584eZmZm/xbo3hLdEU1BQEJeTkwOhlffpkYElhh2wn332mW1GRgZVR0fHYJ9YQ7FCENh5IawODw9/qKSkJPDgOzs7O8/hcC6/bo335s2bQYmJiY+JRCLmu+hZLBY3Ly/vH0+cOIGiuXGFMBeySoBAQUGBlY6OTpSVtVWmoYFhMIlEMkLN4M0q8P6+n03jCYTdpy9QfWtrayvz8/PN09PT9wYGBorPnDkzoKSkxN7PtuxX2Wi5x9/fn2pjY+ODlSniNDMzg65R91VSUmLuV1sVvVwQCDs9gEwm6x8+fLjF3Nwc845aRe9M+2k/b1PZ7rXbvdaHvuxLSkour6+v//3rwuFWV1f/4fDhw/+AdXkBtWVzc3OVSqU6h4aGTu61bZBO+gigAQyHw9np6+tnuLi4pBOJRA8tLS1t3qyCMH1EGGtRP0Y/dEPoxMREOZ1OvzM4OFijoaExLUthnsvLy52Dg4OfEQgEFKAO0w+xqKmp+c+IiIifYioAMu2JAAiEHUwUCkXX2tq6yd7e/sCeyEEisRPgiQRBK0ZHyx5XVBxOio2lviovuk3QyMiow8DQ0EkZw+kFXpnd3d11rq6uoUpKSl++yeEn8wS4XK7yrVu3PA0MDN7y8fE5RiQSrdClbjzDsPZJLGDQoPiyOKHT6XPPnz9/wOFwvpidnW3OysqiS3P/Q3tA7t69+x/p6ek/4d2rgYXF8vLy0v379yNPnz79DEt+yLM3AiAQdjihjtve3p7r5eWVszd0kEpWCMzNzY18+OGHjpcuXWK9qs3Xr18/mpmZ+UBNTQ1dBiSwWejFjWIfXLt27eLbb7/9scAFiDgD6ssdHR26IyMjBzY2NuzV1dVfGBsbT4yPj4/L0pemiLEIXRyKspmbmxtkZGT0zYCAgBRtbW3Sl9sVlCW6sZEnHBYWFuZra2tvqaqqftLY2Njxuv4uNAghCrh+/bpOWFhYt6WlpTmWZ41X9ejoaIWNjc2R/diPJIR5cpcVBMIulzY0NFwJCAg4J3deVnCDCgoKPkhPT//Rq/YFoMH06dOnN0JCQk5g3b2O8i0vL88MDAx4+Pn5STT2fk9PD/HFixe/CwgIyCIQCNpoAEM3D3I4HCYK/0ylUq/p6ureiouLg6hzGJ8LNKtw+/Ztop6eXpC6uvo73t7ecUQiUUdSSw+7AzEhscBisbZoNNr406dPPzU0NPwwKipKauJx1NTUBAUFBdUhcSAMr/Ly8u8dPXr0jxhdCNn2SAAEwi5QT58+/V1ISMh7e2QHyaScAHpZrq+vrzx+/DgkIyPjlccOS0tLtYKCg4d1iMTtDWlYfqie7u7uOx4eHllY8osqD1rbdXZ2LjAxMXHG4/GvjPSENlKur6/T5ubnnz1ra/uCqKV1X5yhrEVlq7SUQ6VSVTs7O40dHR0jtLS0TtrZ2UVqa2sTJR2ICfFBs1qTk5Ntz549+15ycnKNpJmhUyORkZF/CAsL+y5qC5YZBMR1YWFhuq6uLiQlJWVY0jbJe/0gEHZ5uK6u7nRQUNB1eXe6otiHXiYTExMN6Oji69Zl79y5k5aSknJbmOuDNzc3mfn5+SdycnLyJcU2Pz9f19nZ+Y6Tk9NR1AY8/tXB6Xgb3XYGEPbi4uLk4uJieUdHB1lbW7s+Pj6eJikbZL1etJelo6PDAQX/IZFImVZWVgcJBIKmJO1is9m42dnZ/tra2pTjx4/3SLItZDLZNCIigmpkZGQhzGxdX1/fF87Ozugaddjrs88OBYHwdYFwIigo6OY+M4fixUSAzWZzS0tLf5SUlISOHf7Nj0wmq5mamhaGhobGCzPdOTMz09/d3R0gyancurq6twICAj7H8lWGwKCQtWgJgr5Mvzc+Ol6ora3dERUVtW9BqcTUBSRWDZfLVc/NzfV1dXXNMDExSTA0NHRSU1NTQw3COjgKY0xPT0+ui4sLCigksUG1srIyIyws7K4wzxqbzebU1tZmhoeHFwjDA/LujQAIhF2cqqqqIsLCwir2hg5SSTsBtMO7vLw8KDMzc+hVbS0qKrKIjo4eQLvShXlpdXZ2/snDw+M7kuKBjuW5u7vnubq6YrpDgjdo8Y6QotsHx8bG2mk02u3x8fFCS0vLMQhli927nZ2d2q2trZEeHh4nrK2to7S1tU2EmbHC0hI6nb5QVVV1ODU1tRdLfmHzoD7q4uJyzcPDI0eYZ216enqYQqEEnzp1akbYNkF+/gRAIOxilJuba3/q1KlB/tgghbQTQIPd8PDwfQcHh+TXtbWiouJsWFjYVfTCwvLSQtP16Ajl7du3486ePSsxYUkmk41CQkJQDA9LLHa8jg+yj81mszs7Oxump6evaGlpFXV3d89fvHgRAtNgfACQWGhsbDzm4+PztpOTU4CamhoRHYNAfkO8X7c0hLG6r7Khsm/fvv3WyZMnrwpbFpb86N0aHx/foKenZyhMH21oaPifoKCg72NpA+QRnAAIhF3MPvzwQ/tvfetbKEKZ4Ff5Cc4ecuwTAd6u7pKSknNJSUnXXlUNhUIh6Ojo3Pfx8dles8cyNY/qGRkZaVpZWYny9vZe2ydz+BaLBEJoaGiLiYmJJRY73iQQ0L+hxwEt17DZ7I22trb6np6eD2NiYorNzc0FjmjJ1xgFSYA27KWkpBgMDg6mOjo7v+vh5naId2RyPxAggZCXl/etrKysy/tRPr8ya2pqLgYHB/8FqxhH5aPnraqqKiQyMrKOX33w76IhAAJhF8crV64YJCQkPDc0NETx2EVDGEoROwH0MpydnR1ra2sLio+Pn3pVA8hksnNycnIrgUDQwNpAVE9HR8fPfHx8foO1DFHkQ1+laurqFfZ2dodEKRBe1za0X2FjY2Oxv7+/sre393NHR0eKn58fiAWMzkRilU6nW+jp6aWYmpqesre391FRUVHhFSeKExGor5LJ5HM5OTmvFMwYm76nbBQKRcXGxuahnZ1d9J4yvCIRav/o6Cg6puufnZ29hLUcyCcYARAIu3iRyWTtgwcPttjZ2TmK40UrmKsg9V4JoBdqV1fX/7m7u198XSCVpqam7x86dOj3wghBBoPBuHfvXvB+X0O9F7ufPXv2n15eXj8Wxp691MNLwwvOs7m5ubm8vDzy4sWLx93d3bmnT59uhtj4gpD8eloKhaK9urrqZmFhkaavr59ibmHhgldW3j6SIsw7aW1tbb2goCD2zJkzT7G3DltOMpnsEx8fX0EkEknYStg+sol79OjR+/Hx8e9DcCSsFAXPBwJhF7OioiJNa2vrak9Pz4PietEK7jLIwY8Ah8Nhl5aWJiYmJj56VVoU+8De3v6xg4NDsDB+7uzsrFheXk6Uhg18xcXFvocPH6bwXsLC2MWP78v/ztvcyGAw1ubm5p7Nz88XdXV1PXBzc+uVl9sHBWUiivQlJSX6Gxsb/o6Ojtn6+vpHjYyMrNDth7svdOIX6pn372NjYzVDQ0MxUVFRG6JomyBl1NXV/SYwMPAnwvRJJovFelpT4xkVFSXRo5qC2C0PaUEg7PIiipBWXl7+cWRk5AVh1Lo8dAxZtmFsbKy3ubn5cEZGxsKr7CCTycHJycnlwp5eqK+v/2ZwcLDEQysjG3f67g/DwsL+E21626/Nbvz6BfrSQ4MSg8FYGh0drV5bW7s9MDBQ6ezsPAligR+91/87elFvbW3Fe3l5Zenr6/sRiUS02W87zPObfiw2G7e2ujpfWVl5NjU1tQR7C7DlRLEh9PX1qSYmJp7CCISBgYGO/v5+/8TExE1sLYFcWAiAQHiJ2v379z9ITEz8gTCdGYsjII/oCKAvlpCQkJ+9rsRnz5792svLa/sWOKx+3tzcZOTn57vl5OSMiK7lwpWEovoNDw//KC4u7sfa2tq6WG0TphW8r9uvbt/E4XCrKyv0rq6uRwwG4+r09HRDTk7OoqxeVSwMG1HlLS0ttVpdXc308/M7Z2Bg4KSpqan5uo3Vy8vLC42NjRdjYmLuiqp+QcrJzc2NSk9Pf4D2+mDtjzv3nPzo/PnzvxekbkgrPAEQCC8xvHv37qW09PRfCHOr35vcwlu7fdXUIO/lyu+r4FW3uvHrCjtlc/ml4/37Tvv2nH7nK3bPA66gwWJQRDgU5EUJxXB/hRG7r4F+8uRJUFxcXPOrbKVSqSRjY+M6KysrV37Ts69jhfLV19eXkkikFHd39629MhVXukePHjlubW39KCgoKF1HR8cATUvv9zG6vdiGuC0uLi41NjbeY7FYf2YwGOj2QSasKe+F3t+mQfeIlJWV2c3Nzb0bERFx0tjY2ALNKuy8H5iNjY0VNBrtB8eOHevGVoPwuWrr668GBgScRc8sFoGA+szq2tri8tKSo6Wl5StnBIVvJZTwOgIgEF4iU1paGhMdHV3Cd+4OY5/a2NjYGh4e7h0bG6tksVhfO0/OYr3yssFX1rRzAQ86WrenyGh4PJ6ppqaGjnAiQf7GIxrKyspcZWVlBrp6XhAzd2283lM2QdIrKSmtqqurL7LweGX1N5TOZDLZb7q1MDc3NzErK6tARUVFFRWD5aXF4XC4T548yY6Li7uzJ0MlkAgtOeTm5mobGxv7q6qqnvfy8jqmr6+vK4GmfFUl7/gp+h9sNnuLTqdPNjY25rNYrM9SU1Ofg1DA5h0kFD766CMNFxcXEy6Xa8lkMpmzs7O95ubmK1FRUXt/qWCr/rW5uFwuYWl5eZiorW3K76PnVYXw+kt/f3+5i4vL9nFk+ImXAAiEl3iXlZWFR0ZGUkQtEJhMJquzszN3enr6A2Vl5cHY2Nh1eCGKt7Oj2jo7O6+5urqewSIMeK1dXV1FF0DZvW6Pg/itenON6JjZ9PS0sbW1dQiBQMg6cOBAjLa2tp40zCqgr92NjY3VpaWlvmfPnhVsbGzcYrFYg3AttbT1IsHbk5ubm5qdnX2bJ8YFLQEJBPTevHPnzjunT5+WSIAnQdssb+lBILzk0crKSs/Dhw+34kW4y4vN/v/t3QdUVUmeP3CSBEFQRJKigkQJIpJBkgEEkSCigKAY2umZ3Z6entmZnd4J7s5O2OmZ6Z3w32kD0oCKgmQEARWVHARJkkQUA4igRCW//ynbN6M2yn333sd7cL+c0+f0OVb9qupTxXs/bqianCgrK/vZ2NjYn0XxFPF8W7R0x5Ofn69mYWFRpaqqqkM3Bql37dq1lKdPn+6ai19iJFm4d++eromJyRZVVVVyToCdsrKyEhMPunXffF5BguxmKSEh0d/f39vX11fe0tJyYWhoKHfnzp0P6cZHPdEJkHWmoKCQZWdnt4VuL8j6ePbsWUdbW5uVnZ0dbi/QhWRQDwnCO3hnzpxZsnv37ifS0tKvLkEz/SG3DcrLy0/39/cfwhO4TDWZ1T979uy+oKCgk3T2wed/mZGtlZOSkraHhobmMeuN6GuTJ8xv3bplbmRk5K+lpeWjoqJirKCg8OphsikeT0J6hifkhTUCYk1u4/T29nb29vbmPX78+MKzZ8/Kdu3a1YOrbsJSZzfujRs3tGxtbdvk5ORob0RG1kF9ff3XFhYWkez2DtGoCiBBeEfq2LFjKgcOHOiWkZF5dfIa05/R0dGxoqKitZs2bcIZD0wxGdZvbm7O09fX30x3u1dyOby/v/9BZ2envjg+nMiEp7W1Va6wsNDBzMwsQk9PjxwotFxWVpaVJFnQfvHvPZN54v9/V1dX26NHj5KHh4fTRkZG6ry9vQV6PkbQPqA8M4Hs7OyDW7ZsOSEtLU17S1pyaFhSUpJfaGjorL+eyWz086c2EoR35jIhIUHB0dGxcfny5avYmObm5ub62traDcHBwWL3tDsb45srMaqqqpYZGRk1L1y4cAmdPvO/qIqKik64uLh8RCfGXKlDtm6uqqryNDQ0PGBhYeEkLS29iL9BD3nYTNA3UNgcNznut6Ojo7WhoSFBTU0t/vnz53e3bds2hisLbCozi1VcXEwuROVaWFg40304kfSgo6OjZnh42NnU1BTHjjObEtq1kSB8+wrCAhcXl1JjY2Mr2qpvVExNTT3t7++/T5TnsLMxjrkeIyYm5vvh4eF/Iq+B0RkL+VJ88eLFi4yMjC0hISHFdGLMtTrkQKGwsDClioqKAAMDg8MWFha2UlJSC8jjOUwe8mTiwL/V83pDpsm7d+82V1dXR2loaJx1d3fvYhIbddkRuHDhgvGOHTvqyXNcdBMEcourvq7uV5aWlr9gp1eIQkcACcI7auThmoULF163tbV1pAP6bp3z58//effu3WTjJYH2FGCjbcT4RiArK0tOV0+vwtjIyJyuCflievLkSbWmpqatpKSkyF4do9t/pvWI4dTU1HIFBQUfDQ2NMCMjow3S0tL/OFCIxBfVlQXy3u7Lly8HOzs7q0pKSuJtbGySTUxM8FAb00mnWb+oqOgnjo6OtA8wI8nf6OjocFpamltISEglzW6gGgsCSBDeQSTvFCdcuPCn4KAgVs4cLykpKRgdHfUQ5fvILKyTOR2ioKDA0MHBgfxFQ/ueOvnyKykp+bWTk9PP5jQGC50nZ1kMDg6u0dXV9VVVVQ3S1tY2Ja+y0X22g4Uu/eNZBR6PN0n2V3j69GlRfX39OR0dnXx7e3s8r8AGMoUYhYWFizQ1Na+uWbPGmkLxaYuQBKG1tTW/s7PTG2990VVkpx4ShGkcT5069R+RkZH/zQbx7du3qwoLC+2PHDny1qZIbMRGjJkFSMKXnZ39U09Pz/+WkpIS+IEp/iXtgYGB/osXL7qFhYXdmrlV7pTIyspSHh8ft9PX199JDhRSU1PTlZGRkea78R80nI1bEm/upklmgGxE1tvb29zb25vb0NCQpq6uXuXu7o772UJcnmlpaS7btm27vGDBAkbJeEVFxcd2dnZfCbGrCE1BAAnCNEjHjx//7sGDB//KxmZJ9+7da25sbFyHVxwprEYhFElISFCxsrIq19PTM6TzJcV/OPH+/ft5urq63ly8vUB1Wsg+E93d3a7r168PW7p0qcOiRYvUZWRk/vHMBx1/qm1/qBz5i3RiYmLs/v37twYGBhLv3buXra2tfVccTuFkY3ziFKO2tvaPpqamn9F59oA/joGBgaGcnJz1wcHBd8RpbFzsCxKEaWb93Llz6wICAspkZWU/tKsvpfUyMjLy4sSJE1qffPIJLnNSEmO30OXLl208PDzK6d4f559hUVxc/F1nZ2f8RUNxei5duqTV19cXYGdnF7Zs2TIzBQWFReQKDt3zLyg2+95L1m8mJ2NjYyNNTU0lfX19caOjo5f7+/uf4C0jJsLf1CUJor6+fuHy5cuNmCSDlZWVqQsXLtw9314lZi48+xGQIExjnpOTY+zq6lpNjgNmOiWTk5PjUVFRy44cOdLPNBbqCy5ATna0t7f/ieA1v6lBvtD6+vqeZmZm2kVERLTTjcPletevX9d5/Pjxfjt7+/06OjqrpCQlpYkHk78y2fAkc0v2Kamurr7x8OHDv6qoqFzBFuj0ZS9cuLDT398/gVx5pZMg8G8RFRYW+ru4uKTR7wlqsiWABGEayeLi4uUWFha3FRUVlZlCk22WS0tL1zg7O3cwjYX6ggkkJycvtbGxKV6xYoWhYDX/WZp8aNXV1cWnpKTsPXr0KKWDsei2NZ/rkWdBrl27JicrK6v/vL9/r5Wl5R4tLS1W9hoR1O3dZxVe79w4OTIy0n/r1q0rjx49Ounk5FSgo6NDDizDD0WB5ubm8wYGBsGkON0EYXBwcDAtLU0/IiKim2KzKCZEASQI0+CSk/BevHjxSEFBQZPOQn8zJNnYpaioaKOrqysn3p0X4loVOHRubq63h4dHBnkdW+DKryuQ+9dlZWWBjo6OKXRjoN7bAiRZiI2NVV29erXpwoULd61YscJPXV39H+djiPJtCDLfY2Njo4ODgw/a29vzmpqa4iIiIirw7MmHV3FqaqqOs7Nz2dKlS7Xorndif/ny5fOysrJ78dYXXUV26yFBeI/n8+fPH6moqGizkSBcv37dfdOmTTfYnTpE+5AA+RJqaGg4vnbt2kNM5rD76dPHuTk5ze5GBwAAIABJREFU1uHh4Z0QZ1+AbMa0du1adXV1dQd1dfXdGhoabouXLNGQkhT4hRNWOvfm1QXy/y9fvhzu6+u7/eDBg9S2traM9evXN+Pe+LepU1NTv7d9+/a/MEnGyTHV2dnZnn5+fvmsTCaCMBZAgvAewnv37lWsXLnSmsmXCwk9OTnJy8vLC922bds5xrOFAJQFkpKSVjg5ORWqq6uvojOHb2yt/FVXV9e/zMWTGyljiUlBktQlJiau0dDQ8Fy1apX/4sWLrRctWrSY3z1RXlkg64G86trd3V3a09OT0N7efiU0NPQBdkh99ZyOZEdHx3UdHZ2NdH/XyBw/e/bsQV1dnSH2PhCTX0gJCQkkCO+Zi8bGxgxDQ8PtTB+kIh8sqampXwQGBv5YfKZ9/vckJydn36ZNm6Ilyd7KNE4l5CcIhYWFrq6urrj6M8tLhsfjSZ8/f95kyZIleywsLHYoKyuvkZeXX0hnLtnoOn898GP19/c/vXPnTt74+PjZ+/fvV4aEhJCTJifZaGuuxbh48aLhRheXcsWFC1Xozg+5vXDp0qU/e3t7Y9dZMVoASBDeMxkFBQXJzs7OAUzninywZGZm/u+OHTt+wDQW6lMTIH/RtLe3p+jq6vpRq/HtUuQD6+nTp51paWkmeAOFriI79cgzQeeTz9uqqagdsrS03LZo0aJlb27EQ/cVVnZ6JyHR09PztKamJoPH40V3dnZW37179yWXHmhNSkr6r8DAwJ/T9SS/ayMjI0PZ2dlOQUFBtXTjoB77AkgQ3mOamJj4o8DAwC/oZsT8sOTD68aNG+d4PF44HrxhfwFPFzErK2uNnZ1dqaqqqhrdFsmHVnJy8h+DgoL+Dedo0FVktx5J/EpKSuS7urocFBUVP3J2dvaVI1cVXj+vQOfyNhs9JGuF/PB4vKnnz593Xb169cKiRYuOlZeXN833ROHo0aMyhw8fbtTW1tana0k+I7u6uqq1tLQ24HeNrqJw6iFBeI9rXFzckdDQ0K/YSBDqGxrqb1VX20dERAwLZxoR9U2Bixcv/runl9dvpGlsrcyPMzo6OlpeXm7l4uJyG7riJ0AOVXvw4AF5E8JRQUFhn5GRkbuioqLKu0mCKJIG8oU3Njb2oqenp626ujpJQkLi/Pbt25vn45dfbm6upYuLS5mcnJws3VVCvMh26D4+PrQPeKLbNup9WAAJwnt8jh8/vmffvn2nZWVlX23qQveH/HVx79691ps3b1oFBwdjH3i6kBTrkcvRjzo7S7S/OXWRYq1vF3v06FFza2urGa760CactYoNDQ2ydXV1Onp6eh6LFi0KXrVqlYOcnJwi0+Se6QBeP7fAGxwcfN7X11fd0NCQKC8vn+nh4fF4PiQL5HctIyPjrz4+Pt9lYv38+fOeq1evOgYFBbUyNUd9dgWQILzH89y5c4be3t4VSkpKyky+aEj4np6eruTkZPMjR470sDt9iPauQHJystmWLVuKyCZXdOaN/6Gelpb2m8DAQM6f3DjXVhg5lvrJkycm69at27F06VJfdXV1U3l5eQVRbPHMt+O/Ojk1NcUjJ0329PTkk2dkeDxegbe399O5Zszvb0JCgqqHh0fTkiVLltFJEPgu9+7du6irq7sDb4SI30pAgvCeOcnMzNRzcnKqUlFR+dZlS0GnkdybjIqK0j98+DC26hUUT7Dykunp6b/39vb+EfnAopMgkCs+w8PDffn5+TZ+fn44LEYwf7EqXVlZubClpcXGxMRk9/Lly7cuWrRopays7AI6X2ZsDYz/pUg+Ezo7O+90d3dndnd3p0pLS9du2bJlTm3HfuPGDU9nZ+dLxIbu7xpJmnJzc/f5+PjEsWWMOOwJIEF4j2VDQ4OqhobGLVVVVR06i//dsOfPn9ffs2dPG3tTh0jvCiQkJMi6uLg0qaur6zL50Hrw4MH11atXu0F4/gg0NDQoVVVVbbawsDiop6dnr6CgsERaWprR7UM6Ou9u80xi8Hi8yfb29uaOjo5zk5OTqSMjI22+vr4v6MSfrToJCQnS2traJx0cHPbT3Z/i9cOJHRUVFQ5+fn6PZ6vvaIe6ABKED1j19PTUqaqqmrGRIBQWFtpv3LixjPrUoKSgArm5udZubm5FCxYsoP3A1OTkpERKSsr3du3a9X+Cto/yc0Ogurp6cV1dna+ZmdkRMzMza2lpabJeXj2wIqqrC/w3IUi+0NzcXF9XV3dSV1c3ISsrq1sc34Q4deqUTmBgYLWKispSurNOxtzU1PSVqanpx3RjoJ5wBZAgfMD34cOHtcuXLzdnYwpKS0v3ODg4nGcjFmJ8W4D8RSMnJ3fM19f3IJOErqenp7O2ttZm06ZNj+A8vwXIFaclS5Zojo+P71i9evVBQ0NDCyZbBTPRen1g1KsE5fX/T01MTAzfvn37cl9f3w82bdp0n0l8tuuWlZWF2NranmUYl3fx4sVt27dvz2EYB9WFJIAE4QOwTU1NZwwNDUOZfOHww5NfKHt7e2y3LKSFfObMmSVeXl6tS5YsWUpnvviXftva2hL19fV3z4enzIVEPS/D5uTkKE5NTa1RVVXdvmzZsl0rV640l5KSenULQpQbMb3e4rn7ypUrhwMDAzPEYV2St0Z4PN6FtWvX+tL5XeMvoHv37jU2Nzc7e3l5PZuXi2oeDAoJwgcmsba+/pjZ2rUfMfkl4IcvKSv73NHe/rfzYM2I5RDy8/O9XF1ds+l+mJN65OTNS5cu7fb19b0gloNEp2ZFICUlZbGMjIzl6tWr/RcvWeyjraW9RorBnhpMO00uxT9//vxpdXW165YtWxqZxmNaPzY21iwgIKBwIYOtlUkfysrKfmVnZ/dLcUh6mJrM1/pIED4ws9evX/+di4vLT9iY/JKSklhHR8d9bMRCjLcFyKY5cnJypxwcHMLp2pAEgTxVXl9f7+Tp6Ymz6OlCzqN6ZOfGa9euLe3t7XU1NzcPUlNTc1FRUSFHwEu9+UcDG39AUGGrqqo6MTAw8F1R781RWVn5Qysrqz+QPtMZO0l4pqamJq9cuWLr5eVVRWXsKCMaASQIH3BPTEzcFRQUlMDG1FRXV8dZWVlFsBELMd4WiI+P19m6dWu1qqoq7QemSIJQX1//pYWFxWfwhcB0AqmpqTo8Hs/f0tJyl6qqqrmSktJiuk/w0xF+9vz5s4uZmdYREREie126tbVVTlZW9sqKFSucyBjoPNRJfteamppu1dfXb8TmcXRWwuzVQYLwAevo6OjA8PDwJDbehmpqairp6OjY4unpie2WWV7fxcXF5PmOs3T+muF3hdxeuHjxorufnx9ObmR5fuZbOHJlITs7W6+/v3/vxo0bdy9btkxPRkZGlpwcSvevaipG5C/vpKQku+Dg4HIq5YVRJjY21nnXrl055GRNuvHJ3geXLl36gY+Pz5/pxkC92RFAgvAB5zNnzmzw9/e/tnDhQiWm0/HgwYN7paWlG4KDg/FADlPMN+qTY4Fv376dZGxs7Efnrxl+qLa2tob29nanubZZDYuUCEVDgLw9o6ysbDw6Onpgg7X1Hi1NTW0m6/BDXSAJQnp6ul1AQIDIEoSqqqo/W1pafsIkGZ+YmJgoLy/Xd3JyEqs3M2hM/7yvggThA1OclJS0wsPDo2rx4sXLmK6EJ0+e3L9x4wY5jwEJAlPMN+qfPn16ra+vb7GSkhKts+jJhy75sCstLf2Fo6Pjr1jsGkJxSICcS5CYmLhIY/nydRITE6EmJiZkq2fyvMKrqwr8rZ6ZfLGSv7zj4+Pt9u7dWyEKWrLZlJqaWtWyZcsMmIyjpqamvKWlhdxeGBPFONAmdQEkCB+wys3N1bawsKjS0NDQoE46fUly3vm5c+dsIiMjm5jGQv1/CpSXl/9ww4YNrx6YovOXG/+BKbLJko+Pzy3YQoCpwNGjR6VWrVqlvmbNGjtVVdVgTU3NTUuWLHn1GUJnjfL78+jRo7vFxcX2wcHBIjm/ISYmxm/Pnj0JZCMyugnCxMTEZEJSwoGwPWGxTJ1RX/gCSBA+YEze91VWVi5YsWKFLdOpIF9Ep0+fttu3b5/ILg8yHYO41ScPTMnIyOStWrVqI90PLDIvzc3N1fX19S54YErcZnju9+f1lYVVWlpa3tra2v5qamq25AA4/oZIVNYtf4+OkpKSnzs6Ov5aVK8FVldXJ1tYWATQfTCTjGNoaKj7yZMnBgYGBgNzf3bn/wiQIMwwx/fu3ctftWoV4335yS9Henq6k7+/f/H8X1azM8LTp0/b+Pv7X1FUVFxEt8XJyUleTk7Opz4+Pn+hGwP1IEBFgDyvICEhsVZdXT3A0NDQX0VFxVBeXl5xpisLZPvvO3fuXL19+3ZwYGBgL5W22C5TWVmpYmho2KqkpLSMSlLzbvuvT0mVqK2tTVm/fn0g2/1DPOEIIEGYwbW5pSXD0MBgO9PjYkn90tLSI46OjseFM5Xci1paWvqFra3tj+h8YPG1xsbGxiorKw3xwBT31o8oR1xZWbmgpaXFTltbO2LdunVeioqKGtOdITIxMTHe0tJyo6+vL9TJyUlk+3PExsbu37Nnz0lywBWd2yTk829sbGz8/Pnzu/bt25cmSnu0TV0ACcIMVo2Njf9pZGT0C1KMyRcR+QW5desW2WDkT9SnByXfJ0BuL6ioqNxSU1MzZjIvtbW1ZePj4xutra3HoQ0BUQiQZIFsOayhofGJubm53RJVVbXhoaHh9vb2mtu3b/8tLCwsSVS3FYgHObPC0NCwcN26dTZ0fcjn39OnT+9MTk6u09bWFuuTKumOcT7WQ4Iww6xWV1f/ct26dUfZSBDq6+t/amFh8bv5uJBme0wxMTGbg4ODM+Tk5OTpJgiTk5OTZ8+ePRQREfH1bPcf7UHgXQFyC0JBQUHu8ePHC5YsWTL5/Pnz0SNHjog8cb1y5coqZ2fnVllZ2QV0Z+31H0h/tbKy+oRuDNSbfQEkCDOYX7l2LdJt48ZTdB/M4YcnvyCNjY0XTE1Nd83+NM+/FsvKy0/bWFuH0U0OyMOJL1++7GlqatK3trbun39CGBEE2BHIyMj4zMfH5w/8VzYFicp/wPLly5cv0tLSPENDQwsFqY+yohVAgjCDf2JioltgYGA+GwnCnTt3sgwNDX1EO+Vzv/XKysqFa9asaVVRUdGmkyDwP7Ru1dSkW61f7zf3RTACCAhHIC0tbZGRkVGhgYGBBZ1nD0ivyO9bR0dH0fj4+CYDA4NR4fQUUYUhgARhBtXo6OiN4eHh16TIcW7f7HlC64f8kty7d++6rq7uFklJSZFfNqQ1CDGpFBcX50/ex5aRkaF1yZP/wFRycnJIaGhokpgMC92AgNgJ5OXlrffw8KjgH30taAfJlTryU11d/e/W1tb/I2h9lBetABKEGfzPnDmzysfHp1xZWVmdSYJAflE6Ozsf3bx5c4Ofn98T0U773G2dnNwoLy+fZW9vv4XuKPgPTPX09Kw3NTUdohsH9SAwnwXImRNlZWX/aWdn93O64yS/a4ODg/0XL150Cg0NbaAbB/VEI4AEYQb3hISEZc7OzlWampormCQI5Belp6ens6KiwsrHx6dLNNM991vNyclRd3d3v79gwQJ5uqMhc1FbW3vc0tLyCN0YqAeB+S6QkJCgamNjU7x69WojumMlv2u3b9/OMDU1DZSUlJygGwf1RCOABGEG90uXLqkaGxuX6ejo6NO9B0eaIFcQBgcHn+fm5joEBwc3i2a6536raWlpB3x8fMj72LTv97x8+fJlamrqVjwwNffXA0YgPIHs7GzPrVu3ZpO7q3RbIZ975eXlux0cHBLoxkA90QkgQZjBnlxma2lpSTIwMHi1xSjdH5JJk8NWvv76a+9Dhw5dohuHab329nb5goICRw0NDT89PT0zVVVVQ0lJSbLDm1j/8B8slJKSUlZRUVFkMhcTExNTfX19PVJSUpNM4og12BzrnKS0tISsjAyjvUbm2JDFvruSkpIL5eXlVZh2dHh4uFdKSkrsD2YinzEjIyNTPT09zXfv3q158eLF6cDAwFuSkpLfPEjBwR8kCBQmvaamJtHc3DyI6ZcJWYCJiYk+u3fvzqLQLKtFyLHImZmZvuvWrft86dKl5vLy8rT3D2C1YzSCMZ0H0iQ/4aDRPKqwLEDmk+lOpSx3CeE4KsD/XJji8SSGh4YG2tvbkx8+fPjZ9u3bn3ORBAkChVmvqqr6g6Wl5Q/Z+GK6evXqdzdt2vR3Cs2yVoQkBxUVFb8yNTX9VwUFBaU3P5DxwcwaMwJBAALzRICfKJCzWtra2tIVFRVDdHR0Xs6T4VEeBhIEClTV1dWH161bd5yNBOHmzZt/tLa2/hGFZlkpQk6Ty83N/dzNze2XMjIyMkz3c2ClUwgCAQhAYA4IkERhfHx8IjEx8dDevXtj5kCXWe0iEgQKnGVlZQdtbGxOspEgNDY2frl27drPKDTLSpHCwsKV1tbWjXJycgv5WTEb42ClcwgCAQhAQIwF+J+ZpaWluQ4ODl6iPBNDFExIECio5+Xl2W/atKmEjS/Wtra2bH19fW8KzbJSJCsra/fWrVvjmTz1z0pHEAQCEIDAHBUoKi7OcnJ03I4EYY5OoDC7HRsbaxYeHl7HRhsPHz4s19HRsWMjFpUYaWlpf9y+fftnTF7RpNIOykAAAhCYrwKnT5/+cXh4+BfzdXzvGxeuIFCY8RMnTphERkbWSktLy1Ao/sEiXV1dFZqamnazkYk2NDTIDg0NZdjY2Gxl4+oH07GjPgQgAIG5JEBuMUxOTk7FxMQcOXTo0Mm51Hc2+ooEgYJiTEzMUk9PzyoNDY2VFIp/sMiTJ08e1dfXb9i8ebPQt1tOSEhQ2rBhQ/Xq1asZbfLEdMyoDwEIQGAuCpAEgZxEefHiRfvg4GBWriLPJQckCBRmKyEhQcXW1vbmqlWr1lAo/sEiz58/f1ZSUkK2W77PNNZM9U+cOLFi7969TfLy8oozlcW/QwACEIDA2wKvz5IYqKqqWufu7n6Paz5IECjMODleWE5O7rKZmZkDheIfLDIwMNCXnZ1tt2fPnhamsWaqn5ycbBIQEHB7pnL4dwhAAAIQ+LYASRD6+/vvL1682ICLp/AiQaD4W1FQUHDc2dn5MMXi7y02NjbGi4mJCf3oo4/OMY01U/3S0tKddnZ2F2Yqh3+HAAQgAIHpE4QnT540a2lpGXPRBwkCxVm/fPnyV5s2bWJ8+h85vCQhISEiJCQkjmLTtIuVl5d/bGNj83+0A6AiBCAAAQ4LkM/r1tbWC8bGxru4yIAEgeKsX7169RNXV9c/M92JkFyySklJ+WTnzp1/pdg07WKlpaXRdnZ2+2kHQEUIQAACHBYgCUJlZWWcnZ1dBBcZkCBQnPWCggJfJyendKavC5IFV1ZWFufo6CjUBVdcXKygoqJyae3atS4Uh4hiEIAABCDwhgD5vE5JSfk4KCjoKy7CIEGgOOtFRUVbHRwccsgVACabDpEF19jYGG9mZhZKsWlaxRISElSdnJyqtLW1V9EKgEoQgAAEOC4wMTHBi4uLCztw4EA8FymQIFCc9fz8fGNXV9dGNhKE9vb2HH19fS+KTdMq9vXXX5vu2bOnQk5OToFWAFSCAAQgwHGBoaGh/oyMDKfQ0NAGLlIgQaA469HR0ZoRERGdpDjTKwhPnz5t09TU1KfYNK1iGRkZzt7e3gVM+kqrYVSCAAQgME8Eenp6eqqqqqw8PT0fzJMhCTQMJAgUuf7+97+rHzp06KG0tPQCJs8hkFsMAwMDd5csWcJ406UPdf3mzZufrl+//ksmfaVIg2IQgAAE5qVAd3d3lbq6uq2kpOTkvBzgDINCgkBx1mNjYxVdXV3rdHR0dJl86ZIEob+/v+vhw4drLSwsnlNsXuBiNTU1vzY3N/+cSV8FbhQVIAABCMwjgYcPH5bq6Ogw3iBvrpIgQaA4c/n5+fIaGhpVRkZGJkwu27/eunOopKRkvZeX1x2KzQtcrKWlJUNfX58cTypwXVSAAAQgAAEJsgfCV4aGhh9z1QIJAsWZJycj9vX1XXZwcNjI5Ev39eEfw5cvX97g5+fXTLF5gYrl5eWpGBoaFuno6Jgy6atAjaIwBCAAgXkmUFVV9fsNGzb8ZJ4Ni/JwkCBQpOLxeJLJyclfBAQE/JDJly5JEMbGxsbPnDkTdPDgwXSKzQtULCkpaYWrq2ulqqqqBpO+CtQoCkMAAhCYZwI5OTm7vby8EubZsCgPBwkCZSoJidOnT/8qNDT0Z0y+dEmCwJOQkPg6OvoHBw8e/F8Bmqdc9NSpUx5hYWE5CxYskGHSV8oNoiAEIACBeSRAPqenpqZ4sbGx2w4cOJAzj4Ym0FCQIAjAdebMmYO7d+8+Li0tLSVAtWmLnj59+ofh4eF/YhpnuvppaWm7duzYwdmsVximiAkBCHBH4PUpjj15eXm2wcHB7dwZ+dsjRYIgwMwnJSVZ+fr6li5YsGCBANWmLZqdk3N2m6fnXklJSXJBgdWf6urqLywtLX/EalAEgwAEIMARAfK22dOnTztv3rxp5ePj08WRYX9rmEgQBJj53NxcS1dX13JZWVnGCUJNTc211NTUTUePHp0SoAuUira2tibo6+tz8vQxSkAoBAEIQOADAiRB6OjouNbb27vV2tp6nKtYSBAEmPny8nLNdevW3ZGVlVUUoNq0RVtaWori4+NdhJEgdHZ2lmlqatoy7SPqQwACEOCiwOTkJHnFMcPExGQHF8fPHzMSBAFmPyEhQXbHjh3dcnJyKgJUm7ZoZ1fX/ePHjukfPXp0gmmsN+tfLi3VsNDTu7ls2bLlbMZFLAhAAAJcESDPINy+ffu/zczMfs6VMU83TiQIAsz+sWPHFoSEhHQuWrRoqQDVpi06NjbW9/XXX6sfOXKE1ctXcXFxRn5+fqWLFi1azLSPqA8BCECAiwIkQaiurv7Bhg0bhPKm2VwxRYIgwEzxeDyptra28jVr1mwQoNq0RUdGRweqq6o0HR0dXzKN9Wb9U6dOhYSHh5+RkZHBFopswiIWBCDAGQGSIOTl5W319PTM48ygpxkoEgQBZv/o0aNSO3fuvGpmZuYqQLVpi46Ojo5WVlauc3Z2ZnU3xdTU1B/5+vp+wWQ7aKZjQ30IQAACc1mAJAgxMTG2kZGRFXN5HEz7jgRBAEGym+LVq1eTPDw8AgSoNm3R8fHx8WvXrtlu3br1FtNYb9avqa09Y2ZqGooEgU1VxIIABLgk0NfX9yQ9PX3Dvn37HnFp3O+OFQmCgLMfHx//+e7du39NqjHZpXB8fHwiMzPTPTAwsFDALnyweEdHR+mKFSvsmPSNzf4gFgQgAIG5JtDR0XG/rKzMKjg4+Nlc6zub/UWCIKBmVFTUp/v37/+SfAEz+RIm23iePn36R/v27WNtN0VyC+T73//+HRUVFUZHUgtIguIQgAAE5pVAXV1d1tjYmD+X90AgE4oEQcBlHR0d7R8SEpJANktimCBIxMfH/3rv3r0/E7AL7y2ek5OjY29vX6OkpLQEtxjYUkUcCECAawIlJSWxjo6O+7g2btxiYDjjycnJhp6enlUKCgqKTBIE8hBMSkrK3wIDAz9ha7vl2NhY66CgoBvy8vIKTPrGkAjVIQABCMxpgdLS0p84ODj8fk4PgoXO4wqCgIhZWVlrnJycbi1atEiJyZcwSRAqb94s73n61MXb23tUwG5MWzwqKupf9+/f/xdcPWBDEzEgAAGuCpSWlu5xcHA4z9Xx88eNBEHAFdDV1aUoJyfXrKKispxJgkD2+m5ubm4kD8JERkaOCNiN6YpLpqSk/MnPz+9T8o9M+sZCXxACAhCAwJwVuH79uqObm1vJnB0ASx1HgkAD8vnz520qKip6TL6EyRWE+/fvtxUUFKyLiIgYptGNt6qQBxQDAgOvWpibM96jgWlfUB8CEIDAXBQgf7iRz/X4+Pg1YWFhd+fiGNjsMxIEGpqPHj1q0NTUXMvkUj5ZiGNjYyPx8fErDxw48JRGN95NEGS+853vtGpoaKxmGgv1IQABCHBVoL+/vzcxMdH08OHDT7hqwB83EgQaK6C5uTlJX18/kEmCQK4gkJ+YmBityMhIxueNFxcXK1hZWXXJyckp0xgSqkAAAhDgvAD5XL57925rVVUV2QNhiOsgSBBorICampqz5ubmIUxuMZArCOQnOzt7zfbt2xlfysrPzzd2cHC4JScnJ0djSKgCAQhAgPMCrx8ev9Lz9KkPWw+Pz2VUJAg0Zu/y5ct/cHd3/yHTKwhkMRYXF2/ZuHHjZRrdeKtKUlKS+44dO3JlZGRkmMZCfQhAAAJcFCB/uGVnZ//v9u3bf8DF8b87ZiQINFZBfHx8+O7du2OZXEHg32IoLCzc7uLicpFGN96qEhsb+59hYWG/YJK0MO0D6kMAAhCYywIkQcjMzPzcz8/vt3N5HGz1HQkCDcmTJ0+G79+/P1ZaWppG7W+q8BOEgoKCMFdX17O0A30TSzorK+uUl5dXBBIEJpKoCwEIcFlgampqKjc3d9O2bduucdmBP3YkCDRWQXR0tE1QUNBVJSUlJRrV36qSm5v7paen52dM4kRHR8vb2dlVGBkZmSFBYCKJuhCAAJcFJiYnp4oKC+3d3Nw4fcwzEgQGvwUXL15c5ejoWLV48WJVBmFeVb127doxd3f37zCJc+bMmSXbtm27Q/rD5LYHkz6gLgQgAIG5LjA5OTmenp6uFRgY2DvXx8JG/3EFgYZiVlbWCmtr65vLli1Tp1H9rSrl5eVn79+/HxEcHDxJN1ZMTMzyvXv3PiT1cQWBriLqQQACXBcYfvly8Hx8/PKDBw8Oct2CjB8JAo1VQO75d3Z2lmtpaVnRqP5WlaampoaWlhYHPz8/2guysLDQ2cHBoYDpEdRMx4L6EIAABOayQEtLS11NTY11cHDw2FweB1t9R4JAU/Lhw4dly5cvt6VZ/R/VOjo62srKyjYEBwf3042vjyS2AAAgAElEQVR17dq1ABcXl2RSH7cY6CqiHgQgwHWBioqKkuHhYRd3d/cJrlvgCgKDFXD37t0cXV3drQxCvKra09PzIC8vzyo0NLSHbqycnJw/b9my5RMkCHQFUQ8CEICABDmD4bchISH/ISkp+c1Wtxz/wRUEmgugsbHxT8bGxow30yCv1URFRVl89NFHDXS6Qm53lJWVnbazs9tDpz7qQAACEIDAN6+eR0VF/fjw4cNfwOMbASQINFdCZVXVHzasX/9DmtX/UY0sytOnT5tHRETU04mVlZWlbGRkVKGnp2dIpz7qQAACEICAhMT4+PhocnKy2549e0rhgQSB0RrIy8uL3Lx58ylGQV5vmHTt2jU3Dw+P63RiRUVFae/cufOWiorKMjr1UQcCEIAABCQkRkZGXhYVFVlu3ry5BR5IEBitgcTExG07d+7MYvpQILmCUFFRcdjOzu4knQ6Rqw+hoaG1TPtBp23UgQAEIDBfBIaHh3uGhoZWa2pqDs+XMTEdB24x0BSMioraum/fvmwpKSkpJl/OJEGorq4+smHDhuN0ulJUVBRkb2+fiP0P6OihDgQgAIFvBAYHBx8pKyuvgMc/BZAg0FwN8fHxOl5eXpUqKirqTBIEcjhITU3N/1hZWf07na7cunXriIWFxVdM+kCnXdSBAAQgMF8EyB9qd+7cuWZoaOg+X8bExjiQINBUJHAbNmyoUldX12Ly5UwShNra2gvr16/fRacrt27dirOwsNjLpA902kUdCEAAAvNBgCQH5L+ampp0Kysrv/kwJrbGgASBpmR+dfXi1YsXF61cuXItk8v7ZGE2NzdfMDExEThBaGhokJWSkso0MjLaggSB5kSiGgQgwGkBfoKQnp7+i4CAgF9xGuOdwSNBoLkaeDyeZFtb20VdXd1tTBKEyakpiXvt7TdHR0fdTE1NhwTpTkZGhpqVldVNLS2tlUgQBJFDWQhAAAL/FJicnJQ4e/bsRxERESfg8k8BJAgMVkNjY2OGoaHhdiYJArnF0NnZ+bC4uNgqODj4qSDdOXXq1Npdu3aVKCoqKiNBEEQOZSEAAQj8U+Dly5cvkpKStoSHhxfDBQkCK2ugvr7+f0xMTH7MNEF49uzZo+Li4g1+fn5PBOlYUlKSu7+//1Uc0iSIGspCAAIQeFugv7+/v6ysbL2np2c7bJAgsLIGbt269Zm5ufkfmSQIpCOjo6MjZ86c2Xjw4MFKQTpWWlr6qY2NzZdIEARRQ1kIQAAC/xQgzyD09va2TU5OrsMeCG+vDNxiYPCbUlpa+n1bW9v/ZXJ5nyxO8hMTE+MeGRl5TZDuNDQ0/MbExOSnJAbTJEWQdlEWAhCAwHwS6O7urtfQ0DCfT2NiYyxIEBgoXrx40WXbtm3XmSYI5As+MzNzq5+fX54g3Wlra8vT1dXdTOow6YMgbaIsBCAAgfkm0NrammJoaBg438bFdDxIEBgIxsTE2O7du7eMyV/v/FdsKioqfmRvb/9Hqt15/PjxwqmpqeLly5evo1oH5SAAAQhA4G0B8hlcX19/zMLC4juweVsACQKDFfHVV1+tjYiIqFBQUFhINww/Qaivrz+6bt26/6QaJysra4WNjU2VmpoaDmmiioZyEIAABN4RIJ/Bubm5n3p5ef0ZOEgQWFsDMTExS7du3Vqlqam5km5QfoLQ3Nz8+7Vr1/6Eapyvv/7aZffu3Tny8vLyVOugHAQgAAEIvC1AXjU/d+7czrCwsGTYIEFgbQ0kJCSo2tnZ3Vy5cuVqukH5Dym2tbXlGhgYeFKNk5iYuGfnzp3xePaAqhjKQQACEPi2wNDQ0GBiYqLbgQMHquCDBIG1NdDe3i4/PDycbWpq6kY3KEkQyJf8gwcPrq1cuZLyQSHFxcV/s7e3/x4SBLryqAcBCEBAQqKnt7e7tqbGatOmTY/ggQSB1TVQUVERa21tHU43KP8KwqNHj8oGBgZcTE1Nx6jEampqSjA0NNyFBIGKFspAAAIQmF7g4cOHtQMDA06CbnXPBU88pMhwlgsLC6OdnJz2Mwwj8eTJkye1tbVWW7dufUwlVldXV426uroFEgQqWigDAQhA4G0B/h9n9+/fv6arq0v56i2XHJEgMJzt4uLi7zk4OPyNYRiJ5319T0tLSqy8vb0fzhSruLhY1cDA4JaamprOTGXx7xCAAAQgML0ASRJaWlpOGhsbH4bRtwWQIDBcFaWlpXvs7OziGYaRGB4eHkxISKD0oExGRoaBi4tLpbKysjLTdlEfAhCAABcF6L5iziUrJAgMZ7uoqMjP0dExlWEYCXLcaExMTNDBgweTZooVFRUVvHfv3jMLFiyQwS2GmbTw7xCAAAS+LUBebyQ/169f3+fh4RELI1xBYH0NpKWlGe3YsaOJjcBJSUlBQUFBMyYI586d+zQ4OPjVIU34gQAEIAABwQXIFYQpHk8i4fx5t9DQ0OuCR5j/NXAFgeEcnzp1Si8yMrKNYZhX1XNzcz/39PT87UyxKioqUq2srPyYbPE8Uxv4dwhAAALzWYBcQXjx4kXfhQsXHCIjI1n5I2++eSFBYDijUVFR2sHBwY1KSkqMngcg2Wx1dfWxDRs2zLgf+J07d4r09PQccQWB4eShOgQgwFkBclu3u7v7YWFhoVVwcPBTzkJ8YOBIEBiuiqioqEWbN2+uXrly5RqGoSSamppOmJiYfDRTnIGBgUdKSkraSBBmksK/QwACEJhegFxBuHv3btndu3c3eXp6DsPp2wJIEBiuipycHMVVq1bdNDQ0NGLyhU2uILTfu1e0Rk/P+UNdqqqqWmZoaNiiqKi4mGHXUR0CEIAAZwXIZ+7t27cvmJmZ7eIswgwDR4LAcGVUVlYuGBsbS7K3t/dlmiB0P31ar6mhYf6hLiUnJ6/z8fEplZWVxSFNDOcO1SEAAe4KkAShpqbmi/Xr1/+YuwofHjkSBBZWRlZW1pdeXl6fMkkQSDd6enoa1NTUyO6I37x/M83PiRMnvnfgwIG/SOEJRRZmDiEgAAEuC1RVVX20YcOGE1w2+NDYkSCwsDKSk5O/CAgI+BGTUCSbffbsWW9DQ8N6V1fXB++LdebMmf8KDQ39OZO2UBcCEIAA1wXIZ25JSYm/k5NTGtct3jd+JAgsrIysrKzdnp6e8VJSUow2JhgYHOwvuHHDavv27Xen69axY8cW2NjYFK5fv96WhW4jBAQgAAHOCpAE4ezZsxZ79+6t4yzCDANHgsDCyrhy5YqLm5tbPpPL/mSxvnjxYjA1NdXpfQs2Ojpa3s3NrX716tWM35hgYdgIAQEIQGDOCpDt7ePj49cdPny4fc4OQsgdR4LAAvCNGzdsHR0dS6SlpaXohiMJwsTExFRMTEzk4cOHp93289ixYyoHDhx4IiMjI0e3HdSDAAQgAAEJiQcPHtwtLS0leyD0w2N6ASQILKyMy5cva7i5uT2UlpaWoRuOf3DI2bNnvxMeHn5sujhXr141cnFxaZCWlpam2w7qQQACEICAhER9fX3p6OjoJmtr6xfwQIIgtDVA/rI/ePDgU2lp6QV0G+EnCCkpKT8NCgr63XRxLl++7O7q6npZRkaG9pUKuv1DPQhAAALzSaCgoOCEi4vLjBvTzacxCzoWXEEQVGya8gkJCUqenp4dysrKS5iEI0lCcXFxkrOzc9B0cVJTU3/i6+v7O7zhyEQZdSEAAS4L8E9xzM/P/83mzZv/g8sWM40dCcJMQhT+PSEhQdbS0rLCwMDAgkLx9xYhCUJzc3OmiYmJ73SFMjMz/+rt7f0vTPdbYNJH1IUABCAwlwXI5yz5KSoq2rFx48aMuTwWYfcdCQILwuT1QwcHh1Jzc3MrJuFebbfc3l68Zs0ap3fjZGRkLNTV1S1cu3bteiQITJRRFwIQ4LIA/3ZuSUmJh7Ozcz6XLWYaOxKEmYQo/HtCQoL04sWLz23ZsmXaWwMUQrwqQhZuX1/fI1VV1RXv1klJSVlsZ2dXo6mpuRIJAlVRlIMABCDwtgA/QcjIyFjp7+//3k3p4CYhgQSBpVUQExPz84iIiP9iGm54eLhLSUlJ6904J06c0D1w4ECrlJQU3mBgioz6EIAAZwVIgjA2NjYWHR2t8/HHH3dzFoLCwJEgUECiUuTkyZM/PnDgwP8w/et+eHj4+d27d9dYWFg8f7Pdq1ev2rm7u5dS6QvKQAACEIDA+wXa29vbCwsLzSMiInDM8wcWChIEln6L4uLivHbv3p2+YMEC2q86kq6MjIyM3LhxY72np2fTm10rLi4OcXBwOMtSdxEGAhCAACcFyFsMtXV1tzofP7b39vYe5SQCxUEjQaAINVOxjIwM4y1btlTLyckxOoZ5bGxsJCUlxWrPnj2Nb7ZZUlLya3t7+89n6gf+HQIQgAAE3i9AbjGkpKT8NTAw8PuSkpLfvNKAn2kFkCCwtDDS0tKMSIKgoKCgwCTk+Pj4xNmzZ3fu378//c04FRUVMdbW1hFMYqMuBCAAAa4LkCsI5FTciIiIX3LdYqbxI0GYSYjiv/N4PPkXL150LFy4cBnFKtMWI9ltVFTUTw8fPvyP3RSzsrKUDQwNi/XXrDFlEht1IQABCHBdYGJiYiI1NXXHrl27srluMdP4kSDMJCTAvw8PDz9euHDht95AECDEq6JxcXG/fPONiLi4OC0vL6+bampqjGML2heUhwAEIDCfBMbGxsbz8/NtvLy8aubTuIQxFiQILKp2dnY2a2hoGDJ9kyE7O/v80NBQWHBw8CTpXlRUlPX+/fvLmBwnzeIwEQoCEIDAnBUYGRkZbmhoWG1tbd0zZwcxSx1HgsAidFNTU7ahoaEX0wShtra2qrS01P7IkSPjpHv5+fnbXVxcMnAGA4uThVAQgAAnBV6+fNkXFxenzv985SQCxUEjQaAIRaXYzerqDEsLi+1Mv8hbWlpqBgcHbaytrV8lCFVVVT+0tLT8A9PEg8oYUAYCEIDAfBbo6Oi4XVZWZsG/Qjufx8p0bEgQmAq+UT89Pf3L7du3f8r0i7y7u/tpTk6OLn8Tj/r6+q9NTEz2MU08WBwqQkEAAhCYkwK3b9++npiY6HH06NGpOTmAWew0EgQWsePj47+ze/fuvzNNECYmJ8dPRUUtO3LkSD+Px5Nsa2vL1tPT82Qal8WhIhQEIACBOSXAP8UxMzPzmK+v78fYA2Hm6UOCMLMR5RKnTp2KjIiIiJKWlpakXGmagpOTk+Pp6elagYGBvVlZWcvMzc0rtLW1V+EKAhNV1IUABLgswE8QYmNjP9u/f/+XXLagOnYkCFSlKJSLi4uzCgwMvKGgoKDI5K/9ycnJyfLy8vWOjo510dHRxoGBgcWLFi1awiQmhe6jCAQgAIF5K0AShNHR0bEzZ84EHjp06OK8HSiLA0OCwCJmZmam3saNG6uUlZVVmISdmpqaKigocHNzcys4ffr0tpCQkItSUlKMrkow6Q/qQgACEJjrAmQHxZGRkaGrV69a+fr6ts718cxG/5EgsKicn5+/wszMrHrp0qVqTP7a5/F4U5cvX966devWK1euXPnY3d39/5jEY3GICAUBCEBgTgqQKwgDAwNPGxoazJycnHDMM4VZRIJAAYlqER6PJ9Xb21u7dOlSRlsiT01N8dLT0/8tICDgjw0NDX9cu3btZ1T7gHIQgAAEIPBtAZIgDA4OtqmoqOjDh5oAEgRqTpRLdXZ21mloaJgx+YufLGTyyqS/v/9n7e3t11avXu1KuQMoCAEIQAAC3xIgn6sdHR3Fq1evdgIPNQEkCNScKJdqa2vL09PT20y5wjQFyb2yvMuX/+65deunjx8/LtfW1l7HJB7qQgACEOC6APlcbWxsPGdmZhbCdQuq40eCQFWKYrnGxsbjxsbGhykWn7YYyXRv3rx5fWho6JCZmVmJmpqaGpN4qAsBCECA6wIkQbh69eoXW7Zs+THXLaiOHwkCVSmK5SoqKv5ubW39HYrFpy1GFnLrnTstlRUV3w0ICEhbuHChIpN4qAsBCECA6wLkc/XcuXMRYWFhcVy3oDp+JAhUpSiWy8rK+hcvL6+/MnkGgSzkhw8ftl2/fv3LsLCwv2GDJIr4KAYBCEDgPQJkD4S4uLiAw4cPZwGJmgASBGpOlEudP39+565duy4wSRBIYyMjI4OXL1/O8vb23o0EgTI/CkIAAhCYVqC/v/9ZUVGRlY+Pz30QURNAgkDNiXKp48eP74iMjEyRkZGRolzpPQXLysoabW1tTZgmG0z7gfoQgAAE5rpAV1fXg7t371pjDwTqM4kEgboVpZLx8fGrvb29K5SVlRk/WNjb28tTVVWVRIJAiR6FIAABCLxX4FFnZ8UKbW07CQkJHpioCSBBoOZEudSVK1eWW1hYVKmpqalTrvSegvzDRZAgMJVEfQhAgOsCbW1tWfr6+j5cdxBk/EgQBNGiUDY/P3+xgYFB6fLly40oFP9gEZIgIDlgqoj6EIAABCQkGhoavjQzM8OutAIsBiQIAmBRLfrgwYP8FStWuFEtj3IQgAAEICBcgRs3bvzM1dX118JtZX5FR4IghPlsbW29smbNGg/89S8EXISEAAQgQEPgwoUL3rt27cqmUZWzVZAgCGHqGxsb/2RkZPQDcosArygKARghIQABCFAUIPvKjI+Pj8XHx2+OjIwsoFgNxSQkJJAgCGEZ1NXV/dLU1PQoCY2rCEIARkgIQAACFAXIH2o9PT1dBQUFVjt37uykWA3FkCAIZw0Ul5X9m4Ot7e/xkKFwfBEVAhCAAFWB16c4Ng8MDDhYWFg8p1oP5XAFQShrIC0tbYuvr28uriAIhRdBIQABCFAWIAnC3bt3s/X19b0pV0LBVwK4xSCEhRAdHe0WERGRT24v4BaDEIAREgIQgABFAfIMQlNTU5ypqWkExSoo9loACYIQlkJUVNS6PSEhRQry8opIEIQAjJAQgAAEKAqQKwj19fU/tLCw+BPFKiiGBEF4ayAhIWGZu7s72U1xhfBaQWQIQAACEJhJgCQIZWVlHzs4OHw1U1n8+9sCuIIghBVBEgQHB4cqbW3tFXjNUQjACAkBCECAogBJENLS0uwCAgLKKVZBMVxBEN4ayM/Pl9HU1Mw0NDT0RIIgPGdEhgAEIDCTwNjY2GhsbKzt4cOHa2cqi3/HFYRZWQP19fWJa9euDcIzCLPCjUYgAAEITCvQ1dXVUVJSYhUYGNgLIsEEcItBMC/KpauqqmIsLS0jkCBQJkNBCEAAAqwLtLW11bW0tDh7e3sPsB58ngdEgiCkCb5169a/WlhY/AUJgpCAERYCEIAABYGqqqozVlZW4ZKSkjwKxVHkDQEkCEJaDuXl5Yetra2PI0EQEjDCQgACEKAgUFRUdMzZ2fk7FIqiyDsCSBCEtCRKSkoC7ezskpAgCAkYYSEAAQhQECgrK4uwt7ePo1AURZAgzM4aSEhIMA8KCqpFgjA73mgFAhCAwHQCpaWlOx0cHJKhI7gAriAIbkapxsmTJ80OHjxIXquRpFQBhSAAAQhAgHWBzMxME19f3ybWA3MgIBIEIU1yVFSU9s6dO6tVVFTUhdQEwkIAAhCAwAcEJicnx0+cOGH48ccf3wOU4AJIEAQ3o1QjISFBxc7OrmrlypV6lCqgEAQgAAEIsCZAdlDs7Oy8n5ubaxkZGdnHWmAOBUKCIKTJTktLW2RsbFxmaGhoIqQmEBYCEIAABD4g0NjYeLuystI2IiJiGFCCCyBBENyMUg0ejydVXl4ea2trG0apAgpBAAIQgABrAuSY5/z8/Nhnz54dCA4OnmQtMIcCIUEQ4mTn5+d/5ebmdkSITSA0BCAAAQhMI0AShPT09D8FBAT8EED0BJAg0HOjVCs3N/d3mzdv/gledaTEhUIQgAAEWBOYmpri5eTkhHh7e59nLSjHAiFBEOKE37hxY6ezs/MF0gSSBCFCIzQEIACBdwQmJyenrl+/7r5p06YbwKEngASBnhulWjdu3PBxdnbORIJAiQuFIAABCLAmMD4+PllUVGTs7u5+h7WgHAuEBEGIE15UVORgb29fTK4e4AqCEKERGgIQgMA7AhOTk2OnoqLUjxw50g8cegJIEOi5UaoVExOzfO/evQ9JYSkpKUp1UAgCEIAABJgLdHd3P0pNTTU8cuTIC+bRuBkBCYIQ5z06OlozIiKiE1cQhIiM0BCAAASmEWhsbKwqKCiwP3LkyDiA6AkgQaDnRqkW2U3R1dW1edmyZRq4xUCJDIUgAAEIsCJw6dKlC4ODg3uwBwJ9TiQI9O1mrJmfny+/fPnyKn19fRMkCDNyoQAEIAAB1gRiY2N/sW/fvl+xFpCDgZAgCHHSo6Oj5a2srMrMzc0tkCAIERqhIQABCLwhMDExMRkbG7vv4MGDZwBDXwAJAn27GWsmJCRIKygoRPn4+OxDgjAjFwpAAAIQYEVgbGxsJCMjwzooKKiBlYAcDYIEQcgTf+bMmV+HhIR8jgRByNAIDwEIQOC1wMuXLwcrKipMXV1dHwCFvgASBPp2lGqeOnXqZ/v37/8vSWQIlLxQCAIQgAATAXIGw4sXL7qUlJS0JSUleUxicb0uEgQhr4Dk5GQPX1/fHBkZGRkhN4XwEIAABDgvwOPxJLq7u9s0NTX1OY/BEAAJAkPAmapnZWWt9/DwKJOTk1swU1n8OwQgAAEI0BcgyQH5aWlpyTY2NvamHwk1iQASBCGvg4KCAkMbG5taOTk5OSE3hfAQgAAEOC9AkoRr167FeHh47Oc8BkMAJAgMAWeqnpOTo+jq6vpYTk5Oeaay+HcIQAACEGAmQBKEs2fP/svevXv/H7NIqI0EQchr4NixYwvCw8O7FRQUFgu5KYSHAAQgwHkBcopjbGxsxKFDh85yHoMhABIEhoAzVSd7ITg6OjYtX74cD8zMhIV/hwAEIMBAgFw9GBoaGsjNzSV7ILQyCIWqeAZB+Gvg6NGjUsHBwfkmJiYuwm8NLUAAAhDgtsCzZ896a2trLd3d3V+dpIsf+gK4gkDfjlJNkiD4+Phctra2dqdUAYUgAAEIQIC2QG9vb8PSpUvNsQcCbcJ/VESCwNxwxgjJycm/DwgI+LcZC6IABCAAAQjQFiC3GB4+fFi5cuVKG9pBUBEJwmyugdjY2E/Dw8O/nM020RYEIAABLgo0NTV9bWJiEsnFsbM9ZlxBYFt0mnjHjx8/fODAga+kpKSksOPyLICjCQhAgLMCxcXFf3ZycvqUswAsDhwJAouY7wt17ty5dTt27CiWl5dfiARhFsDRBAQgwEkBcoshJSVlz86dO89zEoDlQSNBYBl0unAZGRkGbm5uVYqKikpIEGYBHE1AAAKcFJiYmJiMiYkJOHToUAYnAVgeNBIElkGnC3flypXlVlZWtSoqKqpIEGYBHE1AAAKcFBgYGHh648YNa19f3w5OArA8aCQILINOF47H40n29/ffUVZW1kOCMAvgaAICEOCUAP+Qpu7u7s6WlpYNLi4unZwCENJgkSAICfbdsN3d3a1Lly7Vl5KSmqUW0QwEIAABbgk8evSosLi42C04OHiSWyMXzmiRIAjH9VtR29raLuvq6m7CFYRZAkczEIAAZwT4VxDutLXlGBoYeHFm4EIeKBIEIQPzw99ubDxrbGQUggRhlsDRDAQgwBkBkiCQ/5qamn5ramr6OWcGLuSBIkEQMjA/fHFxcYy9vX0EEoRZAkczEIAAZwT4CcLNmzc/t7W1/S1nBi7kgSJBEDIwP3xSUtJ3/f39/x+eQZglcDQDAQhwRmBqakqC/PGVlpa2OSAg4ApnBi7kgSJBEDIwP3xsbGx4WFhYLBKEWQJHMxCAAGcEyBWEyampqZivv3Y/dOjQDc4MXMgDRYIgZGB++JMnT/ru3bs3SU5ObsEsNYlmIAABCHBCgCQIz54968zLy7MOCQl5zIlBz8IgkSDMAjJpIikpSW/z5s2VysrKS2apSTQDAQhAgBMC5BbDo0eP2ltaWmw2b97cy4lBz8IgkSDMAjJpIi8vb+X69eurly5dqjpLTaIZCEAAApwQIFcQWlpasjo7O/3c3d0nODHoWRgkEoRZQCZNtLa2KisqKlZqaWkZzFKTaAYCEIAAJwRIgnDr1q14KyurUE4MeJYGiQRhlqBJM3fu3EnR09PzJ4sZDyvOIjyaggAE5rUAucVQV1f3r5aWln+b1wOd5cEhQZhF8PT09GBvb++zkpKS0kgQZhEeTUEAAvNagCQIlZWV++3s7GLm9UBneXBIEGYRPCMjY6GRkVH6mjVrNiFBmEV4NAUBCMxLAf4GSUNDQ0M5OTnrg4OD78zLgYpoUEgQZhk+Ly/P3NTUNFVLS0tvlptGcxCAAATmlcDk5DdnMhUXF/+iq6vrNzikid3pRYLArueM0cjRz/n5+bZGRkbRWlpaJvwK/C2YSUaM7ZhnZEQBCECAgwL8z0f+4Uzj4+OjdXV1cYODgz9wd3cf4iCJUIeMBEGovO8Pnp2dvXr16tVfrFixwktRUVGJlERyIKLJQLMQgMCcEhgdHR199uxZQ0VFxe/9/PwuSEpK4nhnIcwgEgQhoAoSMi4uzlFNTS1g1apVFsuWLTOSlpaWFaQ+ykIAAhDgggCPx5vq6+tru3fv3u0nT56kbdy48bqOjs5LLoxdVGNEgiAqebQLAQhAAAIQEGMBJAhiPDnoGgQgAAEIQEBUAkgQRCWPdiEAAQhAAAJiLIAEQYwnB12DAAQgAAEIiEoACYKo5NEuBCAAAQhAQIwFkCCI8eSgaxCAAAQgAAFRCSBBEJU82oUABCAAAQiIsQASBDGeHHQNAhCAAAQgICoBJAiikke7EIAABCAAATEWQIIgxpODrkEAAhCAAAREJYAEQVTyaBcCEIAABCAgxgJIEMR4ctA1CEAAAhCAgKgEkCCISh7tQgACEIAABMRYAAmCGE8OugYBCEAAAhAQlQASBFHJo10IQAACEICAGAsgQRDjyUHXIAABCEAAAqISQIIgKgl2mBUAAANXSURBVHm0CwEIQAACEBBjASQIYjw56BoEIAABCEBAVAJIEEQlj3YhAAEIQAACYiyABEGMJwddgwAEIAABCIhKAAmCqOTRLgQgAAEIQECMBZAgiPHkoGsQgAAEIAABUQkgQRCVPNqFAAQgAAEIiLEAEgQxnhx0DQIQgAAEICAqASQIopJHuxCAAAQgAAExFkCCIMaTg65BAAIQgAAERCWABEFU8mgXAhCAAAQgIMYCSBDEeHLQNQhAAAIQgICoBJAgiEoe7UIAAhCAAATEWAAJghhPDroGAQhAAAIQEJUAEgRRyaNdCEAAAhCAgBgLIEEQ48lB1yAAAQhAAAKiEkCCICp5tAsBCEAAAhAQYwEkCGI8OegaBCAAAQhAQFQCSBBEJY92IQABCEAAAmIsgARBjCcHXYMABCAAAQiISgAJgqjk0S4EIAABCEBAjAWQIIjx5KBrEIAABCAAAVEJIEEQlTzahQAEIAABCIixABIEMZ4cdA0CEIAABCAgKgEkCKKSR7sQgAAEIAABMRZAgiDGk4OuQQACEIAABEQlgARBVPJoFwIQgAAEICDGAkgQxHhy0DUIQAACEICAqASQIIhKHu1CAAIQgAAExFgACYIYTw66BgEIQAACEBCVABIEUcmjXQhAAAIQgIAYCyBBEOPJQdcgAAEIQAACohJAgiAqebQLAQhAAAIQEGMBJAhiPDnoGgQgAAEIQEBUAkgQRCWPdiEAAQhAAAJiLIAEQYwnB12DAAQgAAEIiEoACYKo5NEuBCAAAQhAQIwFkCCI8eSgaxCAAAQgAAFRCSBBEJU82oUABCAAAQiIsQASBDGeHHQNAhCAAAQgICoBJAiikke7EIAABCAAATEWQIIgxpODrkEAAhCAAAREJYAEQVTyaBcCEIAABCAgxgJIEMR4ctA1CEAAAhCAgKgEkCCISh7tQgACEIAABMRYAAmCGE8OugYBCEAAAhAQlQASBFHJo10IQAACEICAGAsgQRDjyUHXIAABCEAAAqISQIIgKnm0CwEIQAACEBBjASQIYjw56BoEIAABCEBAVAJIEEQlj3YhAAEIQAACYiyABEGMJwddgwAEIAABCIhK4FWCEBcXt05VVfWJqDqBdiEAAQhAAAIQEC+BZ8+eafx/NdJ7u1l8ZSsAAAAASUVORK5CYII=;" parent="1" vertex="1">
                    <mxGeometry x="1114.46" y="976" width="138" height="138" as="geometry"/>
                </mxCell>
                <mxCell id="2" value="&lt;font style=&quot;font-size: 18px;&quot;&gt;(Coming Soon)&lt;/font&gt;" style="text;html=1;strokeColor=none;fillColor=none;align=center;verticalAlign=middle;whiteSpace=wrap;rounded=0;fontFamily=Roboto Slab;fontSource=https%3A%2F%2Ffonts.googleapis.com%2Fcss%3Ffamily%3DRoboto%2BSlab;fontSize=19;fontColor=#00A0DF;" parent="1" vertex="1">
                    <mxGeometry x="1034.95" y="1105" width="301.1" height="30" as="geometry"/>
                </mxCell>
                <mxCell id="wCUkDDBLQIwaV8VIMWGC-17" value="" style="triangle;whiteSpace=wrap;html=1;fillColor=#FFFFFF;rounded=1;strokeColor=#808285;strokeWidth=2;rotation=90;fontSize=28;" parent="1" vertex="1">
                    <mxGeometry x="142.90708926581615" y="840" width="60" height="160" as="geometry"/>
                </mxCell>
                <mxCell id="4" value="Acquire calcium imaging data&lt;br style=&quot;font-size: 28px;&quot;&gt;&lt;br style=&quot;font-size: 28px;&quot;&gt;&lt;br style=&quot;font-size: 28px;&quot;&gt;" style="rounded=1;whiteSpace=wrap;html=1;fontSize=28;fontFamily=Roboto Slab;fontSource=https%3A%2F%2Ffonts.googleapis.com%2Fcss%3Ffamily%3DRoboto%2BSlab;container=1;labelBackgroundColor=none;fillColor=#808285;fontColor=#FFFFFF;strokeColor=none;verticalAlign=top;" vertex="1" parent="1">
                    <mxGeometry x="36.79" y="610" width="265.32" height="200" as="geometry"/>
                </mxCell>
                <mxCell id="5" value="" style="shape=image;verticalLabelPosition=bottom;labelBackgroundColor=default;verticalAlign=top;aspect=fixed;imageAspect=0;image=data:image/png,iVBORw0KGgoAAAANSUhEUgAAAyAAAAG6CAMAAADHzNJWAAAAAXNSR0IB2cksfwAAAAlwSFlzAAAuIwAALiMBeKU/dgAAAwBQTFRFAAAA////////////////////////////////////////////////////////////////////////////////////////////////////////////////////////////////////////////////////////////////////////////////////////////////////////////////////////////////////////////////////////////////////////////////////////////////////////////////////////////////////////////////////////////////////////////////////////////////////////////////////////////////////////////////////////////////////////////////////////////////////////////////////////////////////////////////////////////////////////////////////////////////////////////////////////////////////////////////////////////////////////////////////////////////////////////////////////////////////////////////////////////////////////////////////////////////////////////////////////////////////////////////////////////////////////////////////////////////////////////////////////////////////////////////////////////////////////////////////////////////////////////////////////////////////////////////////////////Bz0LCAAAAQB0Uk5TABA1QF57gH9xSzYhDDGBxP/13cOSXyorh97vtHkaU47C5/HLr4ljPxYmfNG8Qx96x4xSGGTO4qpmEui/KU++Pn7rmRM93xSP7FcjsveTFWygCfY6z5jg87kKROXTMJ2uD/DKu9kesTvmIIZw+9oOqUzSLkJca9At7X3cETiF2AgkW3JOYnWDi5urwKiVblkcRzRazOFImqNQiKcsKA1Ftb2ChG8X5BvW11jBM7ZGlOnyC1ah9DywkGCzUZxzZ9TVl0qfTeppL57uajeRMq3IzXR2B/oGA3gZtwEnAnf4uMVJOSKiHaYErPnJBfyWpKXG/rr9imGNaEElVVRt22Vd4xoGn8YAAB5RSURBVHic7d17gE9l/gfwYTKKkZFkCRVqyD0at8a1oTTEkEuWvpIyFSlJIcmtmsolCuUSklQ0EhWV2AzSRbu/VWQlXWy/7bK7ZVPbb/c3xqQZ8z3X5/I+zznv17+Zc57n83mfvuf7Pec8JyGBiIiIiIiIiIiIiIiIiIiIiIhIulKlExNPKZN0XNlTTzmtXPlk9JiIgqDC6RVT4qp0RuUzq5yFHh4RUNXfVYt/dJxQ/ewaFSTsqGatc8497/gWa1erU/f8C1LPqidhs0Tq1L+wgcPRUahhI7EdNW4Sf0dNm13UXM5UiGRrcbG7o6NAnYv87+g0i1O449Jatmotb1JEUiTXaOPh8Dim7SX+9pTu4jhsV7a93OkRiajXoaPHw+OYTp297+nSOi43ntHEx9aJFOjS1cfRccxll3vcU7crPGw9s3sPJdMl8uTK2j6Pj3w9e3nZU6ssb1uv1ETVnIlc6t3H/+GRr0F597u6yvvm+56mbuZEjkr1FDo88vVzG+Hk/r62f9UApQUgsnH1QNHjI18HV7tq/Xufmz9jkNoaEFmoN1jC4ZHvGhdfRGJeLrIUl1VLfSmISmg1RM7xkZJyrePPTb2aimw/SUc5iIpqPlTOwVHgumEOe7tebPvdtZSE6IQbvF44tzc823ZvN4pu/0xNZSEqcNPNMg6LIkaMtNlbFfHt84oI6dPrFvHEnmyo9e6qytj+KH3loYjrdquMxJ6sq+X+rpWx+Uq3aawQRdno6jICW9LtFvsbI2fzd2gtEkVWCzl5LSlrbNz9jbxT0vbv0lwoiqQLJcU1jnFxLxgK/4J1Ak+ySLlO0uIaR7yvIeP7Sdt8H+3VoqgRvGDnZELJPd4tcfNl9BeMIqWlxLTGM/Gek/co8QMk3yRAzSg67pUZ1rhK3BMyWerm2yGqRgDj6/eeMnXa9KSkpPvuf2Bozm+GPvjQ6Q/PaDRopoKdDhN4dNCtWSftc5zczfPG3rAbMPuRpAfnuMnCee06TR5VX+a+m8oNa1xpxX/JSpe8+bmeHvElk0x6dNpjbc/zHIk7r6s4r8x8GcupyT3bsbKg2D7byd787yQUggKm8ZQLHxe9u2Ni91OeEBtFzUwpCXW0sMg+J8nfPNcnDZVFizsskXUlOSUl48mlqb6H8ri0YdjrX2Sf8i4SnrBMvCkUEDdMd/Vlw5tqy5/yNZhE+UOxUGQVh7nyt95RUnMIrP05K+Sn47g+S5/2Pp6VqkZTwjMn9tlbxeZXSWwSYZSb/qyKaBQx7zmPQzpV8YCKuuDXnZ6vYuvPS24WabZ6zQsqcnGypp6W/eyc63X7GTm+V5Rb8etexdaks8Kv6eZa++K6l5SEIp7Luq93PTAPq+9W73lTYqlf/25QYtKGDM8jG3P8jzt7/kNXWklvG+kxf4OmX1JPGOcyLNluN5jxcpxl2rJf6entGau04393kef5uPKqvI6RPiPHSL6rwp2ON7kZ3JnuNtZ2vuUW5vf0MqqpBX+zxsd83ODVdOMMmLFEURicjdvoOLxYJTcbaptou5FSSe4/Ro5/hCh59D3fo1J6Rtqs36Tvi0c8K2c4DPA1FxvJsD88jvFwiBz7XBsgMCVb1stDUPDc8/obqoLg3ubetmM8w3kL7lb3zHb7u1Rul4SE0kJTsnGrjL6RFtkLpC1wK2aeze2MTzj+dR/XK6i/7HI8b6p8+oQv+TTElleVZcCzzGWLrIbpeEfUVg9znu/yNKtbwjTRKVn6g4TekWqlplVTlgBf3tpmMdKJDn/4iqd5D3J3hLRNKCM+JQt3i3ePFMvbrqz9/lVeGG+oTzv8lbfjw/UXkRu9vLDTmyfF+0dKbTxXWfPFlI0z2Ffs/8Tr8ZH/2anmFhL3doh3kNQZsFPBXdyyPPN2ifHOs/0DP7+Zwo8Qp9eREE7zGzUsfSBi19qTRmz7VamtryKgj5DF4n0kJWYreHGAbHOvLjbkmN2/zShlMVEHLr+pq9JCQitJvneeh8bCtXXjiwy6vd2/9P0GWX0PKMZzuoRmkmyz1f0sI1ubIvdnbbP5d/G+07tUVttk4ugk3k2SbFRFZCI8mxf7deALrP+R0GrQyK8h1wi3k+Qahf7dxrOB7QuH/q71v3G+P9HGIH1zKaGyhJaSPOvfA4bBt8Il3C62/Ad1xaqyVeNcTrJZvKckTWPVa6Kr8v4lx4Zvvby60AcI9COkr4y+khSlbM7hA293QkIPy/+YIVoa3GnnnTI6SxKUmp4LS4EMOY3LWf43gZ+wjluucSLFZcroLYn7IBeWAUlqW99o4n8V00KpGudxEhnNJVGpI3AJ0EC8QLix/1F88CQouy6u/zr4uwurGNyXkGTxwZOQ8S//CdZ9Pbw8RmihLWzwXPkH638m74D1Xhfh7+ie1muU7M/igyf/anlfbdM8VcTrhLsfS3zs5NvMs2F910n4RyzgAdJGfOzk1x6pb/YOLgkHSBXU2FeKj538WRWFs6sCEg4Q2IUQvi8dpCbudxntfD8r9RvYAbJdfOzkw9SAP24ulYR6wQ6QDhIGT159+BGq3xASKgY7QG6XMHjyqFWUPj5SzP4OUk587ORN43aoZqOY/DMv7zTRbO9kV6+YCRWDD5Dh4kMnL/Y1BXUaKV28bqgD5EnxoZN7H+//C6jRUBLuxULd79xdfOjk2qQ5oDaDSbibF3W7u9V7HkiBK3W/ujkoJDwPghp6e+ehkRw9DqCajCdcvDzUyDtL6Dy5sb4NqscBkCdaPdS9imkyWk8u7Az7U4O2louWD/Ud/XoZvSdnj4EaHBCCCysmJKBegSDh9zdy1uMTUH8DIyZWwHTUuA/KaD85+HQ4qr+BIXiOBXs0wPJ91yTN3ho3o9obHNVjIiWE3an4vqQMkLWnIndrYlx+XuB5AuwD5D5ZKSAreTy9Ok7ghkXY8+gpo+UFgeKaFb1bdy1kxPzWMAZ7i+cOroml2E5UawPI90+9uIf318jMApXwcXdYa4PI59cQ4Cs8eYalVPJQXGsDydcCi7BLICkpd/IMS6Vhb+BaG1A+HpzKg30B4Rug1XquI66zQVXd802LyOODZ1gqjYrqsx/2PJ5lVUEeH232qokG5XsY2NhA8/RNHffOg2N2qQoHJTSDdjbQ+jR2W8Q83FulCsxWmZBI+7OpbzvXorrLGxeBP+8WuFVtSCJsAH/etdfHxW0nqfCl7x9Wn5Roqgc+MzDBVofzrMYBeKvpeD1xiZxDc9GdNUJbm2siqQE4PFI+0xeZSPk8Dd1ZU1SvuzzOZZHG6V3hJ1cFbtCfnSj4sBq6sWZpu7VsldTUWEJCLDU1vWzXtsjrHsVsRicpnFqvRDeW5NiJjlIoJTdA95XkyFyLzlIY3RP5xUtC4wt0lsLoy/7otpIsq9FhCqGPD6O7SrIM5H2K8t2P7ipJczc6TCG0C91Ukmc/Ok3hw/t3Q2U9Ok9hMw3dUZJqxyF0osLlEXRDSbLNXJVXokbodpJ0Q9GhCpEnuHxiCPHVILI0X4HuJakwCx2skFh7K7qTpET1p9HRCoW9EX55bci9UQodrjBYim4jKdMfHa4QuAjdRFLoA3S8jHcbf8AKtVHogBmudV90B0mtT9ERMxvu3S6kSWl0xky2AN09Um5gPXTKzHUQ3TzSoDI6ZsaqeRm6d6RDd3TQDLW3MrpzpMcj6KiZ6UJ030iXCuismeism9FtI1368p4Tz/7MNdwjpD9XOfGKz9hGylJ03kzT7a/olpFW89GJM8xX6IaRd9Vzcl7OyfH3doVKVdGRM8p+ya0j5dq+MqiweaXm9/TxloW0LtDEmaX8X+Q3kFTaml28g/O930X31f9iwmYi3qNoluqJJXt4k+etvKw/aIZapaCHpE71QfG6mOj5POtq3UEz1KLhKrpIqsQ/PvJPs7xuqGNNvUEz1TkqukjKVLFqZFmvW6r4sc6cmWrf31R0kVRpa91Kz3dDcDE5Fyqq6CIp09i6lYmeN1ZOX85MVUVBD0mdrXbN9PxzZAbXtHZQik9JmcXmA8TP/+0G6wqaqb5W0ENSJ8O+nd43yBV7bU3iN3Sz2J5h+fianjJwpJ6kGep6BT0khRx+d9rqfYvf6EmamXrL7yAptdy+oZ4vheSboidrRmoovYGkluVVwuP8HCAdO+sJm4EmSO8fKeZwiuXnAOFJliW+CsQ4Kg6QlMV64macCpKbR+rVtW+pvwMkLVlP4EzzgOTmkXoO10F8PtlzlZ7AGeYSua0jLWK2PfXx7G2B0XoiZ5ZvpTaO9LD9nTfP71b78iSrhG4y20a69LHrqb+vIMe8qSl1BlkjsWukT55NT/0tAVTgoK7cmWJ8lryekUY2D0yJPLrAt6ifpIm0jpFelhfTY36/ohf4Tmf6gu/LNrL6RZpVtzrJqiu23claAxh098ppFgFUT43bUh938haTZfssVtRwMV6TxbnhJE989b8ntacwuHiXidkyTvoi0tj/D7xF3IsJYxBtklFPAsooe+KMKFZF9Oyq0Ft881ShUnIKSlB9ulZJTU0vK3FlZd74Xmi5vJpSmKSjkxkQI9CNoGC6k28NOaY9ug8UVJvQ2QyEeeg2UGD1RoczAJIz0V2gwGqATmcAtEA3gQJsJzqeeHzjGlmrPh6dT7TOf0f3gIJsHjqgaBegO0DBFvVVgJagG0DB1veP6IhCLeKC7mSvDDqjULejy09BV2kYOqRIXO2HnPwDHVKgvUPQ1afguxwdU5zn0LUnAwzvhc4pzH507ckETdA5hemPLj2ZYEgMHVSQP/4FXXoywo3opIIsRheezNAvos+n34cuPBkiCR1VjDnoupMhXoqhs4qQ/E903ckU36PDirAaXXUyR3N0WgGWoYtO5ngMnVaAZ9FFJ3P8bR86rvpxuQZy7xZ0XLUbhC45meTvVdGB1e0HdMnJKA+iA6tbV3TFySxR+xbSEF1wMstn6MRqJvSWR4qef0brtWxd0PUm03RCZ1arG9DlJtP8tSY6tDrxRyzyqhk6tDrdja42GeelzujUavQNutpknmXo1GrEO7HIs37J6NjqUw1dbDLQB+jY6oMuNZloLjq22vDt6OTHRnRwdamPrjQZKQcdXF349mfyZTY6uZrUQheazLQBnVxNXkcXmgwVkbvem6DrTIbqjo6uHkfQdSZDVRqAzq4W29F1JlPtRGdXiwfQZSZTjduLDq8OH6HLTMY6iA6vDpXRVSZjfYQOrw53oKtM5qqPTq8GI9BFJnM9hE6vBnPRRSZzvTQSHV/1OqKLTAYbg46vernoGpPB3kDHVz2+4JYELEbnVzl0hcloz6Pzq9yf0CUmk/19JjrAqqErTGZrgg6waugCk9n6oAOsWiV0hcls2egEKzYEXWAy22R0ghXjhUISEvblTQaiC0yGW4SOsFq8F4vEjEJHWC3ezUtijqAjrNZKdH3JcHegI6xWA3R9yXSt0RlWqg66vGS6KegMK9UOXV4y3QJ0hpXisj8k6El0hpXahC4vma4SOsNKfY8uLxnvEDrEKnHxahJ1ETrEKm1DV5eMVwMdYpVWoatLxgv1ixBmoatLxmuJDrFKs9HVJeOFeo3e5ujqkvGeRYdYpb03o8tLpmuIDrFS1dDlJdMdRmdYqRx0ecl056MzrNQ8dHnJdLXQGVbqbnR5yXB/C/cDIf9C15cM9w90hNU6iK4vGW4VOsJqZaPrS2abiE6warnoCpPRfkQHWLXv0BUmk3VC51e5q9AlJoMNXIvOr3Jj0DUmc3Wsio6vepeii0zG6rgPnV4NYugqk6mqnYUOrxZcv5p8uWoAOrp6HEYXmkz01mno4OqyB11qMs+fjoT8vSBFzEIXm4zT8Cg6tRrVRFebDFNnMTqzelVHF5wM0ub7cujA6sYV3smtZy9HpxXgHHTVyQi1W/4wHp1ViB/QlScB57XrNG3LwsJWJi8c/chNy+7fUHGE7PPmZ5qNhoYUaYLkWpI2nVJHWrZ10IwObx7O2dxGcBe517VblzSlnsY8Bk4PKb0i7R5yF9uave9tcmRTy/6Vc/I13Zw2xH6rQ9J+f+6xf7mh2ZiDFT5XnD0z6GknyVW5vljX1zY/WqH9qBmv777r1At+apR4TOl9NZPlRCpcMtC9Ju/CvRpVsFyMbjZ5Fuq31gQNL4SYJutSdGYi5Wx0v8mb3LfRkYkWfoKYZUcFdGIiZiK64+RFFB4ED5ZMdMvJgyE8PjR7G91y8mI9Oi+RsxTdcvLgHHRcoucMdM/JvbkRWSkhQH5E95w8mIWOS/Q8ju45uXcNOi3Rw0fSTTITHZfoWYDuObm3C52W6Enmkg0G+RAdl+hpgu45ubcdnZboSd6Bbjq59wQ6LtFzF7rn5N4cdFqi58NK6KaTe7vRcYmeL9A9Jw+y0XGJnI3olpMHK9FxiZyZueiekwdd0XmJnKbolpMXW9B5iZqe6I6TJzF0YCLmdXTDyZNx6MBEzCx0w8mbW9CJ0a3ewk8Ti7ttrb69/5iFbjh5c5e+cGCVXv7tZusydPxkXZl09bcUrOcVQtPUUh6KIBh/V0dX1Rh3y8/WC9uL+/Elxd0k6c5SmIegOPS1lxObdnv2KRrHKFVNJHUUZSFAYms8F6ViCxXL0f+koH2kWIaCIATLzjt9FebwDNnHyL8lt450aCg5BUEzS2BxnSWvSHx54uf/kNc00qenvAgEUOtvBcuz4Q+SRjLf4QVcFFBLJQUgkG5/S7xAbY48Jz6QAZ3EB0IQr4t3P6h6iX58/OqZCwWPkY3jJI2EtEuXE8YA2nerxDJ17DnF90Dy+B4Qg4X2nTnTZFdqx5u9/Yyjy1bZAyGduskOZkDMU1Gsy9b9YZG3YSTv4fpXZmutJp9g49sqK1id+xa7HsYT9/G3K9MpTCnOWdXUFu2jD0o7D2LKZ+5u/6JAU59W/RI13BI45IoPRpW3GkDVU7p+x/erhUKmzuBqcoO2W8qz5hzu+tqL6/PKd07oPDYxMfGiMdM3nV1nha7dk3r90GmW77ba6KJSeAxBx1m6zyVcPScqFLoDZORKdEkpTMJ2ivVlZXRFKVSy0ImWjC/+I7nQiZbrTXQ5KWy+RGdapj3oalLoxNChluh2dDEpfBqjUy1PI3QtxbSckDD2MHoQdDIJj8sFxEKzLxB+XTCJmUv7oQdCxch65hrvDTfTTTu37uD7arSq9WNiYuKWn364cs+y7UveD8S9IcMKp9FFyY365NdkaKglSrKfZ8eKm147WN/qj+u98+I53+kpuIUNvw3m0TnQkVAxm3SEV4PZ1lPcvPXfE1ytJzr7xcmPXaev9EVlHi06kA8wg6A4LlaTV90W/RJ3dn3f/SDV49Lt9VYd6a+5BykllgZInKt/CBRfTFpIkUr+/JPbv+wWv49LLpqqeZ2FJiVG8I3eAZClUwSjGQhTi89p3NZWVQW3WP57jS8qOBxnAA/r2z3ZOSCYpCCYVOQRwtotf2guZaP1uutqwftxzwITed9+MMyUEieoE7fwXvvyaombrXf3Dh0N+KVH/N0/Far1tN765JtlSWVu/zFx9E//N+1IO4MWexksMVIYqwvmkXngFOnvLIi9rL7+acMsd19W/d516HdVlbdLtCb7P1egx+XWbNmx0u2j3IbNWt2gZtuXNFRc/eGHbPZ+aSCuYQrZcf+oXhazW7vKjM/IOiqCpdNtSre+5RmVxW9z1Hbn443532x8Vzis2DqoJXqEbjwsMU5h1Oo8ZaWfmO208+XK9q3cxP1PORc3W9YS4wplRuE9hSJ6lVF0C+G1Lq7UtPf3hiy0rDVuT90nxL/IGyTPqHgjX6h08f6eQxfaubrK/3kfFftWrFPMfXEHfI0eraPrfeYmQoYNll71G93u+wvpu1athbfinoIer6NmXvMSQXnvSS35C6nud91E6p7V2+q1tuXUfc2TpIbXKUXRNomLtc/xdIF2ilnPUZ3pubQ1A38eyc8QF3o8JKvcuzzueaziBesl62//63UcA+qix+wkLE+GqHX0VRm1TvvR844XvStjx/o8PsjrDJuhh+zkbKsrnlTUevGTgXkxPzv+l4Qe6/Sq11fWXYkesZNnQvvCQrmmDhQqc+2ffe537BmSGq3Lil3ebmOajx6wozddPZpKywVuRa9sfXOik9jz8lqtyR1XdvEwwedeQI/XyQtjfHcvUtae77PAI2YI7XeZ1G7rceA/7q9DP/179Ggdpb0u1MHIOOTnHqI+YodHvvRc2Q3X4fDlA1zOL/Y+eqzOOt5VSrSNkVBzl8fCPjlKwl73mfkClKzDq9ytntG6AXqoLuTexe8ibhx6wH1N+625RM5OFwX+goGV6//j5hjpshk9Tjd2LAjRor0KTTjs7l3P7+/0uPqQnRqKm6/QNT85T6/LxehRutPQxVwoISHvdKcLI/3//bTcXc6SeMuLbv22t3ea3shP0IN06bIFnq+GRlNyuVM/+m/cClbe9NqjEj87fnVU6VOOqv2yO2Y/vQFD0UN0Lff5afvk9zecxqbXuP8fOfmeb7l919JTV11aX91jNiPNuyJSVNbXB23/t3GP6pUApLpuQXjekRAefi/EBEXm13bfcu/JQY/PmxFJC7V1ntyp9ZJz34Jtus3FkbVN0aPz6tYktYuHkFdVM9CZELVilfXsRt6BHp13E28sra/95Gi8UWfqcVW2/obbJfhrOcQxt+t6jQkgB9PReRCW+aLl5Goa+g6It9Y00hgBsjXrMnQchA1eZDW5SYF/UN3KZfd7fyKOlHj6K3QYhI2zPM0y9whJSfnvAkm3FpGg36GjICzXcn2X+m3QYxOxeZnxy16HwmrjXyRSyfIH0qNGHyEpKWec3k1nFCiup4z/Nauv5RKsR8Uebw6AT06V80InElAGnQJR/S2ndsj4IyQl5dwWXNsXbEsuOgSCHrWc2kzTlqqIJ+sx3tKI1c2Ix4ysTbSe2kyz1syzcg1/1YJKvgWdADGPWE+tvMG/9hZ1v+UVH9JhGzoAQubYzKy+u8c2A28Ff/aFGmT02brdfX5PmPkSoZI+1RYGiiN5KzoAAk63m9k7tdHDk2MgFwzCutyg94+fpJ3txN4xd2LFeH5zCsn14RJ0BPzKtJ9YWI4Qfg1Be6USOgM+ObxS5LlwnGXdoicFZG2Sgc/iHbPYYV4h+QyppyUEZEfJK3mVc1y3OBxHyFQdCSB7B028tPaD47RCcYR8q6H/5GS8gdfV5ztPKwxHiN0VUdKnlnFPibhZWSoE10NeVd56ciW2Dh0Fb2xuVyzinR3ocYq6SXHfybXVK9Bh8OJSd5PKM/wsa+49aptOHqw9Bx0H98q4ndRYsxdycVzbnnQqZ8oy8B5uwTjL5COklrpeky8d0JH4b07L05OSkna9+11f63+0zMuU9qXpG31c1fr5/MMViaraTL4tfE9qOLzaX3Qs4/ddOmP34BIvHFrytrcpNb8VMZPfPJwwbPXu7e95Xj38C97LG0h7VITEpVZxR5Td+/LdSUlfL/klJWV4xQ4ON2HFMfJc4JRSUgYXDqP526v2X3XgOpd/dWC0QA9Jpaqwt/5tUDUl6IXQ704aTPLMJ2447d6dTc7vdMuByhPPy4zzJyO68wUiQbYN9EhefWUzug8zoQJZToN7auGExKIqKCsDSVLqTESSHlc4o38hJlToc4XzIpCjH+kP0iyVE1qcq39ChWxe/EPmukj7Czds3rEmwSTYRZ7pSudFKL00n7g3VDyfkVfonc8J6xRPjFDGav19VP19eZN1Tuc3dZVPjFC2aFyj1O5Fz5I8B1kLzHqtbTLfK8M1xegrHbPp9b2m2RS1RMfMCOWe3XpuGdd0Y97b+r+rz9MzM0KJXThEfYpWapvOheonU9zd2qZGIGsnK//NN13fbI5qfsfWRn1TI5iNnygNkd5fekY3VTqZ4jbzqcBoSD2gLkRDPtQ8mXRtt/WnZWueGsFUeFxVigD3dicOVTWZYprqPvQJqd42JdcOL4BMJrGOirkUtwcyMwKK/TxP9oLXP6HmsrGy5JkUl7muPGpmBPXzY24fjHNhLnKN/wqb/D4x7ujZnXzLYIR13vi9nLOtZr3AM3mxnZR5FLd56dPgaVEAlFv+oOAFksPvoOeQr/S7co6KQlkP/NQaPSUKjOY/33i9zxOu3PNrokdfaMDGdXJOtRoM3sa3QlFJC0/b/1jDDC9Rynr/1GT0qIsZtauO0FK+Z3yxnK+lJXvdGrUoe+Zn1+c06Gt9+1btX8594MyHB6GHGlePR2t0f3Bon7nuP05y+2w4Mm1q+qeH0F+lyDSxxnmp83+YXDbpVx2unHH1oJnoYbnUo365Ri+2mpYUx+7XZ5xWsPxIuX3NeVgQERERERERERERERERERERERERERERERERERERERERERERERERERERQfw/6XJ1RErhpkYAAAAASUVORK5CYII=;flipH=1;fontSize=28;" vertex="1" parent="4">
                    <mxGeometry x="122.36189179150715" y="109.99999999999996" width="104.04842101857587" height="57.485315479876164" as="geometry"/>
                </mxCell>
                <mxCell id="6" value="" style="shape=mxgraph.signs.science.microscope;html=1;pointerEvents=1;fillColor=#FFFFFF;strokeColor=none;verticalLabelPosition=bottom;verticalAlign=top;align=center;rounded=1;sketch=0;flipH=1;fontSize=28;" vertex="1" parent="4">
                    <mxGeometry x="73.9098675250712" y="91.04999999999995" width="48.452024266435565" height="99" as="geometry"/>
                </mxCell>
            </root>
        </mxGraphModel>
    </diagram>
</mxfile>